<?xml version="1.0" encoding="UTF-8"?>
<svg version="1.1" xmlns="http://www.w3.org/2000/svg" width="512" height="512">
<path d="M0 0 C1.30336304 -0.00361794 1.30336304 -0.00361794 2.63305664 -0.00730896 C4.46537858 -0.00633191 6.29773055 0.0070278 8.12988281 0.03198242 C10.92875811 0.06629907 13.7244755 0.05263353 16.5234375 0.03320312 C18.30730506 0.04010189 20.09116449 0.04977456 21.875 0.0625 C23.12518921 0.0550602 23.12518921 0.0550602 24.40063477 0.04747009 C28.35802737 0.12737507 30.48647443 0.3595397 33.953125 2.42993164 C36.60336088 5.36677645 36.71386561 7.75257684 36.9375 11.62890625 C38.855625 12.00015625 38.855625 12.00015625 40.8125 12.37890625 C53.95123042 15.37617913 66.28776004 22.21166936 73.9375 33.62890625 C79.30126781 43.52456121 82.40758105 52.34696096 81.9375 63.62890625 C83.175 63.58765625 84.4125 63.54640625 85.6875 63.50390625 C88.95176921 63.50967351 91.22433393 63.64620796 93.9375 65.62890625 C96.4290904 69.36629185 96.39543285 71.20222208 95.9375 75.62890625 C94.3359375 78.3359375 94.3359375 78.3359375 91.9375 80.62890625 C88.703125 81.1171875 88.703125 81.1171875 85.1875 80.94140625 C84.01703125 80.89628906 82.8465625 80.85117187 81.640625 80.8046875 C80.74859375 80.74667969 79.8565625 80.68867188 78.9375 80.62890625 C79.02 81.92828125 79.1025 83.22765625 79.1875 84.56640625 C79.15906971 104.63818804 69.7838907 125.98585539 56.203125 140.375 C51.15390102 145.39810731 45.98069076 149.85191203 39.9375 153.62890625 C40.91943453 154.89314696 41.92431764 156.13956711 42.9375 157.37890625 C43.7728125 158.42304688 43.7728125 158.42304688 44.625 159.48828125 C49.95812738 164.42502754 56.60960829 166.32003331 63.57421875 167.8125 C64.37551712 167.99474625 65.17681549 168.17699249 66.00239563 168.36476135 C68.54117454 168.94179793 71.08256816 169.50570036 73.625 170.06640625 C94.19104661 174.60649914 116.18509765 179.96297108 128.875 198.50390625 C133.83213261 207.66974629 134.91557159 218.53319225 136.40991211 228.71044922 C136.75282885 231.02298323 137.11724763 233.33151381 137.48242188 235.640625 C137.70443648 237.12350216 137.92518602 238.60656939 138.14453125 240.08984375 C138.25481155 240.77323822 138.36509186 241.45663269 138.47871399 242.16073608 C139.05272011 246.24735845 139.04562489 249.03364837 136.9375 252.62890625 C135.1269764 254.60865769 133.6533385 255.52826226 130.98062909 255.90403438 C128.40428311 256.01792169 125.84376324 256.02840556 123.26490784 256.00985718 C121.7766182 256.01687714 121.7766182 256.01687714 120.2582621 256.02403891 C116.92407441 256.03603219 113.59029446 256.02651456 110.25610352 256.01708984 C107.86956542 256.02115364 105.48302921 256.02649443 103.09649658 256.03302002 C97.28132372 256.04529888 91.46628105 256.04347474 85.65110416 256.0347821 C80.9248784 256.02800952 76.1986852 256.02708698 71.47245598 256.03035355 C70.80002877 256.03081325 70.12760156 256.03127294 69.43479778 256.03174657 C68.06880156 256.03270574 66.70280535 256.03367838 65.33680915 256.03466435 C52.52393066 256.04322156 39.71111654 256.03337928 26.89824861 256.01726325 C15.90405731 256.0038628 4.90996106 256.00618523 -6.08422852 256.02001953 C-18.84941185 256.03607479 -31.61453874 256.04239433 -44.37973076 256.03318274 C-45.7410339 256.03222709 -47.10233705 256.03128398 -48.46364021 256.03035355 C-49.1334355 256.02989072 -49.80323078 256.02942789 -50.49332289 256.02895104 C-55.21339621 256.02636076 -59.93343373 256.03073303 -64.65350151 256.03779221 C-71.00726219 256.04644704 -77.36084312 256.0404669 -83.71458435 256.02310944 C-86.04908003 256.01913652 -88.3835908 256.02029234 -90.71808052 256.02689743 C-93.89990056 256.03507107 -97.08114126 256.02484144 -100.26292419 256.00985718 C-101.19113194 256.01654934 -102.11933969 256.02324151 -103.07567495 256.03013647 C-107.87394868 255.98617851 -111.1932595 255.80598684 -115.0625 252.62890625 C-118.50343336 245.74703953 -115.33795558 235.2488944 -114.20092773 227.93725586 C-113.87759027 225.83326141 -113.57806474 223.72674501 -113.27929688 221.61914062 C-111.26797809 208.13143854 -107.56151351 196.8388397 -97.0625 187.62890625 C-82.65062771 177.00668431 -66.4938074 173.31125081 -49.33813477 169.57666016 C-31.40535634 166.13535411 -31.40535634 166.13535411 -18.0625 154.62890625 C-18.0625 153.96890625 -18.0625 153.30890625 -18.0625 152.62890625 C-19.74798895 151.35013982 -19.74798895 151.35013982 -21.9375 150.06640625 C-40.71967112 137.790285 -50.4533453 119.14613431 -55.31640625 97.5625 C-56.45848689 91.96838138 -56.86732434 86.32803553 -57.0625 80.62890625 C-57.88234375 80.66371094 -58.7021875 80.69851563 -59.546875 80.734375 C-60.62453125 80.76144531 -61.7021875 80.78851563 -62.8125 80.81640625 C-64.41351563 80.86861328 -64.41351563 80.86861328 -66.046875 80.921875 C-69.42468111 80.59372026 -70.72180749 80.05163238 -73.0625 77.62890625 C-74.12628903 74.98051482 -74.31128035 72.46500226 -74.0625 69.62890625 C-72.29785939 66.76897147 -71.06684303 65.13107776 -68.0625 63.62890625 C-65.3901379 63.49475153 -62.73999512 63.58572084 -60.0625 63.62890625 C-60.124375 62.55640625 -60.18625 61.48390625 -60.25 60.37890625 C-60.18272435 47.6638079 -54.65487706 35.65171483 -46.01171875 26.46484375 C-37.83562247 18.76391139 -25.60062051 11.62890625 -14.0625 11.62890625 C-14.165625 10.74203125 -14.26875 9.85515625 -14.375 8.94140625 C-14.0625 5.62890625 -14.0625 5.62890625 -12.109375 2.96118164 C-7.98771991 -0.19380001 -5.05437025 -0.08040211 0 0 Z M2.9375 17.62890625 C2.9375 32.80890625 2.9375 47.98890625 2.9375 63.62890625 C8.5475 63.62890625 14.1575 63.62890625 19.9375 63.62890625 C19.9375 48.44890625 19.9375 33.26890625 19.9375 17.62890625 C14.3275 17.62890625 8.7175 17.62890625 2.9375 17.62890625 Z M-34.0625 39.62890625 C-40.04434215 46.67990118 -43.0625 54.39667004 -43.0625 63.62890625 C-33.4925 63.62890625 -23.9225 63.62890625 -14.0625 63.62890625 C-14.0625 52.40890625 -14.0625 41.18890625 -14.0625 29.62890625 C-21.4518165 29.62890625 -28.84064384 34.68246444 -34.0625 39.62890625 Z M36.9375 29.62890625 C36.9375 40.84890625 36.9375 52.06890625 36.9375 63.62890625 C46.1775 63.62890625 55.4175 63.62890625 64.9375 63.62890625 C63.83752361 52.62914233 61.78919844 44.85712214 53.6875 37.12890625 C49.10115447 33.39130717 43.04648502 29.62890625 36.9375 29.62890625 Z M-40.0625 80.62890625 C-37.31816908 101.21138815 -32.49612356 120.42385638 -15.390625 133.703125 C-4.26648622 141.19777782 6.74588751 143.03130453 19.9375 141.62890625 C32.30310175 138.9759226 42.95963673 130.88289287 50.0390625 120.56640625 C57.98513068 107.84198419 60.77830147 95.69848719 61.9375 80.62890625 C28.2775 80.62890625 -5.3825 80.62890625 -40.0625 80.62890625 Z M-3.1484375 160.78515625 C-5.29863271 163.94240491 -7.0625 166.73310704 -7.0625 170.62890625 C-4.87040789 172.52436884 -2.67186994 174.30646694 -0.375 176.06640625 C0.25083984 176.55689453 0.87667969 177.04738281 1.52148438 177.55273438 C4.92336956 180.1923123 8.20953488 182.39212718 11.9375 184.62890625 C17.5475 180.00890625 23.1575 175.38890625 28.9375 170.62890625 C27.64391206 167.3949364 26.53467733 164.74410772 24.8125 161.81640625 C23.884375 160.23859375 23.884375 160.23859375 22.9375 158.62890625 C9.30105608 156.90581514 9.30105608 156.90581514 -3.1484375 160.78515625 Z M-30.0625 183.62890625 C-25.4425 201.77890625 -20.8225 219.92890625 -16.0625 238.62890625 C2.0875 238.62890625 20.2375 238.62890625 38.9375 238.62890625 C41.0825 229.94578125 43.2275 221.26265625 45.4375 212.31640625 C46.11619141 209.57674561 46.79488281 206.83708496 47.49414062 204.0144043 C48.02761934 201.84821238 48.56084024 199.68195695 49.09375 197.515625 C49.37444336 196.38660767 49.65513672 195.25759033 49.94433594 194.09436035 C50.20827148 193.01867798 50.47220703 191.94299561 50.74414062 190.8347168 C51.09055603 189.43240059 51.09055603 189.43240059 51.44396973 188.00175476 C52.03931634 185.5433209 52.03931634 185.5433209 51.9375 182.62890625 C48.8837122 181.27166723 47.2079049 180.58065437 43.9375 180.62890625 C40.73754716 182.36553546 38.20507734 184.75284182 35.53027344 187.20458984 C32.30623365 190.08764443 28.91899003 192.77770562 25.5625 195.50390625 C24.87220703 196.0750415 24.18191406 196.64617676 23.47070312 197.23461914 C22.81263672 197.77465576 22.15457031 198.31469238 21.4765625 198.87109375 C20.59798584 199.59594971 20.59798584 199.59594971 19.70166016 200.33544922 C16.62036887 202.59460798 14.61653004 203.61559194 10.75 203.69140625 C5.36292918 202.19009143 2.16245068 199.20748061 -2.0625 195.62890625 C-4.12189632 193.94184795 -6.1884208 192.26380405 -8.25610352 190.58691406 C-9.69531422 189.41879363 -11.13206068 188.24762964 -12.56616211 187.07324219 C-13.56595093 186.25581543 -13.56595093 186.25581543 -14.5859375 185.421875 C-15.18325684 184.93227295 -15.78057617 184.4426709 -16.39599609 183.93823242 C-22.1156662 179.44444532 -23.28044123 180.23787687 -30.0625 183.62890625 Z M-65.0625 191.62890625 C-65.0625 207.13890625 -65.0625 222.64890625 -65.0625 238.62890625 C-54.8325 238.62890625 -44.6025 238.62890625 -34.0625 238.62890625 C-34.84807934 232.08339352 -34.84807934 232.08339352 -36.18579102 225.7734375 C-36.40594376 224.91314941 -36.6260965 224.05286133 -36.85292053 223.16650391 C-37.08837082 222.26722168 -37.32382111 221.36793945 -37.56640625 220.44140625 C-37.8091478 219.4982959 -38.05188934 218.55518555 -38.30198669 217.58349609 C-39.07168561 214.59741174 -39.84822759 211.61315747 -40.625 208.62890625 C-41.15084523 206.59386741 -41.67624046 204.55871224 -42.20117188 202.5234375 C-43.48308037 197.55723306 -44.77112537 192.59265722 -46.0625 187.62890625 C-52.00570582 187.45713115 -52.00570582 187.45713115 -65.0625 191.62890625 Z M68.9375 187.62890625 C64.00830927 204.47820725 60.01758334 221.55937646 55.9375 238.62890625 C66.1675 238.62890625 76.3975 238.62890625 86.9375 238.62890625 C86.9375 223.11890625 86.9375 207.60890625 86.9375 191.62890625 C78.04126616 188.83706216 78.04126616 188.83706216 68.9375 187.62890625 Z M104.9375 199.62890625 C104.9375 212.49890625 104.9375 225.36890625 104.9375 238.62890625 C109.8875 238.62890625 114.8375 238.62890625 119.9375 238.62890625 C119.39806453 234.45807557 118.83193122 230.29383928 118.25 226.12890625 C118.10111328 224.95585937 117.95222656 223.7828125 117.79882812 222.57421875 C116.21523575 211.52012296 113.54735298 206.80378373 104.9375 199.62890625 Z M-86.375 202.12890625 C-87.26638672 202.825 -87.26638672 202.825 -88.17578125 203.53515625 C-93.30278999 209.22475601 -94.81292691 215.84530574 -95.8125 223.25390625 C-95.93753906 224.07375 -96.06257813 224.89359375 -96.19140625 225.73828125 C-96.83803727 230.15811085 -97.0625 234.10077813 -97.0625 238.62890625 C-92.1125 238.62890625 -87.1625 238.62890625 -82.0625 238.62890625 C-82.0625 225.75890625 -82.0625 212.88890625 -82.0625 199.62890625 C-83.86229637 199.62890625 -85.02136497 201.03904165 -86.375 202.12890625 Z " fill="#000000" transform="translate(329.0625,214.37109375)"/>
<path d="M0 0 C1.35883301 0.05063599 1.35883301 0.05063599 2.74511719 0.10229492 C3.76379883 0.16006104 4.78248047 0.21782715 5.83203125 0.27734375 C6.94223633 0.33188721 8.05244141 0.38643066 9.19628906 0.44262695 C13.3482781 0.66763973 17.49599903 0.93411841 21.64453125 1.21484375 C22.9172287 1.300224 22.9172287 1.300224 24.21563721 1.3873291 C143.49425237 9.48229985 143.49425237 9.48229985 171.64453125 28.21484375 C172.51078125 28.77171875 173.37703125 29.32859375 174.26953125 29.90234375 C179.20175989 34.7047769 183.44119533 41.45080737 183.81758118 48.41824341 C183.97378577 60.77425988 182.79815218 72.93205926 181.5 85.20703125 C181.27190717 87.41841337 181.04414638 89.62982977 180.81669617 91.84127808 C178.52698367 113.92841744 175.98207262 135.98566186 173.35139084 158.03445435 C172.94885445 161.4083789 172.54737974 164.78242864 172.14602661 168.15649414 C170.25887297 184.0077108 168.34982444 199.85625555 166.43201226 215.70378804 C165.79366859 220.97942156 165.15694787 226.25524975 164.52062988 231.53112793 C162.33021294 249.68664106 160.12494629 267.84024844 157.8908453 285.99044228 C157.6888012 287.63211505 157.48677258 289.27378972 157.28475952 290.91546631 C157.18509363 291.72539909 157.08542773 292.53533188 156.98274165 293.36980808 C156.2811272 299.07812796 155.58766513 304.78740323 154.89761353 310.49713135 C154.05270246 317.48703173 153.19641381 324.47542445 152.32563543 331.46215141 C151.87742499 335.06082624 151.43444585 338.65994724 151.0051918 342.26093674 C150.53585361 346.19638771 150.04148686 350.12846427 149.54467773 354.06054688 C149.41114049 355.21291399 149.27760324 356.36528111 149.14001942 357.55256844 C148.23741238 364.48311103 147.05021096 368.72250552 142.109375 373.7890625 C131.58171479 381.46267672 118.14726948 381.35946063 105.64453125 380.21484375 C95.02899876 378.20005901 84.53319183 373.69895763 76.64453125 366.21484375 C73.278486 359.48275326 75.71622478 348.33245574 76.58203125 340.96484375 C76.66880127 340.22613037 76.75557129 339.48741699 76.8449707 338.72631836 C77.50773918 333.48842789 77.50773918 333.48842789 78.64453125 331.21484375 C77.27143799 331.15659424 77.27143799 331.15659424 75.87060547 331.09716797 C63.29930648 330.493886 50.82453395 329.15891625 38.32226562 327.74072266 C34.75620794 327.33834039 31.18877778 326.95016421 27.62109375 326.5625 C25.31891356 326.30424742 23.0168266 326.04516199 20.71484375 325.78515625 C19.66563751 325.67253448 18.61643127 325.55991272 17.53543091 325.44387817 C10.83576033 324.66642299 3.92246596 323.79270138 -2.35546875 321.21484375 C-4.67647598 317.73333291 -4.71898274 315.96383897 -4.95745468 311.83279514 C-5.03089962 310.57478946 -5.10434455 309.31678377 -5.18001509 308.0206567 C-5.43652446 302.45664248 -5.61066803 296.89630175 -5.72369385 291.32762146 C-5.7649025 289.50187303 -5.7649025 289.50187303 -5.80694366 287.6392408 C-5.88142998 284.30570385 -5.95282183 280.97212871 -6.02276945 277.63849533 C-6.09930417 274.02642426 -6.17985381 270.41444209 -6.25976562 266.80244446 C-6.45108166 258.11270395 -6.63560229 249.42282449 -6.81909239 240.73291573 C-6.88836238 237.45669285 -6.95804839 234.18047887 -7.02774175 230.90426497 C-7.33516225 216.45066082 -7.64047421 201.99701366 -7.93994522 187.54324245 C-8.01300495 184.01832987 -8.08607757 180.49341756 -8.15917969 176.96850586 C-8.17734481 176.09251246 -8.19550992 175.21651906 -8.2142255 174.31398041 C-8.50963967 160.08518744 -8.81810419 145.85670819 -9.1318951 131.62830984 C-9.45424082 117.00232587 -9.76495247 102.37613123 -10.06420684 87.74965626 C-10.23238213 79.54410563 -10.40569309 71.33873323 -10.59204865 63.13357353 C-10.75046975 56.15689594 -10.89840304 49.18009689 -11.03250483 42.20290767 C-11.10123962 38.64356639 -11.17502631 35.08451685 -11.26229095 31.52557755 C-11.35668094 27.67038384 -11.42713281 23.81496687 -11.49517822 19.95921326 C-11.52658032 18.83160644 -11.55798241 17.70399963 -11.59033608 16.54222292 C-11.60464661 15.50981637 -11.61895714 14.47740982 -11.63370132 13.41371822 C-11.65252499 12.5240281 -11.67134865 11.63433798 -11.69074273 10.71768755 C-11.16046708 6.75914259 -9.31336342 4.11461759 -6.44018555 1.41577148 C-4.02311972 0.02338985 -2.76747309 -0.11760803 0 0 Z M6.64453125 18.21484375 C6.42835679 46.93118112 7.02129215 75.62694549 7.62124515 104.3358283 C7.7039343 108.30841179 7.78550251 112.28101722 7.86650276 116.25363541 C7.88009085 116.91997686 7.89367893 117.58631831 7.90767877 118.27285192 C7.93530075 119.62764193 7.96292 120.982432 7.99053658 122.33722211 C8.24712638 134.91681292 8.50797308 147.49631256 8.77034754 160.07578386 C8.99467006 170.83593468 9.2151241 181.5961593 9.43286133 192.35644531 C9.6874038 204.93554646 9.94442084 217.5145932 10.20527798 230.09356511 C10.34272519 236.72324267 10.47912041 243.35293837 10.61282158 249.98269272 C10.73828834 256.19652777 10.86744885 262.41027547 10.99941635 268.62397575 C11.04706977 270.89586792 11.09345578 273.16778709 11.13844872 275.43973351 C11.41778756 291.35314461 11.41778756 291.35314461 12.64453125 307.21484375 C20.62428698 308.13120737 28.60438019 309.04450914 36.58504677 309.95290375 C40.29111687 310.37486012 43.99703667 310.79805483 47.70263672 311.22412109 C51.28141966 311.63555921 54.86056591 312.04369015 58.43998337 312.4495697 C59.8027925 312.60468302 61.16546858 312.7609701 62.52800369 312.91847229 C64.44229943 313.13954836 66.35712812 313.35599454 68.27197266 313.57226562 C69.36007233 313.69661987 70.448172 313.82097412 71.56924438 313.94909668 C74.6115654 314.21199505 77.5925855 314.26195483 80.64453125 314.21484375 C84.55924372 282.93311473 88.32030132 251.63587209 91.95079041 220.31998825 C92.60005033 214.71981697 93.25110847 209.11985564 93.90246582 203.51992798 C94.34256626 199.73529482 94.78261848 195.95065607 95.22265625 192.16601562 C95.33206763 191.2250657 95.44147902 190.28411577 95.55420589 189.3146522 C96.79404195 178.65007233 98.03003633 167.98506725 99.2578125 157.3190918 C100.25306 148.67348572 101.25550832 140.02874807 102.26629901 131.38494498 C102.79540201 126.85782332 103.32089638 122.33035141 103.83737946 117.80177116 C104.31793083 113.58853919 104.80794782 109.37651654 105.305233 105.16522789 C105.48493801 103.62896197 105.66118241 102.09228647 105.83361435 100.55518723 C107.99888814 81.29607044 107.99888814 81.29607044 113.45703125 76.33984375 C118.96054084 72.67083735 124.05663075 71.42153636 130.64453125 72.21484375 C132.31916963 72.68745784 133.98551205 73.19002658 135.64453125 73.71484375 C143.5089063 76.0246602 153.35807536 76.99506557 161.01171875 73.81640625 C164.81323192 71.50391308 166.25082212 69.39597114 167.64453125 65.21484375 C168.42460615 56.58286742 167.7420106 50.41074376 162.34765625 43.5703125 C138.0605925 18.84508007 68.68000432 22.0419174 35.58203125 19.46484375 C34.75764557 19.39981659 33.93325989 19.33478943 33.08389282 19.26779175 C30.71776408 19.08319425 28.35123414 18.90542842 25.984375 18.73046875 C24.96139816 18.65110832 24.96139816 18.65110832 23.91775513 18.57014465 C19.89846142 18.28422584 15.90847004 18.19140093 11.87843323 18.20159912 C10.89591363 18.20351131 9.91339403 18.20542351 8.90110111 18.20739365 C8.15643306 18.20985218 7.411765 18.21231071 6.64453125 18.21484375 Z M125.64453125 88.21484375 C123.29517218 90.56420282 123.29075558 91.34398552 122.91150379 94.55713463 C122.79891973 95.47478297 122.68633567 96.3924313 122.57033998 97.33788717 C122.45486414 98.35265241 122.33938831 99.36741765 122.22041321 100.41293335 C122.09140867 101.48579421 121.96240413 102.55865506 121.82949036 103.66402686 C121.3966443 107.28207966 120.97633103 110.9014802 120.5559082 114.52099609 C120.24930339 117.10598748 119.94195357 119.6908906 119.63391113 122.27571106 C118.88386762 128.58189002 118.14323077 134.88914005 117.40585891 141.1968119 C116.80647003 146.32248781 116.20359253 151.44774221 115.59819603 156.57271194 C115.51214209 157.30120608 115.42608815 158.02970021 115.33742651 158.78026993 C115.16260653 160.26005608 114.98777684 161.73984108 114.81293752 163.21962495 C113.172349 177.10830504 111.54221964 190.99819727 109.91578766 204.8885413 C108.51939717 216.81233793 107.11474112 228.73513643 105.70385742 240.65722656 C104.06660594 254.49220761 102.43398496 268.32772106 100.80912369 282.16416323 C100.63589291 283.63922397 100.46265809 285.11428424 100.28941917 286.58934402 C100.16156194 287.67805629 100.16156194 287.67805629 100.03112173 288.78876274 C99.42957757 293.90832405 98.82476765 299.02749352 98.21874428 304.14652634 C97.40332542 311.03535661 96.59567828 317.92506114 95.79328156 324.81542015 C95.49706895 327.34897911 95.19836971 329.88224872 94.89704704 332.415205 C94.4872281 335.86365545 94.08630227 339.31302483 93.68769836 342.76278687 C93.50444637 344.27824256 93.50444637 344.27824256 93.31749231 345.82431352 C93.21273149 346.74717735 93.10797067 347.67004119 93.00003529 348.62087059 C92.90656907 349.41719914 92.81310285 350.21352769 92.71680433 351.0339874 C92.64014046 353.3473369 92.83861163 355.04528741 93.64453125 357.21484375 C96.03626038 358.76387945 96.03626038 358.76387945 98.95703125 359.90234375 C99.92253906 360.31871094 100.88804687 360.73507812 101.8828125 361.1640625 C108.90139101 363.8344976 116.91768582 364.60763943 124.203125 362.4609375 C128.15963643 360.60972573 129.88825039 359.26905424 131.64453125 355.21484375 C132.13512648 353.05344253 132.13512648 353.05344253 132.39038277 350.72854137 C132.50583352 349.82966141 132.62128428 348.93078144 132.74023354 348.00466269 C132.91826053 346.52934143 132.91826053 346.52934143 133.09988403 345.0242157 C133.23226656 343.976264 133.36464908 342.92831231 133.5010432 341.8486045 C133.94410722 338.32658971 134.37655866 334.8033529 134.80908203 331.2800293 C135.12402085 328.7587315 135.43959817 326.23751338 135.75576782 323.71636963 C136.52450674 317.57239236 137.28634971 311.42759351 138.04498543 305.28236159 C138.92885116 298.12497152 139.82034763 290.96853827 140.71211754 283.81212948 C142.30330759 271.04063108 143.88726217 258.26824561 145.46728516 245.49536133 C147.00003331 233.10467886 148.53828355 220.71469552 150.08251953 208.32543945 C152.03258337 192.68016932 153.97772215 177.03429461 155.91883121 161.38791096 C156.53764704 156.4011179 157.15822265 151.41454562 157.77939224 146.42804527 C158.61589411 139.71207841 159.44765364 132.99553978 160.27627182 126.27859497 C160.58117112 123.81252217 160.88752493 121.34662869 161.19543457 118.88092995 C161.61531114 115.51657111 162.02990374 112.15160197 162.44314575 108.78642273 C162.56629186 107.80956739 162.68943796 106.83271204 162.81631577 105.82625502 C163.4137367 100.91236932 163.77543901 96.16490577 163.64453125 91.21484375 C162.56816406 91.31023437 161.49179688 91.405625 160.3828125 91.50390625 C149.4459041 92.37287299 139.6145598 91.88706932 128.95703125 88.96484375 C127.86390625 88.71734375 126.77078125 88.46984375 125.64453125 88.21484375 Z " fill="#000000" transform="translate(55.35546875,41.78515625)"/>
</svg>
