<?xml version="1.0" encoding="UTF-8"?>
<svg version="1.1" xmlns="http://www.w3.org/2000/svg" width="512" height="512">
<path d="M0 0 C1.73745304 -0.00542956 3.47490148 -0.01255687 5.21234131 -0.02124023 C9.9024778 -0.03937747 14.59225985 -0.03244598 19.28240204 -0.01972389 C24.2073202 -0.00954621 29.13220946 -0.01900275 34.05712891 -0.02526855 C42.32525033 -0.03253113 50.59322849 -0.02299382 58.86132812 -0.00390625 C68.39936873 0.01785979 77.93706724 0.01080744 87.47509956 -0.01121187 C95.68691992 -0.02940556 103.89863771 -0.03190483 112.11047173 -0.0214572 C117.00512163 -0.01524404 121.8996111 -0.01432636 126.79425049 -0.02760315 C131.39750307 -0.03921897 136.00031764 -0.03103199 140.60352325 -0.00802612 C142.2856397 -0.00276949 143.96779347 -0.00420015 145.64989471 -0.01307678 C159.34838924 -0.07866098 170.32244318 1.71972438 180.5859375 11.51757812 C191.08007387 22.51044572 192.16848574 34.19373963 191.8359375 48.70507812 C191.81582567 50.24476823 191.79758324 51.78448393 191.78125 53.32421875 C191.73766211 57.0558802 191.66889866 60.78655971 191.5859375 64.51757812 C192.77673416 64.50869568 193.96753082 64.49981323 195.19441223 64.49066162 C206.448783 64.40936786 217.70309374 64.34951308 228.95769215 64.31032944 C234.7429973 64.2895071 240.5280643 64.26128735 246.31323242 64.21582031 C251.90238963 64.17217161 257.49131859 64.1484008 263.08063316 64.13806915 C265.20675941 64.13071186 267.332874 64.1163452 269.45890236 64.0946579 C284.74977503 63.94496445 296.95767394 64.41687284 308.5859375 75.51757812 C320.73608295 88.24515623 320.1672945 102.2191084 320.10351562 118.80664062 C320.10894112 121.17462595 320.11606617 123.5426079 320.12475586 125.9105835 C320.14294106 132.31964191 320.13594134 138.72844183 320.12323952 145.13750458 C320.11610964 149.14532441 320.11747649 153.15312673 320.12120056 157.16094971 C320.12181349 157.82792079 320.12242643 158.49489187 320.12305793 159.18207419 C320.12433694 160.53734829 320.12563379 161.89262237 320.1269483 163.24789643 C320.13833288 175.93272345 320.12527383 188.61743452 320.10374683 201.30224252 C320.08587774 212.16769887 320.08898245 223.03298423 320.10742188 233.8984375 C320.12886622 246.54032133 320.13723444 259.18210374 320.12497282 271.82400322 C320.12369873 273.17407098 320.12244124 274.52413875 320.12120056 275.87420654 C320.12027491 276.87038952 320.12027491 276.87038952 320.11933056 277.88669741 C320.11588831 282.5489533 320.12187889 287.21110899 320.13111877 291.87335205 C320.14270391 298.15751066 320.13460241 304.44134751 320.11154175 310.7254715 C320.10626895 313.0268119 320.10774382 315.32817954 320.11659241 317.62950897 C320.17079685 333.16334057 319.87079307 345.69641259 308.5859375 357.51757812 C298.21289041 367.42001438 287.22637713 369.11856958 273.29296875 369.12695312 C271.85135574 369.14196868 270.40975972 369.15870279 268.96818542 369.17706299 C265.21181356 369.22037115 261.45567354 369.24065328 257.69909668 369.25579834 C253.85069268 369.27550285 250.00253436 369.3174568 246.15429688 369.35742188 C238.63157707 369.43232696 231.10896165 369.48285699 223.5859375 369.51757812 C224.46419189 369.84661133 225.34244629 370.17564453 226.24731445 370.51464844 C227.40706787 370.95389648 228.56682129 371.39314453 229.76171875 371.84570312 C230.90809814 372.27786133 232.05447754 372.71001953 233.2355957 373.15527344 C250.23964684 380.06940339 260.75275856 392.86265905 268.32421875 409.14648438 C273.84952764 423.90915178 274.09742023 443.11867435 267.5859375 457.51757812 C267.1115625 458.58878906 266.6371875 459.66 266.1484375 460.76367188 C258.11809764 477.15251453 244.75551923 488.33930545 227.5859375 494.51757812 C220.52160584 496.57076484 213.74283482 496.8032074 206.42301941 496.77827454 C205.22323198 496.78210008 204.02344455 496.78592563 202.78729993 496.7898671 C199.47866199 496.79836488 196.17024771 496.79797706 192.86161649 496.79368651 C189.28481289 496.79121091 185.70803494 496.8002438 182.13124084 496.807724 C175.13198472 496.82045027 168.132767 496.82226725 161.13350125 496.81992374 C155.44159469 496.81813797 149.74969975 496.81989576 144.05779457 496.82414818 C142.84088639 496.82504096 142.84088639 496.82504096 141.59939421 496.82595178 C139.95107879 496.82716358 138.30276337 496.82837772 136.65444795 496.82959416 C121.20842709 496.84046187 105.76242808 496.83831094 90.31640599 496.83220931 C76.2021636 496.82704176 62.08799026 496.8382927 47.97376152 496.85730753 C33.4640529 496.87670454 18.95437691 496.88493861 4.44465524 496.88118428 C-3.69451558 496.87927494 -11.83362765 496.8817336 -19.97278786 496.89589882 C-26.90241754 496.90783741 -33.83195232 496.90918987 -40.76158337 496.89710865 C-44.29323394 496.89123708 -47.82471112 496.89007242 -51.35634995 496.90211105 C-55.19438276 496.91504143 -59.03215554 496.90446438 -62.87019348 496.89179993 C-63.97303911 496.89917421 -65.07588473 496.9065485 -66.21214992 496.91414624 C-83.92153154 496.79172107 -99.37774266 489.83876018 -111.82421875 477.37304688 C-126.00291639 461.74012384 -129.23717529 444.48507849 -128.55322266 424.1484375 C-127.72102121 408.41545008 -118.76950235 394.0061905 -107.4140625 383.51757812 C-99.71403586 377.0445476 -90.24600088 371.82585451 -80.4140625 369.51757812 C-81.20396072 369.5139325 -81.99385895 369.51028687 -82.80769348 369.50653076 C-90.29505399 369.46847727 -97.78192641 369.41143055 -105.26897144 369.33367538 C-109.11707439 369.29436476 -112.96495413 369.2620968 -116.81323242 369.24658203 C-120.53531235 369.23130592 -124.25677795 369.1966708 -127.97858238 369.1492691 C-129.39009919 369.13456702 -130.80170377 369.12654361 -132.21329689 369.12569427 C-145.39790124 369.10980036 -155.69563739 366.79509169 -165.4140625 357.51757812 C-177.56420795 344.79000002 -176.9954195 330.81604785 -176.93164062 314.22851562 C-176.93706612 311.8605303 -176.94419117 309.49254835 -176.95288086 307.12457275 C-176.97106606 300.71551434 -176.96406634 294.30671442 -176.95136452 287.89765167 C-176.94423464 283.88983184 -176.94560149 279.88202952 -176.94932556 275.87420654 C-176.94993849 275.20723546 -176.95055143 274.54026438 -176.95118293 273.85308206 C-176.95246194 272.49780796 -176.95375879 271.14253388 -176.9550733 269.78725982 C-176.96645788 257.1024328 -176.95339883 244.41772173 -176.93187183 231.73291373 C-176.91400274 220.86745738 -176.91710745 210.00217202 -176.93554688 199.13671875 C-176.95699122 186.49483492 -176.96535944 173.85305251 -176.95309782 161.21115303 C-176.95182373 159.86108527 -176.95056624 158.5110175 -176.94932556 157.16094971 C-176.94870846 156.49682772 -176.94809136 155.83270573 -176.94745556 155.14845884 C-176.94401331 150.48620295 -176.95000389 145.82404726 -176.95924377 141.1618042 C-176.97082891 134.87764559 -176.96272741 128.59380874 -176.93966675 122.30968475 C-176.93439395 120.00834435 -176.93586882 117.70697671 -176.94471741 115.40564728 C-176.99892185 99.87181568 -176.69891807 87.33874366 -165.4140625 75.51757812 C-152.91784602 63.58829775 -139.413363 63.96075806 -123.12109375 64.12695312 C-120.96205675 64.1344243 -118.80301291 64.14011308 -116.64396667 64.144104 C-110.99352919 64.15929127 -105.34351061 64.19851306 -99.6932373 64.24291992 C-93.91468978 64.28402231 -88.13607381 64.30214686 -82.35742188 64.32226562 C-71.04278588 64.3650144 -59.72845918 64.43318125 -48.4140625 64.51757812 C-48.4454834 63.10448364 -48.4454834 63.10448364 -48.47753906 61.6628418 C-48.54633739 58.11602699 -48.59616064 54.56993677 -48.63378906 51.02270508 C-48.65371561 49.49719953 -48.68086735 47.97176844 -48.71582031 46.4465332 C-49.02267379 32.6967897 -47.24090605 21.81143998 -37.4140625 11.51757812 C-26.394549 0.99800475 -14.53556496 -0.07670577 0 0 Z M-26.6640625 25.95507812 C-32.88887695 33.59388437 -32.5605021 42.21439573 -32.53431702 51.64120483 C-32.53517144 52.76522473 -32.53602587 53.88924463 -32.53690618 55.04732573 C-32.53855384 58.81525808 -32.53305125 62.58314596 -32.52758789 66.35107422 C-32.52730584 69.05143331 -32.52742007 71.75178968 -32.5280304 74.45214844 C-32.52855435 80.26665075 -32.52542092 86.08114184 -32.51979256 91.89564133 C-32.51166022 100.3023966 -32.50906056 108.70914646 -32.50780457 117.11590524 C-32.50561678 130.75582142 -32.49896408 144.39573161 -32.48950195 158.03564453 C-32.48032078 171.28434214 -32.4732434 184.53303813 -32.46899414 197.78173828 C-32.46873142 198.59859873 -32.46846869 199.41545918 -32.46819801 200.25707297 C-32.46689296 204.35508468 -32.46562925 208.4530964 -32.46438611 212.55110812 C-32.45402199 246.5399358 -32.43641108 280.52875623 -32.4140625 314.51757812 C-29.93362896 313.54152305 -27.45471165 312.5619015 -24.9765625 311.58007812 C-24.26951172 311.30228516 -23.56246094 311.02449219 -22.83398438 310.73828125 C-19.36732369 309.55535779 -19.36732369 309.55535779 -16.4140625 307.51757812 C-16.31609881 306.10537011 -16.28743568 304.68828846 -16.28657055 303.27268696 C-16.2835629 302.35129628 -16.28055525 301.42990559 -16.27745646 300.48059398 C-16.27920683 299.45649824 -16.28095721 298.4324025 -16.28276062 297.37727356 C-16.28064491 296.29851115 -16.27852919 295.21974875 -16.27634937 294.10829657 C-16.27031787 290.46321965 -16.27135175 286.81817704 -16.2722168 283.1730957 C-16.26918737 280.57187847 -16.26566652 277.97066176 -16.26168823 275.3694458 C-16.25356304 269.75240397 -16.24862715 264.13536671 -16.24539757 258.51832008 C-16.23990833 249.64066779 -16.2230178 240.76305408 -16.20405579 231.88542175 C-16.19769847 228.84999186 -16.1913901 225.81456187 -16.18507862 222.77913189 C-16.18270298 221.64111797 -16.18270298 221.64111797 -16.18027934 220.48011387 C-16.16233028 211.83724991 -16.14611059 203.19438322 -16.13110352 194.55151367 C-16.12972764 193.76114012 -16.12835177 192.97076657 -16.12693421 192.15644231 C-16.10501312 179.35360549 -16.09425069 166.55077854 -16.08673277 153.74792627 C-16.07866256 140.61029705 -16.05537372 127.47275267 -16.0187791 114.33517188 C-15.99674512 106.22854313 -15.98709217 98.12208879 -15.99327943 90.01543161 C-15.99682835 83.80163552 -15.97959663 77.58805652 -15.95460129 71.37431335 C-15.94766757 68.82416396 -15.94758622 66.27398551 -15.95480156 63.7238369 C-15.9636477 60.24648626 -15.94806322 56.77007506 -15.92631531 53.2928009 C-15.93475784 52.27985877 -15.94320038 51.26691664 -15.95189875 50.2232793 C-15.88568923 44.51108754 -15.41755595 40.93110443 -11.4140625 36.51757812 C-7.60606909 33.5118926 -4.72092696 33.14012614 0.06919861 33.12989807 C1.380009 33.11999344 2.6908194 33.11008881 4.04135132 33.09988403 C5.48712252 33.10412184 6.93289282 33.10867968 8.37866211 33.11352539 C9.90659586 33.10782095 11.43452535 33.1008564 12.96244812 33.09272766 C17.10711231 33.07478907 21.25156486 33.07596593 25.39625621 33.08167005 C28.8580193 33.08476093 32.31974167 33.07867055 35.78149897 33.0726313 C43.94901229 33.05858535 52.11642101 33.06014789 60.28393555 33.0715332 C68.70632866 33.08301446 77.12840334 33.06893889 85.55075449 33.04213673 C92.78573153 33.01997623 100.02060864 33.01334313 107.2556172 33.01921314 C111.57509553 33.02258311 115.89436975 33.02016512 120.2138195 33.00296211 C124.27608742 32.98748941 128.33788383 32.9914518 132.40013313 33.01026726 C133.88923172 33.01395229 135.37836527 33.01084709 136.86743164 33.00038147 C138.90348277 32.98716624 140.93965579 33.00113044 142.97569275 33.01637268 C144.11406554 33.01658196 145.25243834 33.01679125 146.42530727 33.01700687 C151.28872883 33.78726117 154.25937978 35.98014113 157.44232559 39.6690712 C159.11380443 43.83238832 158.9577659 47.64856833 158.88372803 52.09368896 C158.87979137 53.06349646 158.87585471 54.03330395 158.87179875 55.03249955 C158.85531487 58.28526652 158.81756927 61.53744924 158.78027344 64.79003906 C158.76473465 67.12096219 158.75072899 69.45189597 158.73814392 71.78283691 C158.70918947 76.80456146 158.67218471 81.82614165 158.62984467 86.84777069 C158.56579741 94.78976704 158.53700677 102.73167796 158.51690674 110.67388916 C158.51329163 112.02772774 158.50965509 113.38156626 158.50599742 114.73540473 C158.50048428 116.78707335 158.49499453 118.83874202 158.48959385 120.89041094 C158.4691006 128.62194285 158.44456038 136.35345631 158.41552734 144.08496094 C158.4128868 144.79153895 158.41024625 145.49811697 158.40752569 146.22610644 C158.36333538 157.67228812 158.27492242 169.11777496 158.17285749 180.56356761 C158.06930017 192.32389167 158.02317976 204.08350937 158.02758813 215.84429002 C158.0272978 222.44467565 157.9994955 229.04242069 157.90648651 235.64220428 C157.81931034 241.85172796 157.80193748 248.05753776 157.83780098 254.26753235 C157.8385025 256.54405664 157.81355365 258.8207577 157.76085472 261.09667206 C157.02733343 272.35570644 157.02733343 272.35570644 161.12548161 282.34856129 C164.74838344 285.36966547 170.68170473 289.51757812 175.5859375 289.51757812 C175.63158374 257.94965098 175.66696772 226.38173324 175.68806816 194.81378079 C175.69056951 191.08508232 175.69315816 187.35638392 175.69580078 183.62768555 C175.6963254 182.88538326 175.69685002 182.14308098 175.69739054 181.37828469 C175.70608807 169.36631517 175.72185445 157.35436484 175.74024309 145.3424067 C175.75896029 133.01279913 175.77005807 120.6832016 175.77411449 108.35358042 C175.77685577 100.74838382 175.78550727 93.14324145 175.80177043 85.53806155 C175.81361337 79.70187149 175.81484424 73.86570911 175.81215286 68.02950668 C175.81270268 65.63863606 175.81667559 63.24776336 175.82434845 60.85690498 C175.83432133 57.58881883 175.83189769 54.32096337 175.82644653 51.0528717 C175.83227222 50.11024115 175.8380979 49.1676106 175.84410012 48.19641548 C175.80218198 38.87733194 174.84069631 30.73480294 167.9453125 23.88867188 C160.9556686 17.58279749 154.15403002 16.39727482 144.85075378 16.38386536 C144.19860895 16.3815998 143.54646412 16.37933424 142.87455732 16.37700003 C140.70305569 16.3707018 138.53161714 16.3714867 136.36010742 16.37231445 C134.79748962 16.36932034 133.23487256 16.36591723 131.67225647 16.36213684 C127.4366014 16.35331802 123.20096655 16.35095961 118.96530318 16.35032105 C116.31619988 16.34960932 113.66710168 16.34747265 111.01799965 16.34482384 C101.76809997 16.33557724 92.51821469 16.33148807 83.26831055 16.33227539 C74.65916595 16.33287592 66.05008407 16.32232728 57.44095534 16.30653173 C50.03862883 16.29343649 42.63632277 16.28809233 35.23398477 16.2887308 C30.81778877 16.28898522 26.40164851 16.28616528 21.9854641 16.27555275 C17.82973359 16.26583842 13.67411175 16.26581536 9.5183773 16.27306938 C7.99828431 16.2741111 6.47818442 16.27177697 4.95810318 16.26570892 C-7.3595902 16.21974552 -17.8695 16.20688837 -26.6640625 25.95507812 Z M-0.4140625 48.51757812 C-0.4140625 64.35757813 -0.4140625 80.19757813 -0.4140625 96.51757812 C47.1059375 96.51757812 94.6259375 96.51757812 143.5859375 96.51757812 C143.5859375 80.67757812 143.5859375 64.83757812 143.5859375 48.51757812 C96.0659375 48.51757812 48.5459375 48.51757812 -0.4140625 48.51757812 Z M-154.6640625 89.95507812 C-160.44457029 97.04865166 -160.56383403 104.88927397 -160.54777527 113.68244934 C-160.55004083 114.59594153 -160.55230638 115.50943371 -160.55464059 116.45060748 C-160.56096239 119.50655397 -160.56015239 122.5624559 -160.55932617 125.6184082 C-160.5623188 127.81155962 -160.56572157 130.00471052 -160.56950378 132.19786072 C-160.57833747 138.15246808 -160.58068164 144.10706107 -160.58131957 150.06167436 C-160.58203043 153.78283923 -160.58416544 157.50400045 -160.58681679 161.22516441 C-160.59559073 173.53973248 -160.60023676 185.85429286 -160.59948631 198.16886393 C-160.59944636 198.83219401 -160.5994064 199.49552409 -160.59936523 200.17895508 C-160.59932435 200.84309898 -160.59928347 201.50724289 -160.59924135 202.19151237 C-160.59883501 212.95183243 -160.60840256 223.71211747 -160.6225036 234.47242741 C-160.6368821 245.532095 -160.64359001 256.59174468 -160.64290982 267.65142173 C-160.64265498 273.85613458 -160.64549887 280.06080781 -160.65608788 286.26551247 C-160.66577686 292.10218186 -160.66584248 297.9387738 -160.65857124 303.77544594 C-160.6575264 305.91476047 -160.65988231 308.05407984 -160.6659317 310.19338608 C-160.67366879 313.11960002 -160.66899538 316.04554762 -160.66130066 318.97175598 C-160.669016 320.23365217 -160.669016 320.23365217 -160.67688721 321.52104121 C-160.62973796 329.66666807 -159.72497317 337.05836244 -154.4140625 343.51757812 C-151.27259483 346.57297819 -148.60935002 349.11914895 -144.4140625 350.51757812 C-144.41186266 348.63960824 -144.41186266 348.63960824 -144.40961838 346.72369957 C-144.37391871 317.00622841 -144.31768096 287.28887358 -144.23614155 257.57149615 C-144.22612406 253.9140382 -144.21627993 250.2565798 -144.20654297 246.59912109 C-144.2046016 245.87098495 -144.20266022 245.14284881 -144.20066002 244.39264794 C-144.16963636 232.60176163 -144.15265836 220.81089478 -144.14086828 209.01997535 C-144.1284586 196.92197805 -144.10096138 184.82408294 -144.05944943 172.72615016 C-144.03430868 165.26065438 -144.02094563 157.79532806 -144.02263293 150.32978936 C-144.02266619 144.60581662 -144.00171103 138.88206951 -143.97289467 133.15817642 C-143.96436455 130.8096031 -143.96266671 128.46099365 -143.96825981 126.1124115 C-143.97487414 122.9086572 -143.95703951 119.70593879 -143.93304443 116.50228882 C-143.94080485 115.57037448 -143.94856527 114.63846015 -143.95656085 113.67830598 C-143.88283769 108.12765192 -143.1315906 104.91471259 -139.4140625 100.51757812 C-135.26331526 97.06413977 -131.13933179 97.07573606 -125.9519043 97.08520508 C-125.1123671 97.07501343 -124.2728299 97.06482178 -123.40785217 97.05432129 C-120.64292711 97.02421456 -117.87834863 97.01492893 -115.11328125 97.00585938 C-113.19227448 96.98901097 -111.27127873 96.9708605 -109.35029602 96.95146179 C-104.30170127 96.9039733 -99.25315118 96.87415643 -94.20440674 96.84802246 C-89.0495929 96.8182112 -83.89493292 96.77168278 -78.74023438 96.7265625 C-68.63157322 96.64054228 -58.5229281 96.57473675 -48.4140625 96.51757812 C-48.4140625 91.23757812 -48.4140625 85.95757812 -48.4140625 80.51757812 C-59.73239801 80.47230896 -71.05067291 80.43565136 -82.36907864 80.41395378 C-87.62523716 80.40353759 -92.88133028 80.38941799 -98.13745117 80.36669922 C-103.21435752 80.34489358 -108.29120113 80.33299323 -113.36815071 80.32782364 C-115.30052744 80.32414172 -117.23290091 80.31695197 -119.16525078 80.30611801 C-121.88164439 80.2915004 -124.59778208 80.28960446 -127.31420898 80.29052734 C-128.49997025 80.27974152 -128.49997025 80.27974152 -129.70968628 80.26873779 C-139.83731007 80.3057244 -147.67518659 82.2083723 -154.6640625 89.95507812 Z M191.5859375 80.51757812 C191.5859375 85.79757813 191.5859375 91.07757813 191.5859375 96.51757812 C194.15971191 96.52692383 196.73348633 96.53626953 199.38525391 96.54589844 C207.89501031 96.57968618 216.40452467 96.63524517 224.9140873 96.70148087 C230.07278326 96.74096712 235.23130824 96.77315003 240.39013672 96.78857422 C245.36999142 96.80373314 250.34937607 96.83816534 255.32902145 96.88588715 C257.22754198 96.90070879 259.1261296 96.90861959 261.02470779 96.90946198 C263.68706453 96.91183103 266.34812158 96.93890511 269.01025391 96.97167969 C269.79284576 96.96664932 270.57543762 96.96161896 271.38174438 96.95643616 C276.534672 97.05439369 279.54806222 98.04793788 283.5859375 101.51757812 C287.34813377 106.16270489 287.01423934 110.67877593 286.98466492 116.3820343 C286.99131174 117.3826932 286.99795857 118.3833521 287.00480682 119.414334 C287.02347485 122.77087327 287.02082891 126.12705727 287.01831055 129.48364258 C287.02732536 131.88829554 287.03765188 134.2929439 287.04919434 136.69758606 C287.07109774 141.8764092 287.08386546 147.0551695 287.08832359 152.23403358 C287.09478507 159.72176839 287.11772236 167.2093816 287.14466689 174.6970674 C287.18793685 186.84563525 287.2179024 198.99419798 287.23950195 211.14282227 C287.26051102 222.94330359 287.28778547 234.74374303 287.32348633 246.54418945 C287.32568515 247.27170276 287.32788398 247.99921606 287.33014943 248.74877522 C287.34121907 252.39853575 287.35241188 256.0482959 287.36366594 259.69805586 C287.456854 289.97119438 287.52822893 320.24434997 287.5859375 350.51757812 C294.17248542 347.34524044 298.53712554 343.42894642 301.9609375 336.89257812 C303.50888547 331.01037583 303.7306786 325.39140692 303.71965027 319.35270691 C303.7230486 317.98246863 303.7230486 317.98246863 303.72651559 316.58454877 C303.73283739 313.52860228 303.73202739 310.47270035 303.73120117 307.41674805 C303.7341938 305.22359663 303.73759657 303.03044573 303.74137878 300.83729553 C303.75021247 294.88268817 303.75255664 288.92809518 303.75319457 282.97348189 C303.75390543 279.25231702 303.75604044 275.5311558 303.75869179 271.80999184 C303.76746573 259.49542377 303.77211176 247.18086339 303.77136131 234.86629232 C303.77130138 233.8712972 303.77130138 233.8712972 303.77124023 232.85620117 C303.77117891 231.85998531 303.77117891 231.85998531 303.77111635 230.84364388 C303.77071001 220.08332382 303.78027756 209.32303878 303.7943786 198.56272884 C303.8087571 187.50306125 303.81546501 176.44341157 303.81478482 165.38373452 C303.81452998 159.17902167 303.81737387 152.97434844 303.82796288 146.76964378 C303.83765186 140.93297439 303.83771748 135.09638245 303.83044624 129.25971031 C303.8294014 127.12039578 303.83175731 124.98107641 303.8378067 122.84177017 C303.84554379 119.91555623 303.84087038 116.98960863 303.83317566 114.06340027 C303.83831922 113.22213614 303.84346279 112.38087201 303.84876221 111.51411504 C303.79632596 102.45509265 302.62348126 94.51913943 295.9453125 87.88867188 C288.38217219 81.06540399 280.68129303 80.35983656 270.82666016 80.40405273 C269.96746979 80.40390671 269.10827942 80.40376068 268.22305298 80.40361023 C265.39867581 80.40430384 262.57436557 80.41207033 259.75 80.41992188 C257.78559404 80.42178801 255.8211876 80.42321099 253.85678101 80.42420959 C248.69800522 80.42801933 243.53925779 80.43783641 238.38049316 80.44891357 C233.11173893 80.45916091 227.84298009 80.46371433 222.57421875 80.46875 C212.24477723 80.4794601 201.91536417 80.49704437 191.5859375 80.51757812 Z M-128.4140625 112.51757812 C-128.4140625 128.35757813 -128.4140625 144.19757813 -128.4140625 160.51757812 C-102.0140625 160.51757812 -75.6140625 160.51757812 -48.4140625 160.51757812 C-48.4140625 144.67757812 -48.4140625 128.83757812 -48.4140625 112.51757812 C-74.8140625 112.51757812 -101.2140625 112.51757812 -128.4140625 112.51757812 Z M-0.4140625 112.51757812 C-0.4140625 128.35757813 -0.4140625 144.19757813 -0.4140625 160.51757812 C47.1059375 160.51757812 94.6259375 160.51757812 143.5859375 160.51757812 C143.5859375 144.67757812 143.5859375 128.83757812 143.5859375 112.51757812 C96.0659375 112.51757812 48.5459375 112.51757812 -0.4140625 112.51757812 Z M191.5859375 112.51757812 C191.5859375 128.35757813 191.5859375 144.19757813 191.5859375 160.51757812 C217.9859375 160.51757812 244.3859375 160.51757812 271.5859375 160.51757812 C271.5859375 144.67757812 271.5859375 128.83757812 271.5859375 112.51757812 C245.1859375 112.51757812 218.7859375 112.51757812 191.5859375 112.51757812 Z M-128.4140625 176.51757812 C-128.4140625 192.35757813 -128.4140625 208.19757813 -128.4140625 224.51757812 C-102.0140625 224.51757812 -75.6140625 224.51757812 -48.4140625 224.51757812 C-48.4140625 208.67757812 -48.4140625 192.83757812 -48.4140625 176.51757812 C-74.8140625 176.51757812 -101.2140625 176.51757812 -128.4140625 176.51757812 Z M-0.4140625 176.51757812 C-0.4140625 192.35757813 -0.4140625 208.19757813 -0.4140625 224.51757812 C47.1059375 224.51757812 94.6259375 224.51757812 143.5859375 224.51757812 C143.5859375 208.67757812 143.5859375 192.83757812 143.5859375 176.51757812 C96.0659375 176.51757812 48.5459375 176.51757812 -0.4140625 176.51757812 Z M191.5859375 176.51757812 C191.5859375 192.35757813 191.5859375 208.19757813 191.5859375 224.51757812 C217.9859375 224.51757812 244.3859375 224.51757812 271.5859375 224.51757812 C271.5859375 208.67757812 271.5859375 192.83757812 271.5859375 176.51757812 C245.1859375 176.51757812 218.7859375 176.51757812 191.5859375 176.51757812 Z M-128.4140625 240.51757812 C-128.4140625 256.35757813 -128.4140625 272.19757813 -128.4140625 288.51757812 C-102.0140625 288.51757812 -75.6140625 288.51757812 -48.4140625 288.51757812 C-48.4140625 272.67757812 -48.4140625 256.83757812 -48.4140625 240.51757812 C-74.8140625 240.51757812 -101.2140625 240.51757812 -128.4140625 240.51757812 Z M-0.4140625 240.51757812 C-0.4140625 261.63757813 -0.4140625 282.75757813 -0.4140625 304.51757812 C6.1859375 304.84757812 12.7859375 305.17757812 19.5859375 305.51757812 C25.05881205 306.72083423 30.25114089 307.93091022 35.5859375 309.51757812 C36.90189504 309.89544639 38.21829054 310.27179333 39.53515625 310.64648438 C41.04529297 311.07767578 41.04529297 311.07767578 42.5859375 311.51757812 C43.01003906 310.94910156 43.43414062 310.380625 43.87109375 309.79492188 C58.87479035 290.04280261 80.96040032 277.09152665 105.5859375 273.51757812 C107.7043382 273.42894911 109.82505976 273.38698413 111.9453125 273.38476562 C113.14414062 273.38347656 114.34296875 273.3821875 115.578125 273.38085938 C116.81820312 273.38472656 118.05828125 273.38859375 119.3359375 273.39257812 C121.17285156 273.38677734 121.17285156 273.38677734 123.046875 273.38085938 C124.85285156 273.38279297 124.85285156 273.38279297 126.6953125 273.38476562 C127.77780273 273.38589355 128.86029297 273.38702148 129.97558594 273.38818359 C134.52504168 273.5512355 139.05615339 274.06459971 143.5859375 274.51757812 C143.5859375 263.29757812 143.5859375 252.07757813 143.5859375 240.51757812 C96.0659375 240.51757812 48.5459375 240.51757812 -0.4140625 240.51757812 Z M191.5859375 240.51757812 C191.5859375 256.35757813 191.5859375 272.19757813 191.5859375 288.51757812 C217.9859375 288.51757812 244.3859375 288.51757812 271.5859375 288.51757812 C271.5859375 272.67757812 271.5859375 256.83757812 271.5859375 240.51757812 C245.1859375 240.51757812 218.7859375 240.51757812 191.5859375 240.51757812 Z M61.5859375 313.51757812 C49.35056242 326.25066337 40.32780094 345.02715148 40.5234375 362.83007812 C40.554375 365.64539063 40.554375 365.64539063 40.5859375 368.51757812 C34.9759375 368.51757812 29.3659375 368.51757812 23.5859375 368.51757812 C24.45938229 355.79396445 26.25532225 344.53781148 30.5859375 332.51757812 C31.25668163 330.5189419 31.92478298 328.51940708 32.5859375 326.51757812 C19.53671778 319.34050728 3.73493603 319.12888061 -10.41845703 323.07666016 C-19.44155413 325.97542243 -27.15805515 330.39268967 -34.4140625 336.51757812 C-35.05730469 337.06027344 -35.70054687 337.60296875 -36.36328125 338.16210938 C-44.13573453 345.34071229 -50.59608793 355.28388101 -53.4140625 365.51757812 C-53.4140625 366.83757812 -53.4140625 368.15757812 -53.4140625 369.51757812 C-52.55425781 369.72511719 -51.69445312 369.93265625 -50.80859375 370.14648438 C-34.35081077 374.43591745 -20.54711252 382.28459664 -11.01171875 396.77929688 C-4.12098282 408.58958021 -1.43623399 419.05898685 -0.4140625 432.51757812 C-6.0240625 432.51757812 -11.6340625 432.51757812 -17.4140625 432.51757812 C-17.3315625 431.28007812 -17.2490625 430.04257812 -17.1640625 428.76757812 C-17.22194376 416.47745756 -23.61586043 406.50953767 -31.7265625 397.76757812 C-41.81140148 388.22299838 -53.10851821 384.99603985 -66.66015625 385.09790039 C-80.41431198 385.5442216 -91.43253388 391.66091581 -100.8203125 401.58007812 C-110.66296374 413.54565414 -112.87926882 426.44392259 -111.4140625 441.51757812 C-109.07365021 453.91619087 -101.30692198 464.86458417 -91.1015625 472.17382812 C-79.19837442 479.76211053 -66.88708263 480.67216685 -53.09307861 480.65129089 C-51.42921305 480.65468923 -51.42921305 480.65468923 -49.73173404 480.65815622 C-46.03110624 480.66446414 -42.33051537 480.66366891 -38.62988281 480.6628418 C-35.96987777 480.66583529 -33.30987558 480.6692102 -30.64987183 480.67301941 C-24.18369518 480.6813033 -17.71752765 480.68407322 -11.25134614 480.68463179 C-5.9918502 480.68510802 -0.73235724 480.68716811 4.52713776 480.69033241 C19.45992005 480.6991328 34.39269517 480.70375275 49.32548007 480.70300194 C50.53141822 480.702942 50.53141822 480.702942 51.76171875 480.70288086 C52.56666642 480.70283998 53.37161409 480.7027991 54.20095411 480.70275698 C67.24106239 480.70235068 80.28114178 480.71191781 93.32124171 480.72601923 C106.73144862 480.74040571 120.14164146 480.74728816 133.55185628 480.74642545 C141.07233098 480.74609427 148.59277538 480.7488068 156.1132431 480.7596035 C162.51691603 480.76873845 168.92054493 480.77085927 175.32422158 480.76409408 C178.58660927 480.76084392 181.8488957 480.76181858 185.11127853 480.76944733 C216.02748127 481.04468578 216.02748127 481.04468578 241.75 465.41601562 C252.02516411 454.52511135 255.2296277 442.66816521 254.89453125 428.03710938 C254.25322042 415.27741873 247.65346095 404.75224318 238.5234375 396.11132812 C226.55786148 386.26867689 213.65959304 384.05237181 198.5859375 385.51757812 C186.18732475 387.85799042 175.23893145 395.62471865 167.9296875 405.83007812 C162.44305235 414.43656464 160.09333146 422.33705336 160.5859375 432.51757812 C154.9759375 432.51757812 149.3659375 432.51757812 143.5859375 432.51757812 C145.61572072 412.72719171 151.13621361 395.81534619 166.9296875 382.54882812 C176.41380695 375.52811633 187.13206276 371.134295 198.5859375 368.51757812 C199.81958522 350.11566635 192.56361456 331.46505884 180.5859375 317.51757812 C179.84150391 316.56044922 179.84150391 316.56044922 179.08203125 315.58398438 C165.90299524 299.29279046 145.63988721 290.95413392 125.2734375 288.70507812 C100.90647235 287.29420439 78.87466304 296.79415151 61.5859375 313.51757812 Z M-128.4140625 304.51757812 C-128.4140625 320.35757812 -128.4140625 336.19757813 -128.4140625 352.51757812 C-107.9540625 352.51757812 -87.4940625 352.51757812 -66.4140625 352.51757812 C-63.7740625 347.89757812 -61.1340625 343.27757812 -58.4140625 338.51757812 C-55.6915625 335.79507813 -55.6915625 335.79507813 -52.9140625 333.01757812 C-46.32695924 324.82048911 -46.32695924 324.82048911 -48.4140625 304.51757812 C-74.8140625 304.51757812 -101.2140625 304.51757812 -128.4140625 304.51757812 Z M192.5859375 304.51757812 C195.02444113 308.78495948 197.00812262 312.19559934 199.8984375 315.95507812 C202.88665272 320.18731428 205.17194589 324.49061166 207.2734375 329.20507812 C207.54647705 329.80312256 207.8195166 330.40116699 208.10083008 331.01733398 C211.1212484 338.05950992 212.55932009 344.91776285 214.5859375 352.51757812 C233.3959375 352.51757812 252.2059375 352.51757812 271.5859375 352.51757812 C271.5859375 336.67757812 271.5859375 320.83757812 271.5859375 304.51757812 C245.5159375 304.51757812 219.4459375 304.51757812 192.5859375 304.51757812 Z " fill="#000000" transform="translate(184.4140625,7.482421875)"/>
<path d="M0 0 C13.64888814 10.53318864 23.11554517 24.77438972 25.87109375 41.953125 C25.93490234 42.96632813 25.93490234 42.96632813 26 44 C23.91858446 46.08141554 19.81393047 45.73088761 16.9375 46.0625 C16.17888672 46.15337891 15.42027344 46.24425781 14.63867188 46.33789062 C12.7595699 46.5624374 10.87983905 46.78170978 9 47 C8.72027344 46.03320312 8.44054687 45.06640625 8.15234375 44.0703125 C4.10255932 30.67394296 -2.20272734 19.89636777 -14.55078125 12.46484375 C-23.56896179 7.77101078 -30.86071228 6.71237028 -40.9375 6.875 C-42.53561523 6.88853516 -42.53561523 6.88853516 -44.16601562 6.90234375 C-46.77758034 6.92576586 -49.38866937 6.95856548 -52 7 C-53.77464392 3.02771485 -55.33097582 -0.65487912 -56.1875 -4.9375 C-56.34605469 -5.70964844 -56.50460937 -6.48179687 -56.66796875 -7.27734375 C-56.77753906 -7.84582031 -56.88710938 -8.41429687 -57 -9 C-37.44653772 -14.72408146 -16.89977999 -11.1177169 0 0 Z " fill="#000000" transform="translate(342,323)"/>
<path d="M0 0 C5.28 0 10.56 0 16 0 C16 5.28 16 10.56 16 16 C10.72 16 5.44 16 0 16 C0 10.72 0 5.44 0 0 Z " fill="#000000" transform="translate(184,456)"/>
<path d="M0 0 C5.28 0 10.56 0 16 0 C16 5.28 16 10.56 16 16 C10.72 16 5.44 16 0 16 C0 10.72 0 5.44 0 0 Z " fill="#000000" transform="translate(152,456)"/>
<path d="M0 0 C5.28 0 10.56 0 16 0 C16 5.28 16 10.56 16 16 C10.72 16 5.44 16 0 16 C0 10.72 0 5.44 0 0 Z " fill="#000000" transform="translate(120,456)"/>
<path d="M0 0 C5.28 0 10.56 0 16 0 C16 5.28 16 10.56 16 16 C10.72 16 5.44 16 0 16 C0 10.72 0 5.44 0 0 Z " fill="#000000" transform="translate(424,264)"/>
<path d="M0 0 C5.28 0 10.56 0 16 0 C16 5.28 16 10.56 16 16 C10.72 16 5.44 16 0 16 C0 10.72 0 5.44 0 0 Z " fill="#000000" transform="translate(392,264)"/>
<path d="M0 0 C5.28 0 10.56 0 16 0 C16 5.28 16 10.56 16 16 C10.72 16 5.44 16 0 16 C0 10.72 0 5.44 0 0 Z " fill="#000000" transform="translate(232,264)"/>
<path d="M0 0 C5.28 0 10.56 0 16 0 C16 5.28 16 10.56 16 16 C10.72 16 5.44 16 0 16 C0 10.72 0 5.44 0 0 Z " fill="#000000" transform="translate(200,264)"/>
<path d="M0 0 C5.28 0 10.56 0 16 0 C16 5.28 16 10.56 16 16 C10.72 16 5.44 16 0 16 C0 10.72 0 5.44 0 0 Z " fill="#000000" transform="translate(104,264)"/>
<path d="M0 0 C5.28 0 10.56 0 16 0 C16 5.28 16 10.56 16 16 C10.72 16 5.44 16 0 16 C0 10.72 0 5.44 0 0 Z " fill="#000000" transform="translate(72,264)"/>
<path d="M0 0 C5.28 0 10.56 0 16 0 C16 5.28 16 10.56 16 16 C10.72 16 5.44 16 0 16 C0 10.72 0 5.44 0 0 Z " fill="#000000" transform="translate(296,200)"/>
<path d="M0 0 C5.28 0 10.56 0 16 0 C16 5.28 16 10.56 16 16 C10.72 16 5.44 16 0 16 C0 10.72 0 5.44 0 0 Z " fill="#000000" transform="translate(264,200)"/>
<path d="M0 0 C5.28 0 10.56 0 16 0 C16 5.28 16 10.56 16 16 C10.72 16 5.44 16 0 16 C0 10.72 0 5.44 0 0 Z " fill="#000000" transform="translate(424,136)"/>
<path d="M0 0 C5.28 0 10.56 0 16 0 C16 5.28 16 10.56 16 16 C10.72 16 5.44 16 0 16 C0 10.72 0 5.44 0 0 Z " fill="#000000" transform="translate(392,136)"/>
<path d="M0 0 C5.28 0 10.56 0 16 0 C16 5.28 16 10.56 16 16 C10.72 16 5.44 16 0 16 C0 10.72 0 5.44 0 0 Z " fill="#000000" transform="translate(232,136)"/>
<path d="M0 0 C5.28 0 10.56 0 16 0 C16 5.28 16 10.56 16 16 C10.72 16 5.44 16 0 16 C0 10.72 0 5.44 0 0 Z " fill="#000000" transform="translate(200,136)"/>
<path d="M0 0 C5.28 0 10.56 0 16 0 C16 5.28 16 10.56 16 16 C10.72 16 5.44 16 0 16 C0 10.72 0 5.44 0 0 Z " fill="#000000" transform="translate(104,136)"/>
<path d="M0 0 C5.28 0 10.56 0 16 0 C16 5.28 16 10.56 16 16 C10.72 16 5.44 16 0 16 C0 10.72 0 5.44 0 0 Z " fill="#000000" transform="translate(72,136)"/>
<path d="M0 0 C5.28 0 10.56 0 16 0 C16 5.28 16 10.56 16 16 C10.72 16 5.44 16 0 16 C0 10.72 0 5.44 0 0 Z " fill="#000000" transform="translate(296,72)"/>
<path d="M0 0 C5.28 0 10.56 0 16 0 C16 5.28 16 10.56 16 16 C10.72 16 5.44 16 0 16 C0 10.72 0 5.44 0 0 Z " fill="#000000" transform="translate(264,72)"/>
</svg>
