<?xml version="1.0" encoding="UTF-8"?>
<svg version="1.1" xmlns="http://www.w3.org/2000/svg" width="512" height="512">
<path d="M0 0 C3.5142 0.01710717 7.02771805 0.00691428 10.54189491 -0.0103569 C28.95269618 -0.08635081 46.87437971 0.98601035 65.15209961 3.39111328 C65.23043082 8.00712527 65.20747269 12.17569391 64.15600586 16.69189453 C63.93195068 17.65546875 63.70789551 18.61904297 63.47705078 19.61181641 C63.22544189 20.63210938 62.97383301 21.65240234 62.71459961 22.70361328 C62.44945557 23.78449219 62.18431152 24.86537109 61.91113281 25.97900391 C55.59820006 50.92269961 47.05278501 83.04209863 25.15209961 99.39111328 C23.50209961 99.72111328 21.85209961 100.05111328 20.15209961 100.39111328 C20.15209961 117.55111328 20.15209961 134.71111328 20.15209961 152.39111328 C28.07209961 152.39111328 35.99209961 152.39111328 44.15209961 152.39111328 C46.90221561 155.14122928 46.40553451 156.70297269 46.41088867 160.55322266 C46.41719299 161.84796509 46.42349731 163.14270752 46.42999268 164.47668457 C46.426413 165.89607885 46.42231107 167.3154719 46.41772461 168.73486328 C46.4190713 170.18453029 46.42101187 171.63419685 46.42352295 173.0838623 C46.42647403 176.12366023 46.42217717 179.16334071 46.4128418 182.203125 C46.40144717 186.10405577 46.40800674 190.00471135 46.41998672 193.90563202 C46.42720582 196.89957766 46.42491719 199.89345781 46.41973114 202.8874054 C46.41839478 204.32595349 46.42004191 205.7645075 46.42469025 207.20304871 C46.42975601 209.21169932 46.42066905 211.22037072 46.41088867 213.22900391 C46.40929749 214.37324829 46.4077063 215.51749268 46.40606689 216.69641113 C46.15209961 219.39111328 46.15209961 219.39111328 44.15209961 221.39111328 C41.19165039 221.64508057 41.19165039 221.64508057 37.34741211 221.64990234 C36.29840729 221.6551593 36.29840729 221.6551593 35.22821045 221.66052246 C32.91107323 221.66934204 30.59424006 221.66348998 28.27709961 221.65673828 C26.67049094 221.65808487 25.06388266 221.66002535 23.45727539 221.66253662 C20.08793259 221.66548818 16.71869573 221.66118925 13.34936523 221.65185547 C9.02470467 221.64046086 4.70029232 221.64702017 0.37564087 221.6590004 C-2.94256469 221.66621816 -6.26071114 221.66393147 -9.57891846 221.65874481 C-11.17376739 221.65740808 -12.76862164 221.65905686 -14.36346436 221.66370392 C-16.59019237 221.66876784 -18.81651515 221.66106116 -21.04321289 221.64990234 C-22.31181152 221.64831116 -23.58041016 221.64671997 -24.88745117 221.64508057 C-27.84790039 221.39111328 -27.84790039 221.39111328 -29.84790039 219.39111328 C-30.10186768 216.69641113 -30.10186768 216.69641113 -30.10668945 213.22900391 C-30.11299377 211.93426147 -30.1192981 210.63951904 -30.12579346 209.30554199 C-30.12221378 207.88614771 -30.11811185 206.46675467 -30.11352539 205.04736328 C-30.11487208 203.59769628 -30.11681265 202.14802971 -30.11932373 200.69836426 C-30.12227481 197.65856633 -30.11797796 194.61888585 -30.10864258 191.57910156 C-30.09724795 187.67817079 -30.10380752 183.77751521 -30.11578751 179.87659454 C-30.1230066 176.8826489 -30.12071797 173.88876875 -30.11553192 170.89482117 C-30.11419556 169.45627307 -30.11584269 168.01771907 -30.12049103 166.57917786 C-30.12555679 164.57052724 -30.11646983 162.56185585 -30.10668945 160.55322266 C-30.10430267 158.83685608 -30.10430267 158.83685608 -30.10186768 157.08581543 C-29.84790039 154.39111328 -29.84790039 154.39111328 -27.84790039 152.39111328 C-19.92790039 152.39111328 -12.00790039 152.39111328 -3.84790039 152.39111328 C-3.84790039 135.23111328 -3.84790039 118.07111328 -3.84790039 100.39111328 C-7.80790039 100.39111328 -11.76790039 100.39111328 -15.84790039 100.39111328 C-28.42965723 92.38454075 -35.87874233 76.62490611 -41.84790039 63.39111328 C-42.63100586 61.67408203 -42.63100586 61.67408203 -43.42993164 59.92236328 C-50.62739747 43.05864388 -58.01539133 21.86137605 -57.84790039 3.39111328 C-38.48975715 0.95087532 -19.49234733 -0.09595656 0 0 Z " fill="#000000" transform="translate(247.847900390625,290.60888671875)"/>
<path d="M0 0 C9.12925365 0.48959037 17.87382425 1.72771447 26.8125 3.625 C28.05628418 3.88498779 29.30006836 4.14497559 30.58154297 4.4128418 C43.587467 7.21117635 56.37954472 10.79318157 69 15 C68.43125124 18.98124131 67.12345246 21.61272328 65 25 C66.55110474 24.97643433 66.55110474 24.97643433 68.13354492 24.95239258 C71.98193527 24.89795946 75.83029179 24.86360151 79.67895508 24.83520508 C81.34242481 24.82014886 83.00585505 24.79969937 84.66918945 24.77368164 C87.06471522 24.73715793 89.45971467 24.72024218 91.85546875 24.70703125 C92.96513252 24.68380547 92.96513252 24.68380547 94.09721375 24.66011047 C98.58222918 24.65865938 101.49515206 25.13166188 105 28 C106.74988057 30.87593283 107.24874971 33.00761837 107.24050903 36.35333252 C107.24463303 37.64894608 107.24463303 37.64894608 107.24884033 38.97073364 C107.2380545 40.37982498 107.2380545 40.37982498 107.22705078 41.81738281 C107.22734283 42.81283112 107.22763489 43.80827942 107.22793579 44.83389282 C107.22654261 48.12372559 107.21098178 51.4133318 107.1953125 54.703125 C107.19158233 56.98427202 107.18873538 59.26542063 107.18673706 61.54656982 C107.17910092 67.55041935 107.1594525 73.55417211 107.1373291 79.5579834 C107.11687032 85.68447562 107.10773527 91.81098347 107.09765625 97.9375 C107.07620667 109.95837585 107.04207087 121.97917988 107 134 C107.80743652 133.98952637 108.61487305 133.97905273 109.44677734 133.96826172 C113.08948682 133.92680169 116.73214675 133.90070562 120.375 133.875 C122.28152344 133.84986328 122.28152344 133.84986328 124.2265625 133.82421875 C126.04414063 133.81455078 126.04414063 133.81455078 127.8984375 133.8046875 C129.01911621 133.79421387 130.13979492 133.78374023 131.29443359 133.77294922 C134 134 134 134 136 136 C136.25396729 138.69470215 136.25396729 138.69470215 136.25878906 142.16210938 C136.26509338 143.45685181 136.27139771 144.75159424 136.27789307 146.08557129 C136.27431339 147.50496557 136.27021146 148.92435862 136.265625 150.34375 C136.26697169 151.793417 136.26891226 153.24308357 136.27142334 154.69274902 C136.27437442 157.73254695 136.27007756 160.77222743 136.26074219 163.81201172 C136.24934756 167.71294249 136.25590713 171.61359807 136.26788712 175.51451874 C136.27510621 178.50846438 136.27281758 181.50234453 136.26763153 184.49629211 C136.26629517 185.93484021 136.2679423 187.37339421 136.27259064 188.81193542 C136.2776564 190.82058604 136.26856944 192.82925743 136.25878906 194.83789062 C136.25719788 195.98213501 136.25560669 197.12637939 136.25396729 198.30529785 C136 201 136 201 134 203 C131.03955078 203.25396729 131.03955078 203.25396729 127.1953125 203.25878906 C126.14630768 203.26404602 126.14630768 203.26404602 125.07611084 203.26940918 C122.75897362 203.27822876 120.44214045 203.2723767 118.125 203.265625 C116.51839133 203.26697159 114.91178305 203.26891207 113.30517578 203.27142334 C109.93583298 203.2743749 106.56659613 203.27007597 103.19726562 203.26074219 C98.87260506 203.24934758 94.54819271 203.25590689 90.22354126 203.26788712 C86.9053357 203.27510488 83.58718925 203.27281819 80.26898193 203.26763153 C78.674133 203.2662948 77.07927875 203.26794358 75.48443604 203.27259064 C73.25770802 203.27765456 71.03138524 203.26994788 68.8046875 203.25878906 C67.53608887 203.25719788 66.26749023 203.25560669 64.96044922 203.25396729 C62 203 62 203 60 201 C59.74603271 198.30529785 59.74603271 198.30529785 59.74121094 194.83789062 C59.73490662 193.54314819 59.72860229 192.24840576 59.72210693 190.91442871 C59.72568661 189.49503443 59.72978854 188.07564138 59.734375 186.65625 C59.73302831 185.206583 59.73108774 183.75691643 59.72857666 182.30725098 C59.72562558 179.26745305 59.72992244 176.22777257 59.73925781 173.18798828 C59.75065244 169.28705751 59.74409287 165.38640193 59.73211288 161.48548126 C59.72489379 158.49153562 59.72718242 155.49765547 59.73236847 152.50370789 C59.73370483 151.06515979 59.7320577 149.62660579 59.72740936 148.18806458 C59.7223436 146.17941396 59.73143056 144.17074257 59.74121094 142.16210938 C59.74280212 141.01786499 59.74439331 139.87362061 59.74603271 138.69470215 C60 136 60 136 62 134 C69.26 134 76.52 134 84 134 C84 105.62 84 77.24 84 48 C48.59492784 44.569711 48.59492784 44.569711 38 57 C20.10343431 72.03808644 -7.62888509 91 -32 91 C-30.59466204 87.1017761 -28.72860386 83.94359853 -26.4375 80.5 C-11.14931021 56.35405846 -5.29554376 27.66561422 0 0 Z " fill="#000000" transform="translate(325,296)"/>
<path d="M0 0 C0.1451001 0.75804932 0.2902002 1.51609863 0.43969727 2.29711914 C6.05645889 31.31741889 13.22216307 58.78122353 29.15234375 84.03125 C30.57880829 86.32324377 31.85762306 88.55973932 33 91 C27.23224825 90.43618606 22.10050031 89.31299793 16.625 87.4375 C15.85115967 87.17356445 15.07731934 86.90962891 14.2800293 86.63769531 C-9.00865473 78.49759563 -27.57517092 66.42482908 -45 49 C-59.85 48.505 -59.85 48.505 -75 48 C-75 76.38 -75 104.76 -75 134 C-67.08 134 -59.16 134 -51 134 C-47.44430203 137.55569797 -47.62225293 138.25106259 -47.61181641 143.07617188 C-47.60235992 144.32756958 -47.59290344 145.57896729 -47.5831604 146.86828613 C-47.5885301 148.23511064 -47.59468305 149.60193226 -47.6015625 150.96875 C-47.59954157 152.36975252 -47.59662998 153.77075401 -47.59286499 155.17175293 C-47.58844247 158.10727967 -47.59487004 161.04253246 -47.60888672 163.97802734 C-47.62597899 167.74107416 -47.61613736 171.50347911 -47.59816933 175.26650238 C-47.58732931 178.15928993 -47.59077874 181.05192527 -47.5985527 183.94471741 C-47.60055413 185.33219987 -47.59809742 186.71969614 -47.59111404 188.10716248 C-47.58349695 190.04604834 -47.59716506 191.98498265 -47.61181641 193.92382812 C-47.61420319 195.02730591 -47.61658997 196.13078369 -47.61904907 197.2677002 C-48 200 -48 200 -49.09860229 201.85549927 C-51.99349786 203.5980122 -54.45179268 203.38174764 -57.81054688 203.38818359 C-58.84273094 203.39606903 -58.84273094 203.39606903 -59.89576721 203.40411377 C-62.17032573 203.41731742 -64.44418437 203.40857496 -66.71875 203.3984375 C-68.29911432 203.40045814 -69.87947774 203.4033695 -71.45983887 203.40713501 C-74.77198158 203.41155884 -78.08388159 203.4051256 -81.39599609 203.39111328 C-85.6432909 203.37402114 -89.89001702 203.38386204 -94.13729095 203.40183067 C-97.40065807 203.41266706 -100.66389019 203.40922289 -103.92726135 203.4014473 C-105.49337328 203.39944487 -107.05949744 203.40190605 -108.62559509 203.40888596 C-110.81387843 203.41649831 -113.00123861 203.4049006 -115.18945312 203.38818359 C-116.43505005 203.38579681 -117.68064697 203.38341003 -118.96398926 203.38095093 C-122 203 -122 203 -123.90139771 201.85549927 C-125.49438554 199.16500082 -125.38144209 197.04062331 -125.38818359 193.92382812 C-125.39764008 192.67243042 -125.40709656 191.42103271 -125.4168396 190.13171387 C-125.4114699 188.76488936 -125.40531695 187.39806774 -125.3984375 186.03125 C-125.40045843 184.63024748 -125.40337002 183.22924599 -125.40713501 181.82824707 C-125.41155753 178.89272033 -125.40512996 175.95746754 -125.39111328 173.02197266 C-125.37402101 169.25892584 -125.38386264 165.49652089 -125.40183067 161.73349762 C-125.41267069 158.84071007 -125.40922126 155.94807473 -125.4014473 153.05528259 C-125.39944587 151.66780013 -125.40190258 150.28030386 -125.40888596 148.89283752 C-125.41650305 146.95395166 -125.40283494 145.01501735 -125.38818359 143.07617188 C-125.38579681 141.97269409 -125.38341003 140.86921631 -125.38095093 139.7322998 C-125 137 -125 137 -123.82262611 135.34754181 C-121.29631716 133.47973858 -119.57600517 133.65752373 -116.45703125 133.70703125 C-114.84731445 133.7215332 -114.84731445 133.7215332 -113.20507812 133.73632812 C-112.08552734 133.76146484 -110.96597656 133.78660156 -109.8125 133.8125 C-108.68134766 133.82603516 -107.55019531 133.83957031 -106.38476562 133.85351562 C-103.58936683 133.88890042 -100.79492108 133.93827052 -98 134 C-98.00666183 132.73323929 -98.01332367 131.46647858 -98.02018738 130.16133118 C-98.08098068 118.22812194 -98.12596416 106.29494409 -98.15543652 94.36161518 C-98.17109786 88.22644412 -98.192345 82.09139799 -98.22631836 75.95629883 C-98.25889463 70.03650368 -98.27684948 64.11682877 -98.28463173 58.19695091 C-98.29017832 55.93749282 -98.30100931 53.67804137 -98.31719017 51.41863441 C-98.33894103 48.25591391 -98.34196785 45.09369137 -98.34057617 41.9309082 C-98.351362 40.99510925 -98.36214783 40.0593103 -98.3732605 39.09515381 C-98.35012665 34.24221462 -98.18998561 30.92759696 -95 27 C-91.79938803 24.72187668 -88.78075342 24.69943392 -84.921875 24.5859375 C-83.76171875 24.54726563 -82.6015625 24.50859375 -81.40625 24.46875 C-79.59640625 24.42234375 -79.59640625 24.42234375 -77.75 24.375 C-76.52796875 24.33632813 -75.3059375 24.29765625 -74.046875 24.2578125 C-71.0314006 24.16357892 -68.01593172 24.07796545 -65 24 C-65.66 23.071875 -66.32 22.14375 -67 21.1875 C-69 18 -69 18 -69 15 C-52.22022709 9.49029718 -35.325725 5.39767722 -18 2 C-17.00162109 1.79842285 -16.00324219 1.5968457 -14.97460938 1.38916016 C-9.88462701 0.39944136 -5.18523586 -0.23045493 0 0 Z " fill="#000000" transform="translate(178,296)"/>
<path d="M0 0 C5.56340585 3.36669624 9.53349183 8.25193794 11.5 14.4375 C12.22586345 21.50200821 12.39680664 28.33358001 8.9609375 34.69140625 C7.5 36.4375 7.5 36.4375 4.40625 38.3203125 C2.04039302 40.23275578 1.53974006 41.24300136 0.92041016 44.27416992 C0.68427593 47.77699843 0.61744609 51.23931883 0.625 54.75 C0.604375 55.96751953 0.58375 57.18503906 0.5625 58.43945312 C0.51544067 61.43948568 0.49555554 64.43717407 0.5 67.4375 C2.11261719 67.35242188 2.11261719 67.35242188 3.7578125 67.265625 C9.5212641 67.53033468 11.73296415 70.31971593 15.5 74.4375 C35.47236451 97.89879806 49.9165121 134.60544595 49.5 165.4375 C30.67067469 167.28341082 12.01381442 167.75570114 -6.88549805 167.69824219 C-10.67433915 167.6868591 -14.46289854 167.69361019 -18.25172997 167.70514679 C-36.76754342 167.75254841 -55.05114739 167.16160149 -73.5 165.4375 C-72.84232017 157.0698988 -71.50996754 149.26250781 -69.4375 141.125 C-68.97114136 139.29110718 -68.97114136 139.29110718 -68.49536133 137.42016602 C-62.72416973 115.34064828 -54.99113807 92.69213816 -39.5 75.4375 C-38.55907426 74.27359446 -37.62110552 73.10728549 -36.6875 71.9375 C-34.5 69.4375 -34.5 69.4375 -31.5 67.4375 C-29.16800612 67.35844936 -26.83167378 67.34951231 -24.5 67.4375 C-24.4644247 63.26933615 -24.50672024 59.10536359 -24.5625 54.9375 C-24.54606445 53.17792969 -24.54606445 53.17792969 -24.52929688 51.3828125 C-24.67334423 44.05697536 -25.54522148 40.20104237 -30.84301758 35.04956055 C-33.90089611 32.0745831 -34.4113576 29.30021733 -34.8359375 25.16796875 C-34.9271634 16.89378003 -34.67810264 10.85321985 -28.8515625 4.6953125 C-21.11287804 -2.36750432 -9.80179543 -4.41744359 0 0 Z " fill="#000000" transform="translate(263.5,1.5625)"/>
<path d="M0 0 C7.80615207 16.30968372 14.29394053 34.6955215 14 53 C17.73069819 53.00627535 21.45754759 52.94660077 25.1875 52.875 C26.24259766 52.87757813 27.29769531 52.88015625 28.38476562 52.8828125 C33.89484005 52.91215067 33.89484005 52.91215067 38.7331543 50.68994141 C40.2239193 48.9061693 40.2239193 48.9061693 42 46 C47.44135776 41.44727561 53.82117914 41.39471854 60.65625 41.62109375 C67.96426536 42.44922166 72.15347128 45.55906738 76.7734375 51.12109375 C81.00446106 57.60237506 80.67032648 64.50761669 80 72 C78.36788567 78.20594371 74.30604094 82.53618117 69 86 C62.54364098 89.20621911 54.37518501 89.19570274 47.484375 87.3125 C43.82649054 85.63713307 42.252048 84.39450992 40.0234375 80.90625 C38.22109018 78.67659119 37.27975802 78.06345137 34.44458008 77.42041016 C31.3466088 77.18514704 28.29426093 77.11740865 25.1875 77.125 C24.11306641 77.104375 23.03863281 77.08375 21.93164062 77.0625 C19.28698446 77.01548389 16.6449879 76.9955509 14 77 C14.05164307 77.74096924 14.10328613 78.48193848 14.15649414 79.24536133 C15.29092832 98.82189602 8.97789553 120.70825446 0 138 C-7.21872412 137.38376745 -13.81721304 135.41408296 -20.75 133.375 C-37.94108288 128.45138941 -55.41769022 125.18718035 -73 122 C-73.14798191 114.56801987 -72.62145201 107.45742409 -72 100 C-71.67 90.43 -71.34 80.86 -71 71 C-42.95 71 -14.9 71 14 71 C14 67.04 14 63.08 14 59 C-14.05 59 -42.1 59 -71 59 C-73.32142857 26.5 -73.32142857 26.5 -73 16 C-72.21689453 15.87995605 -71.43378906 15.75991211 -70.62695312 15.63623047 C-48.94465551 12.27249983 -27.52525078 8.39615268 -6.828125 0.8828125 C-4 0 -4 0 0 0 Z " fill="#000000" transform="translate(402,161)"/>
<path d="M0 0 C6.14259139 0.65148697 11.73877582 2.36139617 17.625 4.1875 C27.04162979 7.02102409 36.49346672 9.33159508 46.125 11.3125 C47.29627441 11.55444092 48.46754883 11.79638184 49.67431641 12.0456543 C57.75081734 13.66312099 65.83625923 14.91237855 74 16 C74.10551806 22.54211987 73.66396147 28.36038532 73 35 C72.67 42.92 72.34 50.84 72 59 C43.95 59 15.9 59 -13 59 C-13 62.96 -13 66.92 -13 71 C15.05 71 43.1 71 72 71 C72.33 80.57 72.66 90.14 73 100 C73.33 103.96 73.66 107.92 74 112 C74.03634227 115.34348924 74.06648445 118.6610032 74 122 C73.06655762 122.17015625 72.13311523 122.3403125 71.17138672 122.515625 C53.10109298 125.82953617 35.23363583 129.42234143 17.54638672 134.421875 C11.67362449 136.07547551 6.08486285 137.47544286 0 138 C-8.11961753 118.83100604 -15.25594254 98.11844118 -14 77 C-22.27745909 76.61552399 -22.27745909 76.61552399 -29.76171875 79.26171875 C-30.8773551 80.81578061 -31.93883189 82.40824783 -33 84 C-38.51041136 88.52101082 -44.77575239 88.60678598 -51.65625 88.37890625 C-58.96426536 87.55077834 -63.15347128 84.44093262 -67.7734375 78.87890625 C-72.00446106 72.39762494 -71.67032648 65.49238331 -71 58 C-69.36788567 51.79405629 -65.30604094 47.46381883 -60 44 C-53.54364098 40.79378089 -45.37518501 40.80429726 -38.484375 42.6875 C-34.76613505 44.39051067 -33.20595375 45.68170785 -30.9375 49.1875 C-28.95675456 51.95635895 -27.83750885 52.02702374 -24.359375 52.60546875 C-20.57330646 52.90948588 -16.79726333 52.99044714 -13 53 C-12.98582031 52.31679687 -12.97164062 51.63359375 -12.95703125 50.9296875 C-12.11509791 33.13531255 -6.97389555 16.27912219 0 0 Z " fill="#000000" transform="translate(101,161)"/>
<path d="M0 0 C44.22 0 88.44 0 134 0 C134 16.875 134 16.875 133.34375 23.68359375 C133.2438678 24.75046165 133.2438678 24.75046165 133.14196777 25.83888245 C132.93451046 28.03910583 132.71751617 30.23825098 132.5 32.4375 C132.35482419 33.95892301 132.21028996 35.48040738 132.06640625 37.00195312 C131.71829184 40.66870219 131.36163908 44.33455705 131 48 C122.94985267 48.12217762 115.01085154 47.84437621 106.98242188 47.26269531 C99.74483638 46.78527734 92.49990949 46.57220424 85.25 46.375 C84.43916962 46.35254211 83.62833923 46.33008423 82.79293823 46.3069458 C70.53667788 45.98307331 58.31711497 46.0005441 46.0625 46.375 C45.0018634 46.40699493 45.0018634 46.40699493 43.9197998 46.43963623 C35.41253214 46.70786995 26.93069214 47.16509749 18.44287109 47.79711914 C12.96202572 48.12009336 7.48783483 48.08328923 2 48 C-0.08743145 31.82240624 0 16.50540969 0 0 Z " fill="#000000" transform="translate(185,232)"/>
<path d="M0 0 C5.20070349 -0.07708553 10.21191861 0.05486633 15.37426758 0.66088867 C48.64003028 4.53408867 83.28776777 3.94514819 116.53125 0.40234375 C120.70858739 -0.02422805 124.80269482 -0.07220135 129 0 C131.03465534 13.53409135 131 26.10581979 131 40 C87.11 40 43.22 40 -2 40 C-2 13.30357143 -2 13.30357143 0 0 Z " fill="#000000" transform="translate(187,180)"/>
<path d="M0 0 C-1.31006312 3.58210496 -2.90292072 6.49029154 -5.0625 9.625 C-20.58078824 33.80390969 -28.46117512 62.87941244 -33 91 C-42.12925365 90.51040963 -50.87382425 89.27228553 -59.8125 87.375 C-61.05628418 87.11501221 -62.30006836 86.85502441 -63.58154297 86.5871582 C-76.587467 83.78882365 -89.37954472 80.20681843 -102 76 C-101.4504306 72.38686517 -100.60819774 69.99607578 -98.48046875 67.03125 C-97.9587207 66.30156006 -97.43697266 65.57187012 -96.89941406 64.82006836 C-96.33448242 64.0544458 -95.76955078 63.28882324 -95.1875 62.5 C-94.60581055 61.70408447 -94.02412109 60.90816895 -93.42480469 60.08813477 C-88.087121 52.90306921 -82.255013 46.3877219 -76 40 C-74.86498047 38.78957031 -74.86498047 38.78957031 -73.70703125 37.5546875 C-56.43749352 19.49874095 -25.67040146 0 0 0 Z " fill="#000000" transform="translate(211,73)"/>
<path d="M0 0 C6.74478834 0.53767738 12.66779676 1.8814164 19.0625 4.0625 C20.43233032 4.5255957 20.43233032 4.5255957 21.82983398 4.99804688 C29.65776151 7.72746313 37.00237439 11.07046264 44.265625 15.05322266 C45.87154385 15.92987712 47.49758948 16.76938659 49.125 17.60546875 C70.22462868 28.96896558 89.8931841 50.88969427 101 72 C101 72.99 101 73.98 101 75 C88.72322317 78.99311383 76.42367219 82.53035206 63.8125 85.3125 C62.71639404 85.55436035 61.62028809 85.7962207 60.4909668 86.04541016 C40.3416075 90.37916398 40.3416075 90.37916398 32 90 C31.82778931 89.05253906 31.82778931 89.05253906 31.65209961 88.0859375 C26.41135213 59.65737865 19.67223492 28.90703753 2.22265625 5.125 C0 2 0 2 0 0 Z " fill="#000000" transform="translate(293,74)"/>
</svg>
