<?xml version="1.0" encoding="UTF-8"?>
<svg version="1.1" xmlns="http://www.w3.org/2000/svg" width="512" height="512">
<path d="M0 0 C3.27414893 0.98163497 4.80567082 3.12340253 7.09765625 5.62890625 C8.20106589 6.80669926 9.3052873 7.98373209 10.41015625 9.16015625 C11.63936447 10.48303431 12.86852923 11.80595274 14.09765625 13.12890625 C23.35941449 23.04529437 32.69493022 32.89291533 43.09765625 41.62890625 C44.01417969 42.42296875 44.93070313 43.21703125 45.875 44.03515625 C111.17945453 100.41518572 190.7279077 143.24327098 274.28515625 164.75390625 C295.67506725 170.35373688 295.67506725 170.35373688 301.97265625 176.44140625 C303.51308458 179.43668357 303.57336168 181.29896825 303.09765625 184.62890625 C301.25435192 187.81924067 300.06609831 189.29865412 296.5546875 190.49609375 C291.58936643 190.68685185 287.92566342 188.86272246 283.41015625 186.94140625 C258.59441747 177.09147346 230.88920346 174.43708322 205.09765625 182.62890625 C203.875625 183.00273437 202.65359375 183.3765625 201.39453125 183.76171875 C170.95848735 193.88472013 146.98580227 214.75459183 132.21875 243.19140625 C128.95887768 249.71202089 126.37134928 256.33147628 124.28515625 263.31640625 C124.09026611 263.96834961 123.89537598 264.62029297 123.69458008 265.29199219 C115.21687866 295.49637219 120.04453152 327.1850677 134.41796875 354.703125 C149.5024646 380.97821196 174.11629817 401.90036754 203.50756836 410.12231445 C205.36429886 410.61694248 207.22578835 411.09412322 209.09204102 411.55151367 C217.20178134 413.60902598 217.20178134 413.60902598 220.09765625 417.62890625 C221.25477433 421.25454291 221.43282715 422.89153027 219.84765625 426.37890625 C218.09765625 428.62890625 218.09765625 428.62890625 215.09765625 430.62890625 C208.23948134 430.88582264 201.58446926 428.87640898 195.16015625 426.69140625 C194.25990723 426.38710693 193.3596582 426.08280762 192.43212891 425.76928711 C178.54578793 420.87372646 165.57127089 413.87198601 154.09765625 404.62890625 C153.5042041 404.15582031 152.91075195 403.68273437 152.29931641 403.1953125 C143.6457988 396.29143673 135.14083156 389.21134249 126.72607422 382.01904297 C125.02111629 380.56356614 123.31153295 379.11364572 121.6015625 377.6640625 C114.85557608 371.93089815 108.24838537 366.07839205 101.75 360.06640625 C99.62275091 358.11146747 97.47493373 356.2000858 95.28515625 354.31640625 C89.41412883 349.21851824 83.78934333 343.84750099 78.12304688 338.52490234 C76.19998568 336.72469824 74.26760957 334.93516399 72.33203125 333.1484375 C62.83911133 324.34874661 53.63335655 315.27168997 44.47265625 306.12890625 C43.86161041 305.52044861 43.25056458 304.91199097 42.6210022 304.28509521 C30.9397764 292.64295283 30.9397764 292.64295283 25.61474609 286.39111328 C22.92505656 283.26684887 20.05767708 280.30819875 17.22265625 277.31640625 C12.3955639 272.17731348 7.71712707 266.98276558 3.33984375 261.44921875 C1.63042989 259.29905009 -0.108954 257.20633254 -1.89453125 255.12109375 C-2.91839419 253.89488636 -3.94183649 252.66832761 -4.96484375 251.44140625 C-5.4549292 250.88316162 -5.94501465 250.32491699 -6.44995117 249.74975586 C-9.00511578 246.62962563 -10.21833245 244.45149019 -10.3046875 240.359375 C-9.90234375 236.62890625 -9.90234375 236.62890625 -8.40234375 234.12890625 C-5.58635994 232.43931596 -3.26728239 232.11042505 0 232 C5.33225478 233.59868346 9.29618162 240.07508915 12.84765625 244.25390625 C13.37133789 244.86637207 13.89501953 245.47883789 14.43457031 246.10986328 C17.63159365 249.86183057 20.75769 253.66290654 23.84765625 257.50390625 C27.01931697 261.41409447 30.32885678 265.01940097 33.98046875 268.484375 C35.77269815 270.29975127 37.40884786 272.14800459 39.06225586 274.08691406 C43.73277711 279.43901766 48.75474609 284.43060696 53.78125 289.4453125 C54.80597733 290.47071549 55.83055636 291.49626671 56.85499573 292.5219574 C58.99066055 294.65908688 61.12809833 296.79442234 63.2668457 298.9284668 C65.98774041 301.643665 68.70411935 304.36332958 71.41917324 307.0843668 C73.53049439 309.199327 75.644223 311.31186832 77.75865364 313.42371941 C78.76036716 314.42477288 79.76135802 315.4265501 80.76156425 316.42910957 C86.3702875 322.048135 92.05568511 327.47878509 98.09765625 332.62890625 C99.93491726 334.27035392 101.76892132 335.91546499 103.59765625 337.56640625 C104.8815625 338.72462891 104.8815625 338.72462891 106.19140625 339.90625 C106.82046875 340.47472656 107.44953125 341.04320312 108.09765625 341.62890625 C107.69933594 340.01435547 107.69933594 340.01435547 107.29296875 338.3671875 C106.93591587 336.89199532 106.57916143 335.41673089 106.22265625 333.94140625 C105.96162109 332.88856445 105.96162109 332.88856445 105.6953125 331.81445312 C100.11526602 308.56425946 99.8850197 283.76931831 106.09765625 260.62890625 C106.2795752 259.94876465 106.46149414 259.26862305 106.64892578 258.56787109 C115.78296417 225.82736351 138.13144498 197.180171 167.09765625 179.62890625 C167.74895508 179.22978027 168.40025391 178.8306543 169.07128906 178.41943359 C181.31263502 171.06189356 194.49464156 166.79106114 208.09765625 162.62890625 C207.12832153 162.23119019 207.12832153 162.23119019 206.1394043 161.82543945 C153.62333828 140.18164409 104.25307235 112.1358937 59.09765625 77.62890625 C58.14246094 76.9011499 58.14246094 76.9011499 57.16796875 76.15869141 C44.6405161 66.57479369 32.74480418 56.25938124 21.09765625 45.62890625 C20.07052055 44.70679945 19.04316467 43.78493787 18.015625 42.86328125 C10.2448147 35.84793411 3.00996661 28.49178844 -3.90234375 20.62890625 C-4.58941406 19.86449219 -5.27648437 19.10007812 -5.984375 18.3125 C-8.68795307 15.07707051 -10.26079533 12.65152055 -10.52734375 8.37890625 C-9.90234375 4.62890625 -9.90234375 4.62890625 -8.40234375 2.12890625 C-5.58635994 0.43931596 -3.26728239 0.11042505 0 0 Z " fill="#454646" transform="translate(17.90234375,23.37109375)"/>
<path d="M0 0 C6.0577339 5.65769487 9.77857368 12.70426092 10.5234375 20.984375 C10.76484743 31.71385274 9.51301693 40.55740106 1.890625 48.71875 C-4.42808108 54.39978849 -11.3879001 57.47788236 -19.93798828 57.54052734 C-21.12586945 57.55328705 -22.31375061 57.56604675 -23.53762817 57.57919312 C-24.806539 57.58141876 -26.07544983 57.58364441 -27.3828125 57.5859375 C-29.35349197 57.5959227 -29.35349197 57.5959227 -31.36398315 57.60610962 C-34.13608085 57.61804394 -36.90805423 57.62179404 -39.68017578 57.62060547 C-43.22903226 57.62040159 -46.77709409 57.64778991 -50.3257618 57.68214989 C-53.71979127 57.7097364 -57.11367231 57.70856644 -60.5078125 57.7109375 C-61.78077179 57.72530853 -63.05373108 57.73967957 -64.36526489 57.75448608 C-65.54684174 57.74833282 -66.72841858 57.74217957 -67.94580078 57.73583984 C-68.98471466 57.73868988 -70.02362854 57.74153992 -71.09402466 57.74447632 C-74.50588307 57.12387728 -75.68176476 55.92808008 -77.8125 53.25 C-78.34375 51.25 -78.34375 51.25 -78.3125 49.25 C-78.32796875 48.26 -78.32796875 48.26 -78.34375 47.25 C-77.56877748 44.33245641 -76.12280844 43.15324012 -73.8125 41.25 C-71.24707031 40.79589844 -71.24707031 40.79589844 -68.390625 40.859375 C-66.85341797 40.87871094 -66.85341797 40.87871094 -65.28515625 40.8984375 C-63.68994141 40.94871094 -63.68994141 40.94871094 -62.0625 41 C-60.98355469 41.01804687 -59.90460938 41.03609375 -58.79296875 41.0546875 C-56.13191212 41.10178585 -53.47265746 41.167544 -50.8125 41.25 C-51.30105469 40.09886719 -51.78960937 38.94773437 -52.29296875 37.76171875 C-53.91636952 33.4227765 -54.23494999 29.65840965 -54.125 25.0625 C-54.12822266 24.37736328 -54.13144531 23.69222656 -54.13476562 22.98632812 C-54.09179814 18.92785353 -53.41047623 15.94415207 -51.8125 12.25 C-53.71878174 12.44045898 -53.71878174 12.44045898 -55.66357422 12.63476562 C-68.41014688 13.88992775 -81.15676627 14.91741212 -93.9375 15.75 C-95.3767131 15.8462114 -95.3767131 15.8462114 -96.84500122 15.94436646 C-108.76326821 16.73614157 -120.67481397 17.35716707 -132.61328125 17.74609375 C-134.32653595 17.80375412 -134.32653595 17.80375412 -136.07440186 17.86257935 C-141.61391234 18.04640286 -147.15281571 18.20978405 -152.69384766 18.33984375 C-167.17055069 18.74370624 -180.26061608 20.16220657 -193.25 27.125 C-193.91902344 27.47232178 -194.58804688 27.81964355 -195.27734375 28.17749023 C-200.1694597 30.77224656 -204.60071908 33.64264322 -208.8125 37.25 C-209.76962891 37.97703125 -209.76962891 37.97703125 -210.74609375 38.71875 C-224.50589715 49.66221937 -233.08485009 68.21829621 -235.8125 85.25 C-235.96589844 86.20003906 -236.11929688 87.15007812 -236.27734375 88.12890625 C-238.75419808 108.58382686 -232.40154958 129.67790068 -220 145.9375 C-209.4068457 159.36916234 -196.16892673 169.15450025 -182.4375 179.125 C-181.33257202 179.9279248 -181.33257202 179.9279248 -180.20532227 180.74707031 C-175.52253839 184.11415711 -170.74248657 187.25673444 -165.8125 190.25 C-165.73 189.095 -165.6475 187.94 -165.5625 186.75 C-164.67808608 179.71205826 -161.24997271 174.63835973 -156.8125 169.25 C-156.8125 168.59 -156.8125 167.93 -156.8125 167.25 C-159.01701027 165.83521056 -161.21983662 164.53235018 -163.5 163.25 C-170.52640673 159.16193906 -176.94747272 154.64399708 -183.25048828 149.51953125 C-184.76010188 148.29258678 -186.28412849 147.08344182 -187.80859375 145.875 C-195.03853814 139.98052305 -201.69527717 133.5724352 -208.3125 127 C-209.17367432 126.14809082 -210.03484863 125.29618164 -210.92211914 124.41845703 C-222.32498058 112.9584412 -222.32498058 112.9584412 -223.375 107.125 C-222.65350484 103.43735808 -221.57407809 101.79355877 -218.8125 99.25 C-215.52959518 98.13241538 -213.77731758 97.81422123 -210.58984375 99.25390625 C-206.63532351 102.09604386 -203.57704179 105.59250567 -200.3125 109.1875 C-183.78111709 127.0205221 -165.84148285 141.02315562 -144.8125 153.25 C-143.88945068 153.79793213 -143.88945068 153.79793213 -142.94775391 154.35693359 C-136.231034 158.33044335 -130.20577261 160.79563555 -122.6015625 162.4609375 C-114.56992055 164.73319475 -109.00935502 170.22833872 -104.8125 177.25 C-100.49966892 185.30061802 -100.48145003 195.45203659 -102.50390625 204.26171875 C-105.71578604 213.03727316 -111.45157349 219.1463835 -119.8125 223.25 C-128.01652336 226.55246703 -138.85235972 226.77017887 -147.1875 223.6875 C-151.39109325 221.68975271 -155.0722414 219.10025282 -158.8125 216.34765625 C-162.53684012 213.74352781 -166.41062387 211.45075906 -170.3125 209.125 C-179.88246961 203.36718022 -188.87527853 196.93747037 -197.8125 190.25 C-198.43560059 189.78674316 -199.05870117 189.32348633 -199.70068359 188.84619141 C-206.23775999 183.97342418 -212.51280336 178.9017188 -218.49609375 173.35546875 C-220.1990085 171.8076255 -221.96474681 170.32820255 -223.76171875 168.890625 C-227.01803505 166.19173803 -229.60297516 163.14774986 -232.1875 159.8125 C-232.66010254 159.20414307 -233.13270508 158.59578613 -233.61962891 157.96899414 C-249.97001084 136.45344079 -257.13143754 110.81520227 -253.91381836 83.96630859 C-250.47211649 59.54623935 -237.54379667 36.22877635 -218.11669922 20.91308594 C-198.11251426 5.97179033 -176.62712345 0.86646068 -151.98800659 0.37911987 C-128.02146932 -0.11397599 -104.15389949 -1.60376837 -80.25 -3.3125 C-78.65559183 -3.42581397 -77.06118064 -3.53908538 -75.46676636 -3.65231323 C-56.44386232 -4.99786102 -56.44386232 -4.99786102 -37.43681335 -6.5473938 C-11.09022533 -8.58144286 -11.09022533 -8.58144286 0 0 Z M-35.1875 16.875 C-37.39157893 21.45270239 -37.6096639 25.25552411 -36.8125 30.25 C-34.48281069 35.08858548 -31.65108548 37.92031069 -26.8125 40.25 C-21.81802411 41.0471639 -18.01520239 40.82907893 -13.4375 38.625 C-9.85342287 35.38226355 -7.21714759 32.78524104 -6.4296875 27.8515625 C-6.17366081 22.16777006 -6.87623068 18.60061345 -10.8125 14.25 C-15.16311345 10.31373068 -18.73027006 9.61116081 -24.4140625 9.8671875 C-29.34774104 10.65464759 -31.94476355 13.29092287 -35.1875 16.875 Z M-147.1875 184.875 C-149.39157893 189.45270239 -149.6096639 193.25552411 -148.8125 198.25 C-146.48281069 203.08858548 -143.65108548 205.92031069 -138.8125 208.25 C-133.81802411 209.0471639 -130.01520239 208.82907893 -125.4375 206.625 C-121.85342287 203.38226355 -119.21714759 200.78524104 -118.4296875 195.8515625 C-118.17366081 190.16777006 -118.87623068 186.60061345 -122.8125 182.25 C-127.16311345 178.31373068 -130.73027006 177.61116081 -136.4140625 177.8671875 C-141.34774104 178.65464759 -143.94476355 181.29092287 -147.1875 184.875 Z " fill="#454646" transform="translate(413.8125,222.75)"/>
<path d="M0 0 C1.55580272 0.32121891 3.11179161 0.64153745 4.66796875 0.9609375 C7.63709153 1.57127648 10.60468494 2.18833277 13.57128906 2.81079102 C17.54163763 3.64073107 21.52272936 4.4079915 25.51269531 5.13793945 C34.25338337 7.28015968 40.78280973 12.93409446 45.421875 20.46484375 C49.56260014 28.76129666 49.85803894 38.66043123 47.8125 47.64453125 C44.57965293 56.41362892 38.86588068 62.51895195 30.5 66.625 C-7.35199972 82.20466365 -77.56267453 46.30079451 -113 32.9375 C-114.03705078 32.55207031 -115.07410156 32.16664063 -116.14257812 31.76953125 C-117.07521484 31.40859375 -118.00785156 31.04765625 -118.96875 30.67578125 C-119.75701172 30.37325439 -120.54527344 30.07072754 -121.35742188 29.7590332 C-123.92176215 28.40176787 -125.5935754 26.80031345 -127.5 24.625 C-128.22991469 21.87708587 -128.04686219 19.40488279 -127.5 16.625 C-126 14.125 -126 14.125 -123.5 12.625 C-117.24297662 12.15305906 -112.61119205 13.27468054 -106.796875 15.484375 C-105.97353165 15.78486755 -105.15018829 16.08536011 -104.30189514 16.3949585 C-102.53380729 17.04136354 -100.76774357 17.69332755 -99.00357056 18.3503418 C-94.30277678 20.09960037 -89.58596903 21.80476877 -84.87109375 23.515625 C-83.91543015 23.86359131 -82.95976654 24.21155762 -81.97514343 24.57006836 C-72.80245413 27.90122363 -63.57511492 31.05385985 -54.3125 34.125 C-53.20503418 34.49274536 -53.20503418 34.49274536 -52.07519531 34.86791992 C-39.61390469 38.99734142 -27.09295086 42.91504352 -14.5 46.625 C-14.83 45.965 -15.16 45.305 -15.5 44.625 C-16.27586895 33.73739642 -15.71758478 24.95137718 -9.5 15.625 C-10.10585938 15.58761719 -10.71171875 15.55023438 -11.3359375 15.51171875 C-17.55466103 15.02378813 -23.76276146 14.20675734 -29.5 11.625 C-31.9677205 7.92341925 -32.15647105 4.91797513 -31.5 0.625 C-26.39810622 -8.65117051 -8.33705496 -1.75956196 0 0 Z M3.125 28.25 C0.92092107 32.82770239 0.7028361 36.63052411 1.5 41.625 C3.82968931 46.46358548 6.66141452 49.29531069 11.5 51.625 C16.49447589 52.4221639 20.29729761 52.20407893 24.875 50 C28.45907713 46.75726355 31.09535241 44.16024104 31.8828125 39.2265625 C32.13883919 33.54277006 31.43626932 29.97561345 27.5 25.625 C23.14938655 21.68873068 19.58222994 20.98616081 13.8984375 21.2421875 C8.96475896 22.02964759 6.36773645 24.66592287 3.125 28.25 Z " fill="#454646" transform="translate(367.5,315.375)"/>
<path d="M0 0 C11.57277525 2.04913628 23.08421495 3.5921788 34.81201172 4.52270508 C44.97460989 5.43656407 54.1062606 7.88094291 61.125 15.6875 C68.04223455 24.88595019 69.26806523 34.47117245 68.125 45.6875 C66.17261912 54.26244559 61.42710128 60.70625412 54.125 65.5 C45.31902233 70.87531554 35.22597261 71.36513312 25.37207031 69.03710938 C17.14133651 66.69174846 9.13439813 63.68706935 1.125 60.6875 C-0.44627375 60.10298617 -2.01756348 59.51851532 -3.58886719 58.93408203 C-19.24046227 53.09484349 -34.91428776 47.2172243 -50.1875 40.4375 C-50.97439209 40.09138672 -51.76128418 39.74527344 -52.57202148 39.38867188 C-56.02579727 37.8014661 -57.72073078 36.91890382 -59.875 33.6875 C-60.53253425 26.78339041 -60.53253425 26.78339041 -58.375 23.1875 C-54.91547677 21.11178606 -51.77612451 21.26241648 -47.875 21.6875 C-44.9793355 22.46437608 -42.27971375 23.57711318 -39.52734375 24.7578125 C-38.75298477 25.07652313 -37.97862579 25.39523376 -37.18080139 25.72360229 C-34.71902814 26.74015843 -32.26580889 27.77570654 -29.8125 28.8125 C-28.19390382 29.48568555 -26.57476634 30.15757114 -24.95507812 30.828125 C-21.78517005 32.14172855 -18.6180729 33.46179362 -15.45263672 34.78613281 C-8.95692153 37.49530999 -2.41859347 40.09644955 4.125 42.6875 C4.08185669 41.33567627 4.08185669 41.33567627 4.0378418 39.95654297 C3.80131275 32.54529965 4.77785517 26.68571385 7.125 19.6875 C6.30821777 19.55174561 5.49143555 19.41599121 4.64990234 19.27612305 C1.59580642 18.76378252 -1.45665657 18.24279591 -4.50830078 17.71606445 C-6.469256 17.38026469 -8.43188898 17.05431031 -10.39453125 16.72851562 C-11.63847656 16.51259766 -12.88242188 16.29667969 -14.1640625 16.07421875 C-15.30568848 15.88045654 -16.44731445 15.68669434 -17.62353516 15.48706055 C-21.06307956 14.64124977 -23.81758868 13.46698907 -26.875 11.6875 C-28.48182055 8.4738589 -28.33650508 5.17289659 -27.875 1.6875 C-23.2237701 -6.76928164 -7.52718971 -1.37985406 0 0 Z M22.75 29.3125 C20.54592107 33.89020239 20.3278361 37.69302411 21.125 42.6875 C23.45468931 47.52608548 26.28641452 50.35781069 31.125 52.6875 C36.11947589 53.4846639 39.92229761 53.26657893 44.5 51.0625 C48.08407713 47.81976355 50.72035241 45.22274104 51.5078125 40.2890625 C51.76383919 34.60527006 51.06126932 31.03811345 47.125 26.6875 C42.77438655 22.75123068 39.20722994 22.04866081 33.5234375 22.3046875 C28.58975896 23.09214759 25.99273645 25.72842287 22.75 29.3125 Z " fill="#464747" transform="translate(259.875,258.3125)"/>
<path d="M0 0 C3.23654448 1.7130711 5.97529497 3.94802082 8.8125 6.25 C10.47894864 7.54049967 12.1496467 8.82552777 13.82421875 10.10546875 C14.6754834 10.75692871 15.52674805 11.40838867 16.40380859 12.07958984 C20.51235264 15.11869154 24.79213081 17.85666916 29.125 20.5625 C30.25965698 21.2755127 30.25965698 21.2755127 31.41723633 22.00292969 C41.91334949 28.64007959 41.91334949 28.64007959 53.5 32.875 C62.33450262 35.45517016 68.34626476 39.97413344 73.02734375 47.91015625 C76.94454797 56.3266392 77.36791329 65.99206267 75.3125 75.01953125 C72.07965293 83.78862892 66.36588068 89.89395195 58 94 C49.68445171 97.34736054 38.90104268 97.49520007 30.4375 94.375 C26.11552008 92.32736146 22.14158643 89.64091142 19 86 C19 85.34 19 84.68 19 84 C18.41226807 83.72615479 17.82453613 83.45230957 17.21899414 83.17016602 C15.06983884 82.03682887 13.36780396 80.81797131 11.49609375 79.27734375 C10.84310303 78.74310791 10.1901123 78.20887207 9.51733398 77.65844727 C8.83098877 77.09053467 8.14464355 76.52262207 7.4375 75.9375 C6.37221069 75.06339478 6.37221069 75.06339478 5.28540039 74.17163086 C3.85439835 72.9971063 2.4246118 71.82109915 0.99609375 70.64355469 C-0.74818799 69.20733836 -2.4970734 67.77720217 -4.25 66.3515625 C-18.70769906 54.58460187 -18.70769906 54.58460187 -20 52 C-20.56872038 44.9478673 -20.56872038 44.9478673 -18.5 41.5 C-15.75211529 39.85126917 -13.56829742 39.13275003 -10.33984375 39.2890625 C-5.00760653 40.90920803 -1.0298924 45.31419393 3 49 C4.56047118 50.35650408 6.12271772 51.71097123 7.6875 53.0625 C8.7933256 54.03979276 9.89820211 55.01816865 11 56 C12.53161656 53.70257517 13.62126589 51.7252941 14.75 49.25 C16.87439797 44.90464052 19.70744251 41.51206133 23 38 C22.175 37.48953125 21.35 36.9790625 20.5 36.453125 C13.61603201 32.14018037 6.94538573 27.61426622 0.4375 22.75 C-0.56120117 22.0079834 -0.56120117 22.0079834 -1.58007812 21.25097656 C-11.46688392 13.77815736 -11.46688392 13.77815736 -12.62890625 9.90234375 C-12.5184812 6.63506136 -12.18959029 4.31598381 -10.5 1.5 C-6.99872565 -0.60076461 -3.92669229 -0.76735361 0 0 Z M30.625 55.625 C28.46340909 60.11445804 28.30328167 64.09056616 29 69 C30.86374082 73.86743961 34.44719361 76.65553159 39 79 C44.01295548 80.03344005 47.7737877 79.59039851 52.375 77.375 C55.95907713 74.13226355 58.59535241 71.53524104 59.3828125 66.6015625 C59.63883919 60.91777006 58.93626932 57.35061345 55 53 C50.64938655 49.06373068 47.08222994 48.36116081 41.3984375 48.6171875 C36.46475896 49.40464759 33.86773645 52.04092287 30.625 55.625 Z " fill="#454646" transform="translate(340,392)"/>
<path d="M0 0 C1.21494141 0.32484375 2.42988281 0.6496875 3.68164062 0.984375 C6.1068452 1.61939397 8.53261824 2.25224631 10.95898438 2.8828125 C12.11285645 3.18388916 13.26672852 3.48496582 14.45556641 3.79516602 C18.16171879 4.71276202 21.87613181 5.46283927 25.63598633 6.12231445 C33.46390946 7.93085026 40.13437122 12.87375857 44.49414062 19.546875 C49.80547819 28.16894632 50.27360683 38.89188989 48.05664062 48.62890625 C44.82379356 57.39800392 39.1100213 63.50332695 30.74414062 67.609375 C16.36248093 73.14269082 2.22115557 68.2981318 -11.69335938 63.796875 C-13.57707395 63.20427814 -15.46127745 62.61323341 -17.34594727 62.02368164 C-22.08344315 60.534412 -26.81084295 59.015574 -31.53564453 57.48657227 C-34.1534141 56.64241089 -36.77413972 55.8083427 -39.39648438 54.97851562 C-43.28565262 53.7474503 -47.17001953 52.50257317 -51.04983521 51.24234009 C-52.46786312 50.78226181 -53.8868608 50.32516083 -55.30685425 49.8711853 C-57.26168867 49.24305077 -59.21042164 48.59884368 -61.15820312 47.94921875 C-62.24609131 47.59206787 -63.33397949 47.23491699 -64.45483398 46.86694336 C-67.4649495 45.51550041 -69.15138559 44.12995428 -71.25585938 41.609375 C-72.27701743 37.76501528 -71.78328697 34.52664038 -69.81835938 31.109375 C-65.44412213 28.54884588 -60.65242379 29.07501734 -55.79220581 30.15869141 C-53.15935709 30.93198148 -50.56670107 31.7827559 -47.97070312 32.671875 C-47.02900772 32.98261963 -46.08731232 33.29336426 -45.11708069 33.61352539 C-42.13818756 34.59967589 -39.16586744 35.60416274 -36.19335938 36.609375 C-34.16316791 37.28507973 -32.13257224 37.95957129 -30.1015625 38.6328125 C-25.14823434 40.27766713 -20.20015633 41.93758204 -15.25585938 43.609375 C-15.27688721 42.66400879 -15.29791504 41.71864258 -15.31958008 40.74462891 C-15.33593506 39.49601074 -15.35229004 38.24739258 -15.36914062 36.9609375 C-15.39016846 35.72682129 -15.41119629 34.49270508 -15.43286133 33.22119141 C-15.0964307 26.35615038 -12.46286494 20.93744509 -8.25585938 15.609375 C-9.45210938 15.50625 -10.64835937 15.403125 -11.88085938 15.296875 C-15.82513666 14.80646752 -18.83094105 13.69773983 -22.25585938 11.609375 C-23.86137075 8.39835226 -23.72393159 5.09238292 -23.25585938 1.609375 C-18.74301421 -6.23905138 -7.02683499 -1.81288534 0 0 Z M3.36914062 29.234375 C1.16879049 33.80433297 0.9332453 37.62236872 1.74414062 42.609375 C4.35734901 47.74246291 7.28351303 50.7891658 12.74414062 52.609375 C17.37936849 53.14794433 20.82320408 53.06115519 25.05664062 50.984375 C28.69756739 47.76681181 31.33549473 45.16966664 32.12695312 40.2109375 C32.38297981 34.52714506 31.68040994 30.95998845 27.74414062 26.609375 C23.39352717 22.67310568 19.82637057 21.97053581 14.14257812 22.2265625 C9.20889959 23.01402259 6.61187708 25.65029787 3.36914062 29.234375 Z " fill="#464747" transform="translate(447.255859375,362.390625)"/>
<path d="M0 0 C1.00850006 -0.01260864 2.01700012 -0.02521729 3.05606079 -0.03820801 C4.14148163 -0.03011108 5.22690247 -0.02201416 6.34521484 -0.01367188 C7.47003265 -0.01749878 8.59485046 -0.02132568 9.75375366 -0.02526855 C12.13597507 -0.02799088 14.51822621 -0.02060742 16.90039062 -0.00390625 C20.52201342 0.0173775 24.14162504 -0.00363656 27.76318359 -0.02929688 C30.08219835 -0.02665131 32.40121186 -0.02152163 34.72021484 -0.01367188 C35.7934903 -0.0217688 36.86676575 -0.02986572 37.9725647 -0.03820801 C47.3385641 0.07673363 55.43362193 2.3082101 62.39990234 8.81445312 C69.79356525 17.03801697 71.51305301 25.75203447 71.24365234 36.52929688 C70.769326 44.91499143 67.15645711 51.92051512 60.93115234 57.51757812 C50.22258298 65.57042228 38.70459608 65.61077954 25.88720703 63.90185547 C21.42302109 63.24320252 16.97848743 62.48604261 12.53662109 61.69165039 C9.77765112 61.19999918 7.01521364 60.7334845 4.25146484 60.26953125 C2.47516978 59.96174528 0.69911781 59.65255232 -1.07666016 59.34179688 C-1.89232452 59.20416428 -2.70798889 59.06653168 -3.54837036 58.92472839 C-8.15778629 58.08578269 -12.00107111 56.97563993 -16.06884766 54.51757812 C-17.67698031 51.30131281 -17.5237738 48.00534526 -17.06884766 44.51757812 C-15.75634766 42.01757812 -15.75634766 42.01757812 -13.06884766 40.51757812 C-5.92516265 39.59657411 0.99493312 40.83242291 7.93115234 42.51757812 C7.60115234 41.85757813 7.27115234 41.19757813 6.93115234 40.51757812 C6.42835375 32.06669404 6.06732431 24.24523419 9.93115234 16.51757812 C8.89474609 16.56398438 7.85833984 16.61039062 6.79052734 16.65820312 C5.42076456 16.69573087 4.05097052 16.73212997 2.68115234 16.76757812 C1.65828125 16.81785156 1.65828125 16.81785156 0.61474609 16.86914062 C-2.80571105 16.93555727 -4.71323797 16.7735265 -7.52197266 14.75195312 C-9.14781512 12.40351402 -9.61284526 11.33342503 -9.56884766 8.51757812 C-9.57916016 7.85757812 -9.58947266 7.19757813 -9.60009766 6.51757812 C-8.28662222 1.57272944 -4.76864168 0.0171528 0 0 Z M25.55615234 24.14257812 C23.35207341 28.72028052 23.13398844 32.52310223 23.93115234 37.51757812 C26.26084165 42.35616361 29.09256686 45.18788882 33.93115234 47.51757812 C38.92562824 48.31474203 42.72844995 48.09665706 47.30615234 45.89257812 C50.89022948 42.64984167 53.52650475 40.05281916 54.31396484 35.11914062 C54.56999153 29.43534818 53.86742166 25.86819158 49.93115234 21.51757812 C45.58053889 17.58130881 42.01338228 16.87873894 36.32958984 17.13476562 C31.39591131 17.92222572 28.7988888 20.55850099 25.55615234 24.14257812 Z " fill="#454747" transform="translate(433.06884765625,271.482421875)"/>
</svg>
