<?xml version="1.0" encoding="UTF-8"?>
<svg version="1.1" xmlns="http://www.w3.org/2000/svg" width="512" height="512">
<path d="M0 0 C0.87809759 -0.00445784 1.75619518 -0.00891569 2.66090178 -0.01350862 C4.11680264 -0.01323207 4.11680264 -0.01323207 5.60211563 -0.01294994 C7.14191161 -0.01846498 7.14191161 -0.01846498 8.71281457 -0.02409142 C12.17512643 -0.03516219 15.63740832 -0.03897783 19.09973526 -0.04278088 C21.57302319 -0.04904293 24.04631016 -0.0556895 26.5195961 -0.0626936 C33.95823169 -0.08194624 41.39685932 -0.09252553 48.83551252 -0.10142139 C52.33736788 -0.10580302 55.83922173 -0.11117017 59.3410759 -0.11641026 C70.98025956 -0.13342375 82.61944228 -0.14791815 94.25863647 -0.155159 C97.27988817 -0.15706893 100.30113985 -0.15898926 103.32239151 -0.16094494 C104.07332157 -0.16142868 104.82425162 -0.16191242 105.59793714 -0.16241082 C117.76380646 -0.17071195 129.92957749 -0.19604969 142.09540388 -0.22852562 C154.58213518 -0.26158676 167.06881651 -0.27960692 179.55559182 -0.28280324 C186.56794468 -0.28496927 193.58015421 -0.2937313 200.59246445 -0.31926441 C207.18831789 -0.34322543 213.78395955 -0.34680302 220.37986374 -0.33650303 C222.8026401 -0.33600607 225.2254289 -0.34237332 227.64816666 -0.35605907 C230.9524645 -0.37368227 234.25582588 -0.36671829 237.56012344 -0.35352612 C238.52180113 -0.36449536 239.48347881 -0.37546461 240.47429824 -0.38676625 C247.30025357 -0.32084514 250.37956925 1.13463985 255.52258682 5.59906483 C262.24467935 13.14141269 265.4928357 22.47710229 267.83508682 32.13422108 C269.05395584 32.12533863 270.27282486 32.11645618 271.5286293 32.10730457 C283.00592455 32.02627675 294.4831619 31.96628347 305.9606781 31.92697239 C311.86164378 31.90608283 317.76237887 31.87773976 323.66321182 31.83246326 C329.35607805 31.789055 335.04872225 31.76509429 340.74174118 31.7547121 C342.91551841 31.74731176 345.08928325 31.73286089 347.26296616 31.71130085 C350.30387669 31.68233409 353.34386558 31.67826232 356.38489151 31.68011951 C357.28688278 31.66573841 358.18887405 31.65135731 359.11819839 31.63654041 C365.16847967 31.67661871 365.16847967 31.67661871 368.42572403 33.91260242 C369.83508682 36.13422108 369.83508682 36.13422108 369.83508682 40.13422108 C370.77833817 40.12533863 371.72158951 40.11645618 372.69342422 40.10730457 C381.58066143 40.02623417 390.46782366 39.96626321 399.35534668 39.92697239 C403.92459646 39.90609343 408.49354785 39.87777036 413.06262589 39.83246326 C417.47169555 39.78901619 421.88047813 39.7650863 426.28974533 39.7547121 C427.97230169 39.74731865 429.65484225 39.73288091 431.33727646 39.71130085 C433.69333783 39.68228105 436.04821155 39.67826433 438.40442276 39.68011951 C439.4488353 39.65854786 439.4488353 39.65854786 440.51434708 39.63654041 C443.80919063 39.66463024 445.57679421 39.94576671 448.26715469 41.90869617 C449.94452835 44.28956252 450.33944204 45.33120057 450.35266495 48.19672108 C450.36527359 48.98433826 450.37788223 49.77195545 450.39087296 50.58343983 C450.37872757 51.84607655 450.37872757 51.84607655 450.36633682 53.13422108 C450.37016373 54.00691639 450.37399063 54.8796117 450.3779335 55.77875233 C450.38065172 57.621212 450.37329677 59.46371032 450.3565712 61.30609608 C450.3351593 64.12468041 450.35637483 66.94071592 450.38196182 69.75922108 C450.37931853 71.55089336 450.37419352 73.34256407 450.36633682 75.13422108 C450.37443375 75.97597889 450.38253067 76.8177367 450.39087296 77.68500233 C450.33186527 81.37100334 450.22795698 83.5209661 448.20911026 86.67230701 C445.07285399 88.60360098 442.99107222 88.59160263 439.31946182 88.52484608 C438.0690712 88.51195545 436.81868057 88.49906483 435.53039932 88.48578358 C434.2284462 88.45226795 432.92649307 88.41875233 431.58508682 88.38422108 C430.26766495 88.3661742 428.95024307 88.34812733 427.59289932 88.32953358 C424.33956375 88.28238379 421.08769057 88.21658151 417.83508682 88.13422108 C417.85603409 88.71913319 417.87698135 89.3040453 417.89856339 89.90668201 C417.98188798 92.56568573 418.03379579 95.22441463 418.08508682 97.88422108 C418.11860245 98.8046117 418.15211807 99.72500233 418.18664932 100.67328358 C418.24255012 104.53043835 418.26831386 107.30715128 416.46008682 110.75922108 C412.28103808 112.94824661 408.21912897 112.55296771 403.58508682 112.38422108 C402.64922745 112.3661742 401.71336807 112.34812733 400.74914932 112.32953358 C398.44341667 112.28247781 396.13977737 112.2167582 393.83508682 112.13422108 C393.85603409 112.96147694 393.87698135 113.7887328 393.89856339 114.64105701 C393.98170302 118.38865478 394.03374213 122.13605857 394.08508682 125.88422108 C394.11860245 127.1861742 394.15211807 128.48812733 394.18664932 129.82953358 C394.19953995 131.0799242 394.21243057 132.33031483 394.22571182 133.61859608 C394.24665909 134.77069569 394.26760635 135.9227953 394.28918839 137.10980701 C393.72648596 140.85752617 392.75214161 141.79024878 389.83508682 144.13422108 C387.43757629 144.62641239 387.43757629 144.62641239 384.72247696 144.61523914 C383.69045151 144.6207378 382.65842606 144.62623646 381.59512711 144.63190174 C379.90551361 144.61033009 379.90551361 144.61033009 378.18176651 144.58832264 C376.39598694 144.5891988 376.39598694 144.5891988 374.57413101 144.59009266 C371.3138663 144.58778434 368.05428946 144.56773277 364.7941618 144.53979683 C361.38557236 144.51478162 357.97696922 144.5124411 354.56830215 144.5076952 C348.1155159 144.49526569 341.6630009 144.4624447 335.21033406 144.42229724 C327.86338196 144.37757852 320.51641687 144.35559229 313.16936255 144.3355155 C298.05778619 144.29371184 282.94646364 144.22336055 267.83508682 144.13422108 C267.63642517 144.88568409 267.43776352 145.6371471 267.23308182 146.41138172 C266.83630989 147.89308857 266.83630989 147.89308857 266.43152237 149.40472889 C266.17098572 150.3830669 265.91044907 151.36140491 265.64201736 152.36938953 C262.92381091 161.68293332 257.84061425 169.61316768 249.83508682 175.13422108 C247.53172769 176.28590065 246.23239762 176.26242417 243.67017365 176.26844215 C242.79207606 176.2729 241.91397847 176.27735784 241.00927186 176.28195077 C240.03867129 176.28176641 239.06807072 176.28158205 238.06805801 176.2813921 C237.04152736 176.28506879 236.01499671 176.28874547 234.95735908 176.29253358 C231.49504721 176.30360435 228.03276533 176.30741999 224.57043839 176.31122303 C222.09715046 176.31748509 219.62386348 176.32413166 217.15057755 176.33113575 C209.71194195 176.35038839 202.27331432 176.36096768 194.83466113 176.36986354 C191.33280576 176.37424518 187.83095191 176.37961233 184.32909775 176.38485241 C172.68991408 176.40186591 161.05073136 176.41636031 149.41153717 176.42360115 C146.39028548 176.42551109 143.3690338 176.42743141 140.34778214 176.42938709 C139.22138705 176.4301127 139.22138705 176.4301127 138.07223651 176.43085297 C125.90636718 176.4391541 113.74059616 176.46449184 101.57476977 176.49696777 C89.08803846 176.53002891 76.60135713 176.54804907 64.11458182 176.55124539 C57.10222897 176.55341142 50.09001943 176.56217345 43.0777092 176.58770657 C36.48185575 176.61166758 29.8862141 176.61524517 23.29030991 176.60494518 C20.86753355 176.60444822 18.44474474 176.61081548 16.02200699 176.62450123 C12.71770914 176.64212442 9.41434777 176.63516045 6.1100502 176.62196827 C5.14837252 176.63293752 4.18669484 176.64390676 3.19587541 176.65520841 C-3.63007992 176.5892873 -6.70939561 175.1338023 -11.85241318 170.66937733 C-29.63100572 150.72137319 -30.72168914 116.20196133 -30.55602646 91.02972889 C-30.53991414 88.13439344 -30.55601501 85.24045302 -30.57506943 82.34515858 C-30.60264535 58.03499895 -29.00525226 24.90458669 -11.94225693 5.62250233 C-8.06882232 2.15679768 -5.26588104 0.01236815 0 0 Z M-0.63079834 18.50358772 C-5.65974751 27.12701089 -10.16491318 38.02129923 -10.16491318 48.13422108 C25.47508682 48.13422108 61.11508682 48.13422108 97.83508682 48.13422108 C97.83508682 53.41422108 97.83508682 58.69422108 97.83508682 64.13422108 C61.53508682 64.13422108 25.23508682 64.13422108 -12.16491318 64.13422108 C-13.3241181 66.45263092 -13.29164606 67.78861239 -13.29430771 70.36859608 C-13.29745987 71.24290272 -13.30061203 72.11720936 -13.30385971 73.01801014 C-13.30183548 73.96385975 -13.29981125 74.90970936 -13.29772568 75.88422108 C-13.2986824 76.85327381 -13.29963913 77.82232655 -13.30062485 78.82074451 C-13.30130607 80.87185194 -13.29945579 82.92296153 -13.29528427 84.97406483 C-13.28993522 88.1212493 -13.29523122 91.26829106 -13.30163193 94.41547108 C-13.30097114 96.40505473 -13.29968995 98.39463829 -13.29772568 100.38422108 C-13.29974991 101.33007069 -13.30177414 102.2759203 -13.30385971 103.25043201 C-13.30070755 104.12473866 -13.29755539 104.9990453 -13.29430771 105.89984608 C-13.29351212 106.67102772 -13.29271652 107.44220936 -13.29189682 108.23676014 C-13.28177288 110.22257783 -13.28177288 110.22257783 -12.16491318 112.13422108 C3.01508682 112.13422108 18.19508682 112.13422108 33.83508682 112.13422108 C33.83508682 117.41422108 33.83508682 122.69422108 33.83508682 128.13422108 C19.31508682 128.13422108 4.79508682 128.13422108 -10.16491318 128.13422108 C-8.50381897 137.50865125 -8.50381897 137.50865125 -5.85241318 146.38422108 C-5.46440536 147.50312733 -5.07639755 148.62203358 -4.67663193 149.77484608 C-2.92147903 153.67518584 -1.33176557 157.18784093 1.83508682 160.13422108 C4.82099097 161.13890745 7.66078809 161.05179127 10.78841019 160.97600269 C11.69106383 160.98198367 12.59371747 160.98796464 13.52372426 160.99412686 C16.54948009 161.00566086 19.57252076 160.96715695 22.59802628 160.92889881 C24.76622325 160.92692438 26.93442492 160.92803245 29.10261917 160.93199635 C34.9909741 160.93400711 40.87833355 160.89281469 46.76645684 160.84397864 C52.91901765 160.80025829 59.07160057 160.79611056 65.22429276 160.78780079 C76.87619991 160.7660326 88.52764804 160.70857347 100.17935294 160.63835436 C113.44396421 160.5601481 126.70859726 160.52163365 139.97338164 160.48648632 C167.26087132 160.41329241 194.54795337 160.29014538 221.83508682 160.13422108 C221.41850311 158.90445545 221.0019194 157.67468983 220.57271194 156.40765858 C220.0230684 154.77489285 219.47357154 153.14207773 218.92419815 151.50922108 C218.64997276 150.70097889 218.37574738 149.8927367 218.09321213 149.06000233 C216.10791785 143.14553654 214.56188398 137.29119477 213.52258682 131.13422108 C213.28958878 129.87931873 213.28958878 129.87931873 213.0518837 128.59906483 C211.39141545 119.37740854 210.67689748 110.23203642 210.63196182 100.86859608 C210.62626175 99.9139043 210.62056168 98.95921253 210.61468887 97.97559071 C210.60530041 95.96207228 210.5987296 93.94853891 210.59485245 91.93500233 C210.58524427 88.93340756 210.55420164 85.93252799 210.52258682 82.93109608 C210.40470405 61.52723584 212.789922 40.13871156 220.38208389 19.99026966 C220.65373619 19.26855265 220.92538849 18.54683563 221.20527267 17.80324841 C221.41311134 17.25246939 221.62095001 16.70169037 221.83508682 16.13422108 C193.21978309 16.01752081 164.60451491 15.92929807 135.9890213 15.87516022 C122.70291663 15.8493571 109.41699367 15.81416622 96.13098526 15.75702381 C84.55355284 15.70725355 72.97622736 15.6749454 61.39869094 15.6637786 C55.26602937 15.6572491 49.13367377 15.64185882 43.00111008 15.60557079 C37.23257076 15.57171234 31.46446436 15.5611477 25.69583511 15.56868267 C23.57536596 15.56730359 21.45488279 15.55731108 19.33449936 15.5381937 C16.44518112 15.51341461 13.55750986 15.51926066 10.66815567 15.53294849 C9.82379841 15.51838429 8.97944115 15.50382008 8.10949731 15.48881453 C4.13812621 15.53987406 2.28684294 15.70014739 -0.63079834 18.50358772 Z M240.83508682 17.13422108 C239.5323737 18.67819375 239.5323737 18.67819375 238.33508682 20.69672108 C237.70086807 21.68865467 237.70086807 21.68865467 237.05383682 22.70062733 C235.41638176 25.78296166 235.41638176 25.78296166 233.83508682 32.13422108 C239.11508682 32.13422108 244.39508682 32.13422108 249.83508682 32.13422108 C248.93789932 29.53547108 248.93789932 29.53547108 248.02258682 26.88422108 C247.68614151 25.90968983 247.3496962 24.93515858 247.00305557 23.93109608 C245.88399382 21.25133615 244.78210515 19.2805405 242.83508682 17.13422108 C242.17508682 17.13422108 241.51508682 17.13422108 240.83508682 17.13422108 Z M229.83508682 48.13422108 C228.0717997 54.52637615 228.0717997 54.52637615 227.71008682 60.63422108 C227.75133682 61.78922108 227.79258682 62.94422108 227.83508682 64.13422108 C232.45508682 64.13422108 237.07508682 64.13422108 241.83508682 64.13422108 C241.83508682 69.41422108 241.83508682 74.69422108 241.83508682 80.13422108 C236.88508682 80.13422108 231.93508682 80.13422108 226.83508682 80.13422108 C226.64946182 81.84609608 226.46383682 83.55797108 226.27258682 85.32172108 C226.16817276 86.28465076 226.0637587 87.24758045 225.95618057 88.23968983 C225.70487121 91.50984759 225.70487121 91.50984759 226.83508682 96.13422108 C284.25508682 96.13422108 341.67508682 96.13422108 400.83508682 96.13422108 C400.83508682 90.85422108 400.83508682 85.57422108 400.83508682 80.13422108 C353.31508682 80.13422108 305.79508682 80.13422108 256.83508682 80.13422108 C256.83508682 74.85422108 256.83508682 69.57422108 256.83508682 64.13422108 C288.51508682 64.13422108 320.19508682 64.13422108 352.83508682 64.13422108 C352.83508682 58.85422108 352.83508682 53.57422108 352.83508682 48.13422108 C312.24508682 48.13422108 271.65508682 48.13422108 229.83508682 48.13422108 Z M369.83508682 56.13422108 C369.83508682 58.77422108 369.83508682 61.41422108 369.83508682 64.13422108 C371.152267 64.1488036 372.46944717 64.16338612 373.8265419 64.17841053 C378.7076792 64.23632821 383.588352 64.31356143 388.46912003 64.39667225 C390.58265018 64.42995235 392.69626988 64.4579746 394.80994034 64.48065662 C397.84605488 64.5141458 400.88134657 64.56645872 403.91711807 64.62250233 C404.86408051 64.62889225 405.81104294 64.63528217 406.7867012 64.64186573 C407.6673877 64.66165989 408.54807419 64.68145405 409.45544815 64.70184803 C410.23044159 64.71295109 411.00543503 64.72405415 411.80391312 64.73549366 C414.40247774 65.24560215 415.25929629 66.02752639 416.83508682 68.13422108 C417.33008682 70.11422108 417.33008682 70.11422108 417.83508682 72.13422108 C422.78508682 72.13422108 427.73508682 72.13422108 432.83508682 72.13422108 C432.83508682 66.85422108 432.83508682 61.57422108 432.83508682 56.13422108 C412.04508682 56.13422108 391.25508682 56.13422108 369.83508682 56.13422108 Z M227.83508682 112.13422108 C227.82470709 120.41110994 227.82470709 120.41110994 229.83508682 128.13422108 C278.67508682 128.13422108 327.51508682 128.13422108 377.83508682 128.13422108 C377.83508682 122.85422108 377.83508682 117.57422108 377.83508682 112.13422108 C328.33508682 112.13422108 278.83508682 112.13422108 227.83508682 112.13422108 Z M233.83508682 144.13422108 C235.56755671 149.85137171 237.27284371 154.34361827 240.83508682 159.13422108 C243.95487916 158.4465017 243.95487916 158.4465017 245.18664932 155.98968983 C245.81700089 154.6690453 245.81700089 154.6690453 246.46008682 153.32172108 C246.88547745 152.44902576 247.31086807 151.57633045 247.74914932 150.67718983 C248.9931878 147.94934332 248.9931878 147.94934332 249.83508682 144.13422108 C244.55508682 144.13422108 239.27508682 144.13422108 233.83508682 144.13422108 Z " fill="#000000" transform="translate(46.164913177490234,167.86577892303467)"/>
<path d="M0 0 C39.6 0 79.2 0 120 0 C120 5.28 120 10.56 120 16 C80.4 16 40.8 16 0 16 C0 10.72 0 5.44 0 0 Z " fill="#000000" transform="translate(112,248)"/>
<path d="M0 0 C5.28 0 10.56 0 16 0 C16 5.28 16 10.56 16 16 C10.72 16 5.44 16 0 16 C0 10.72 0 5.44 0 0 Z " fill="#000000" transform="translate(96,280)"/>
<path d="M0 0 C5.28 0 10.56 0 16 0 C16 5.28 16 10.56 16 16 C10.72 16 5.44 16 0 16 C0 10.72 0 5.44 0 0 Z " fill="#000000" transform="translate(80,248)"/>
<path d="M0 0 C5.28 0 10.56 0 16 0 C16 5.28 16 10.56 16 16 C10.72 16 5.44 16 0 16 C0 10.72 0 5.44 0 0 Z " fill="#000000" transform="translate(160,216)"/>
</svg>
