<?xml version="1.0" encoding="UTF-8"?>
<svg version="1.1" xmlns="http://www.w3.org/2000/svg" width="512" height="512">
<path d="M0 0 C1.01331642 -0.00623996 2.02663284 -0.01247993 3.07065582 -0.01890898 C6.47637492 -0.03490224 9.88138459 -0.02220956 13.28710938 -0.00964355 C15.72453226 -0.01506184 18.16195186 -0.02218283 20.59936523 -0.03088379 C26.53855182 -0.04725601 32.47755321 -0.04482345 38.4167347 -0.03323323 C43.24309067 -0.02420413 48.06938996 -0.02297262 52.89575195 -0.02732849 C53.58234469 -0.02794142 54.26893743 -0.02855436 54.976336 -0.02918586 C56.37108296 -0.03046475 57.7658299 -0.0317616 59.16057682 -0.03307623 C72.24288806 -0.04448575 85.32508724 -0.03136253 98.4073801 -0.00987476 C109.63557516 0.0079966 120.86360481 0.00489259 132.09179688 -0.0135498 C145.12689692 -0.03495 158.1618987 -0.04338708 171.19701385 -0.03110075 C172.58666482 -0.02982654 173.9763158 -0.02856905 175.3659668 -0.02732849 C176.04972334 -0.02671139 176.73347989 -0.02609429 177.43795633 -0.02545848 C182.25919863 -0.02200302 187.08037867 -0.02783814 191.90161133 -0.0372467 C198.38917798 -0.04962865 204.87650539 -0.04082857 211.36404419 -0.01766968 C213.74894693 -0.01236815 216.13387591 -0.01392087 218.51876831 -0.02272034 C221.76677765 -0.033602 225.01377446 -0.02000071 228.26171875 0 C229.68758175 -0.01338433 229.68758175 -0.01338433 231.14225006 -0.02703905 C237.50949136 0.04935638 237.50949136 0.04935638 240.71447754 2.41468048 C242.24434825 4.67565844 242.67312141 5.8031641 242.63085938 8.50793457 C242.64632812 9.49793457 242.64632812 9.49793457 242.66210938 10.50793457 C241.87809088 13.45953361 240.49737144 14.60583197 238.13085938 16.50793457 C235.18218994 16.98895264 235.18218994 16.98895264 231.70996094 16.96203613 C229.75839081 16.96158295 229.75839081 16.96158295 227.76739502 16.96112061 C226.35208522 16.94069543 224.9367817 16.91983147 223.52148438 16.89855957 C222.06989318 16.89109602 220.61829189 16.88540362 219.16668701 16.88140869 C215.3523968 16.866161 211.53871916 16.82688766 207.72467041 16.78259277 C203.83020311 16.7416208 199.93563649 16.72339363 196.04101562 16.70324707 C188.40401809 16.6603917 180.76752467 16.59215197 173.13085938 16.50793457 C173.4624556 17.81552734 173.4624556 17.81552734 173.80075073 19.14953613 C175.8899546 27.38805302 177.9790292 35.62660266 180.06796074 43.8651886 C181.14175342 48.10012575 182.21559505 52.33505048 183.28955078 56.56994629 C184.32709409 60.66126583 185.36450589 64.7526187 186.40182877 68.84399414 C186.796463 70.40040256 187.19114361 71.95679922 187.58587265 73.51318359 C188.14119502 75.7028085 188.69634842 77.89247619 189.25146484 80.08215332 C189.72445511 81.94746704 189.72445511 81.94746704 190.20700073 83.85046387 C191.1881265 87.73464979 192.1592171 91.62136547 193.13085938 95.50793457 C216.23085938 95.83793457 239.33085937 96.16793457 263.13085938 96.50793457 C260.82085937 87.59793457 258.51085937 78.68793457 256.13085938 69.50793457 C256.13085938 60.50793457 256.13085938 60.50793457 257.63085938 57.94543457 C261.04812476 55.98050698 264.28649965 55.48677652 268.13085938 56.50793457 C272.33553153 59.76162409 273.31472435 63.5836768 274.49023438 68.55480957 C274.66312988 69.23881836 274.83602539 69.92282715 275.01416016 70.62756348 C275.65174615 73.16721537 276.26488015 75.71295574 276.88085938 78.25793457 C278.28335937 83.95043457 279.68585938 89.64293457 281.13085938 95.50793457 C301.59085937 95.83793457 322.05085938 96.16793457 343.13085938 96.50793457 C342.80085938 95.51793457 342.47085937 94.52793457 342.13085938 93.50793457 C341.65122529 89.23840493 341.42488892 85.71396743 343.63085938 81.94543457 C347.04812476 79.98050698 350.28649965 79.48677652 354.13085938 80.50793457 C357.73550478 83.32324156 358.83562651 85.86795653 359.88085938 90.25793457 C360.12320312 91.24277832 360.36554688 92.22762207 360.61523438 93.24230957 C360.78539062 93.98996582 360.95554687 94.73762207 361.13085938 95.50793457 C362.02289063 95.53371582 362.91492188 95.55949707 363.83398438 95.58605957 C365.5896875 95.6711377 365.5896875 95.6711377 367.38085938 95.75793457 C369.12109375 95.82754395 369.12109375 95.82754395 370.89648438 95.89855957 C374.65787796 96.60722793 375.89312913 97.44463394 378.13085938 100.50793457 C379.15201743 104.35229429 378.65828697 107.59066919 376.69335938 111.00793457 C373.85363728 112.67021092 372.68409929 112.67110087 369.47070312 112.60168457 C368.25241821 112.58138184 368.25241821 112.58138184 367.00952148 112.56066895 C366.38956299 112.5432666 365.76960449 112.52586426 365.13085938 112.50793457 C365.34970291 113.37078064 365.56854645 114.23362671 365.79402161 115.12261963 C367.8682667 123.30100831 369.94231493 131.47944688 372.01614857 139.65793991 C373.08202963 143.86138312 374.14798366 148.0648078 375.21411133 152.26818848 C376.24523592 156.33357562 377.27615987 160.3990136 378.30695152 164.46448517 C378.69794428 166.00642922 379.08900627 167.54835572 379.48014259 169.09026337 C379.66706861 169.82716652 379.85399464 170.56406967 380.04658508 171.32330322 C380.22910167 172.04282291 380.41161825 172.76234261 380.59966564 173.50366592 C381.12282436 175.56839758 381.64434117 177.63353866 382.16567993 179.69873047 C382.78586495 182.14636995 383.4118261 184.5925571 384.04501343 187.03686523 C384.31657257 188.09369507 384.58813171 189.1505249 384.86791992 190.23937988 C385.10310837 191.14440247 385.33829681 192.04942505 385.58061218 192.98187256 C386.39882067 196.73808505 387.09523807 200.74154219 386.13085938 204.50793457 C383.9002179 207.40178125 382.73168052 208.41108677 379.07741928 209.00012589 C377.87171406 208.99643871 376.66600883 208.99275154 375.42376709 208.98895264 C374.7506468 208.99237034 374.07752652 208.99578804 373.38400865 208.9993093 C371.12959527 209.00589549 368.87637388 208.98390197 366.62207031 208.96203613 C365.00573759 208.9609078 363.38940282 208.96154123 361.77307129 208.96380615 C357.38483902 208.96495481 352.99704322 208.94142112 348.60891247 208.91351032 C344.02317194 208.88852187 339.43742164 208.88615669 334.85162354 208.88140869 C326.16766496 208.86897139 317.48390757 208.83613958 308.80003762 208.79601073 C297.06562427 208.74296102 285.33115599 208.72135365 273.59665298 208.69800186 C255.10790439 208.6603787 236.61958037 208.58069298 218.13085938 208.50793457 C218.13085938 234.90793457 218.13085938 261.30793457 218.13085938 288.50793457 C224.53202148 288.4869873 230.93318359 288.46604004 237.52832031 288.44445801 C258.63475788 288.37829512 279.74119944 288.33383851 300.84771347 288.30068588 C313.6495059 288.28004409 326.45120022 288.25189251 339.25292969 288.20617676 C350.40846007 288.16635861 361.56391943 288.14051354 372.7195189 288.13158059 C378.62856986 288.12635736 384.53741757 288.11404712 390.4464035 288.08501434 C396.00478582 288.05792469 401.56288057 288.04947656 407.12132263 288.05550385 C409.16438101 288.05440072 411.20744872 288.04640867 413.25045013 288.03111267 C416.03449045 288.01128577 418.81743719 288.01596868 421.60150146 288.0269165 C422.41473114 288.01526514 423.22796081 288.00361377 424.06583381 287.99160933 C427.67883816 288.03015833 429.71403343 288.19028756 432.63074112 290.4129982 C434.2550935 292.68142928 434.67395941 293.7495322 434.63085938 296.50793457 C434.64117187 297.16793457 434.65148437 297.82793457 434.66210938 298.50793457 C433.86893841 301.49398999 432.5530209 302.60475604 430.13085938 304.50793457 C427.53783346 304.90031143 425.36892694 305.04624467 422.77819824 305.01129913 C422.03189683 305.0171129 421.28559542 305.02292666 420.51667881 305.0289166 C418.00168049 305.04358065 415.48764837 305.02960214 412.97265625 305.01586914 C411.15713754 305.02047554 409.34162256 305.02682669 407.52611542 305.03477812 C402.52608192 305.05153049 397.52635242 305.04319831 392.5263176 305.03083324 C387.13837334 305.02180918 381.75048257 305.03573931 376.36254883 305.04675293 C365.80320349 305.06457106 355.24397166 305.06068351 344.68462181 305.04910237 C336.1054122 305.04008126 327.52623447 305.03883831 318.94702148 305.04319763 C317.72755939 305.04381056 316.5080973 305.0444235 315.2516818 305.045055 C312.77463086 305.04633386 310.29757991 305.04763071 307.82052898 305.04894537 C284.57469307 305.06036082 261.32892018 305.04722233 238.0830946 305.0257439 C218.12242212 305.00787206 198.16184268 305.0109759 178.20117188 305.02941895 C155.04044308 305.05080862 131.87976958 305.05926209 108.71903229 305.04696989 C106.25092062 305.04569565 103.78280895 305.04443817 101.31469727 305.04319763 C99.49299869 305.04227198 99.49299869 305.04227198 97.63449812 305.04132763 C89.06222682 305.03786901 80.48999049 305.04371407 71.91772461 305.05311584 C61.47580634 305.06431608 51.03400839 305.06133744 40.59210396 305.03999287 C35.26101175 305.02945583 29.93012041 305.02540571 24.59902954 305.03858948 C19.72359116 305.05046437 14.84854078 305.04403221 9.97313786 305.02267927 C8.20469581 305.01819232 6.43622132 305.02052604 4.66779995 305.03018242 C2.27256733 305.0422633 -0.12131844 305.02995768 -2.51647949 305.01129913 C-3.21074004 305.0206638 -3.90500059 305.03002846 -4.62029934 305.0396769 C-7.97803996 304.98702878 -9.62049646 304.70330314 -12.29547882 302.60147429 C-14.00362717 300.32901879 -14.4129703 299.31303374 -14.36914062 296.50793457 C-14.37945313 295.84793457 -14.38976562 295.18793457 -14.40039062 294.50793457 C-13.61368128 291.54620526 -12.25194867 290.4104575 -9.86914062 288.50793457 C-6.81570053 288.01574326 -6.81570053 288.01574326 -3.16204834 288.0269165 C-2.48892805 288.0234988 -1.81580777 288.02008111 -1.1222899 288.01655984 C1.13212348 288.00997365 3.38534487 288.03196717 5.63964844 288.05383301 C7.25598116 288.05496134 8.87231593 288.05432791 10.48864746 288.05206299 C14.87687973 288.05091433 19.26467553 288.07444802 23.65280628 288.10235882 C28.23854681 288.12734727 32.82429711 288.12971245 37.41009521 288.13446045 C46.09405379 288.14689775 54.77781118 288.17972956 63.46168113 288.21985841 C75.19609448 288.27290812 86.93056276 288.29451549 98.66506577 288.31786728 C117.15381436 288.35549044 135.64213838 288.43517616 154.13085938 288.50793457 C154.13085938 262.10793457 154.13085938 235.70793457 154.13085938 208.50793457 C145.80351562 208.55434082 137.47617188 208.60074707 128.89648438 208.64855957 C122.95850181 208.67158966 117.0205527 208.69209581 111.08255386 208.70895004 C103.38599047 208.7311327 95.68960009 208.75931331 87.99316406 208.80969238 C81.24991116 208.85381111 74.50688423 208.87705702 67.76348114 208.88744354 C65.18779297 208.89484759 62.61211532 208.90930548 60.03650665 208.9308548 C56.43524332 208.95979341 52.83475889 208.96389442 49.23339844 208.96203613 C47.62794159 208.98360779 47.62794159 208.98360779 45.99005127 209.00561523 C38.85961237 208.96567003 38.85961237 208.96567003 35.56364441 206.89544678 C33.77891467 203.92147376 32.94031665 201.22498543 32.10375977 197.8536377 C31.93564285 197.19267593 31.76752594 196.53171417 31.59431458 195.85072327 C31.04232636 193.66665786 30.51042627 191.47821831 29.97851562 189.28918457 C29.59387272 187.75066942 29.20798116 186.21246597 28.82090759 184.67456055 C27.80266326 180.61477313 26.80133921 176.55099548 25.80352783 172.48614502 C24.80349799 168.42450536 23.78789652 164.36677081 22.7734375 160.30871582 C21.04930943 153.40319194 19.33722493 146.49476933 17.63215065 139.58451843 C16.12107335 133.46236014 14.59641961 127.34365011 13.06445312 121.22668457 C12.86070572 120.41276245 12.65695831 119.59884033 12.44703674 118.76025391 C12.00859605 117.00940938 11.56978437 115.25865775 11.13085938 113.50793457 C10.17211914 113.46958496 9.21337891 113.43123535 8.22558594 113.39172363 C-1.19463658 113.01491473 -1.19463658 113.01491473 -4.25976562 110.71105957 C-6.42855613 107.74213277 -6.4598568 105.98138517 -6.24023438 102.41418457 C-5.86914062 100.50793457 -5.86914062 100.50793457 -4.43164062 98.00793457 C-1.59191853 96.34565822 -0.42238054 96.34476827 2.79101562 96.41418457 C4.00930054 96.4344873 4.00930054 96.4344873 5.25219727 96.4552002 C5.87215576 96.47260254 6.49211426 96.49000488 7.13085938 96.50793457 C6.91201584 95.6450885 6.6931723 94.78224243 6.46769714 93.89324951 C4.39345205 85.71486083 2.31940382 77.53642226 0.24557018 69.35792923 C-0.82031088 65.15448602 -1.88626491 60.95106134 -2.95239258 56.74768066 C-3.98351717 52.68229352 -5.01444112 48.61685554 -6.04523277 44.55138397 C-6.43622553 43.00943992 -6.82728752 41.46751342 -7.21842384 39.92560577 C-7.40534986 39.18870262 -7.59227589 38.45179947 -7.78486633 37.69256592 C-7.96738292 36.97304623 -8.1498995 36.25352654 -8.33794689 35.51220322 C-8.86110561 33.44747157 -9.38262242 31.38233048 -9.90396118 29.31713867 C-10.5241462 26.86949919 -11.15010735 24.42331204 -11.78329468 21.97900391 C-12.05485382 20.92217407 -12.32641296 19.86534424 -12.60620117 18.77648926 C-12.95898384 17.41895538 -12.95898384 17.41895538 -13.31889343 16.03399658 C-14.13710192 12.27778409 -14.83351932 8.27432695 -13.86914062 4.50793457 C-10.3080101 -0.75335913 -5.77683157 -0.05422612 0 0 Z M5.13085938 16.50793457 C6.61311649 25.59826031 8.76765702 34.49618115 11.00976562 43.42199707 C11.38586143 44.92840528 11.76174782 46.43486579 12.13743591 47.94137573 C12.91933242 51.07335199 13.70374061 54.2046851 14.48999023 57.33557129 C15.4991511 61.35498168 16.50187426 65.37596652 17.50277805 69.39743996 C18.27486843 72.49660722 19.05029867 75.59493111 19.82676506 78.69300461 C20.19820794 80.17677261 20.56859933 81.66080425 20.93792915 83.14509964 C21.45139303 85.20653176 21.96933371 87.26678642 22.48852539 89.32678223 C22.78227554 90.49939606 23.0760257 91.67200989 23.37867737 92.88015747 C23.87359864 95.41241246 23.87359864 95.41241246 25.13085938 96.50793457 C27.06392436 96.60189514 29.00044776 96.62536975 30.93579102 96.62145996 C32.79760765 96.62134666 32.79760765 96.62134666 34.69703674 96.62123108 C36.06169677 96.61612368 37.4263564 96.61090767 38.79101562 96.60559082 C40.17964121 96.60372657 41.56826745 96.6023027 42.95689392 96.6013031 C46.61807052 96.59747844 50.27920768 96.5876486 53.94036865 96.57659912 C57.67378201 96.56638389 61.40720171 96.56180524 65.140625 96.5567627 C72.47072114 96.54602628 79.80078474 96.52895048 87.13085938 96.50793457 C85.64860226 87.41760883 83.49406173 78.51968799 81.25195312 69.59387207 C80.87585732 68.08746386 80.49997093 66.58100335 80.12428284 65.07449341 C79.34238633 61.94251715 78.55797814 58.81118405 77.77172852 55.68029785 C76.76256765 51.66088746 75.75984449 47.63990262 74.7589407 43.61842918 C73.98685032 40.51926192 73.21142008 37.42093803 72.43495369 34.32286453 C72.06351081 32.83909653 71.69311942 31.35506489 71.3237896 29.8707695 C70.81032572 27.80933738 70.29238504 25.74908272 69.77319336 23.68908691 C69.47944321 22.51647308 69.18569305 21.34385925 68.88304138 20.13571167 C68.38812011 17.60345668 68.38812011 17.60345668 67.13085938 16.50793457 C65.19779439 16.413974 63.26127099 16.3904994 61.32592773 16.39440918 C60.08471664 16.39448471 58.84350555 16.39456024 57.56468201 16.39463806 C56.20002198 16.39974546 54.83536235 16.40496147 53.47070312 16.41027832 C52.08207754 16.41214257 50.6934513 16.41356644 49.30482483 16.41456604 C45.64364823 16.41839071 41.98251107 16.42822054 38.3213501 16.43927002 C34.58793674 16.44948525 30.85451704 16.4540639 27.12109375 16.45910645 C19.79099761 16.46984286 12.46093401 16.48691866 5.13085938 16.50793457 Z M85.13085938 16.50793457 C86.61311649 25.59826031 88.76765702 34.49618115 91.00976562 43.42199707 C91.38586143 44.92840528 91.76174782 46.43486579 92.13743591 47.94137573 C92.91933242 51.07335199 93.70374061 54.2046851 94.48999023 57.33557129 C95.4991511 61.35498168 96.50187426 65.37596652 97.50277805 69.39743996 C98.27486843 72.49660722 99.05029867 75.59493111 99.82676506 78.69300461 C100.19820794 80.17677261 100.56859933 81.66080425 100.93792915 83.14509964 C101.45139303 85.20653176 101.96933371 87.26678642 102.48852539 89.32678223 C102.78227554 90.49939606 103.0760257 91.67200989 103.37867737 92.88015747 C103.87359864 95.41241246 103.87359864 95.41241246 105.13085938 96.50793457 C107.30891657 96.60222799 109.49007217 96.62535995 111.67016602 96.62145996 C112.35306198 96.62160599 113.03595795 96.62175201 113.73954773 96.62190247 C116.00673552 96.62120333 118.27384211 96.61341097 120.54101562 96.60559082 C122.10900325 96.60372664 123.67699145 96.60230274 125.24497986 96.6013031 C129.3796244 96.59747791 133.51423403 96.58764763 137.64886475 96.57659912 C141.86486336 96.56638502 146.08086759 96.56180548 150.296875 96.5567627 C158.57488585 96.54602536 166.85286827 96.52894893 175.13085938 96.50793457 C173.64860226 87.41760883 171.49406173 78.51968799 169.25195312 69.59387207 C168.87585732 68.08746386 168.49997093 66.58100335 168.12428284 65.07449341 C167.34238633 61.94251715 166.55797814 58.81118405 165.77172852 55.68029785 C164.76256765 51.66088746 163.75984449 47.63990262 162.7589407 43.61842918 C161.98685032 40.51926192 161.21142008 37.42093803 160.43495369 34.32286453 C160.06351081 32.83909653 159.69311942 31.35506489 159.3237896 29.8707695 C158.81032572 27.80933738 158.29238504 25.74908272 157.77319336 23.68908691 C157.47944321 22.51647308 157.18569305 21.34385925 156.88304138 20.13571167 C156.38812011 17.60345668 156.38812011 17.60345668 155.13085938 16.50793457 C152.95280218 16.41364115 150.77164658 16.39050919 148.59155273 16.39440918 C147.90865677 16.39426315 147.2257608 16.39411713 146.52217102 16.39396667 C144.25498323 16.39466581 141.98787664 16.40245817 139.72070312 16.41027832 C138.1527155 16.4121425 136.5847273 16.4135664 135.01673889 16.41456604 C130.88209435 16.41839123 126.74748472 16.42822151 122.612854 16.43927002 C118.39685539 16.44948413 114.18085116 16.45406366 109.96484375 16.45910645 C101.6868329 16.46984378 93.40885048 16.48692021 85.13085938 16.50793457 Z M29.13085938 112.50793457 C30.61311649 121.59826031 32.76765702 130.49618115 35.00976562 139.42199707 C35.38586143 140.92840528 35.76174782 142.43486579 36.13743591 143.94137573 C36.91933242 147.07335199 37.70374061 150.2046851 38.48999023 153.33557129 C39.4991511 157.35498168 40.50187426 161.37596652 41.50277805 165.39743996 C42.27486843 168.49660722 43.05029867 171.59493111 43.82676506 174.69300461 C44.19820794 176.17677261 44.56859933 177.66080425 44.93792915 179.14509964 C45.45139303 181.20653176 45.96933371 183.26678642 46.48852539 185.32678223 C46.78227554 186.49939606 47.0760257 187.67200989 47.37867737 188.88015747 C47.87359864 191.41241246 47.87359864 191.41241246 49.13085938 192.50793457 C51.06392436 192.60189514 53.00044776 192.62536975 54.93579102 192.62145996 C56.79760765 192.62134666 56.79760765 192.62134666 58.69703674 192.62123108 C60.06169677 192.61612368 61.4263564 192.61090767 62.79101562 192.60559082 C64.17964121 192.60372657 65.56826745 192.6023027 66.95689392 192.6013031 C70.61807052 192.59747844 74.27920768 192.5876486 77.94036865 192.57659912 C81.67378201 192.56638389 85.40720171 192.56180524 89.140625 192.5567627 C96.47072114 192.54602628 103.80078474 192.52895048 111.13085938 192.50793457 C109.64860226 183.41760883 107.49406173 174.51968799 105.25195312 165.59387207 C104.87585732 164.08746386 104.49997093 162.58100335 104.12428284 161.07449341 C103.34238633 157.94251715 102.55797814 154.81118405 101.77172852 151.68029785 C100.76256765 147.66088746 99.75984449 143.63990262 98.7589407 139.61842918 C97.98685032 136.51926192 97.21142008 133.42093803 96.43495369 130.32286453 C96.06351081 128.83909653 95.69311942 127.35506489 95.3237896 125.8707695 C94.81032572 123.80933738 94.29238504 121.74908272 93.77319336 119.68908691 C93.47944321 118.51647308 93.18569305 117.34385925 92.88304138 116.13571167 C92.38812011 113.60345668 92.38812011 113.60345668 91.13085938 112.50793457 C89.19779439 112.413974 87.26127099 112.3904994 85.32592773 112.39440918 C84.08471664 112.39448471 82.84350555 112.39456024 81.56468201 112.39463806 C80.20002198 112.39974546 78.83536235 112.40496147 77.47070312 112.41027832 C76.08207754 112.41214257 74.6934513 112.41356644 73.30482483 112.41456604 C69.64364823 112.41839071 65.98251107 112.42822054 62.3213501 112.43927002 C58.58793674 112.44948525 54.85451704 112.4540639 51.12109375 112.45910645 C43.79099761 112.46984286 36.46093401 112.48691866 29.13085938 112.50793457 Z M109.13085938 112.50793457 C110.61311649 121.59826031 112.76765702 130.49618115 115.00976562 139.42199707 C115.38586143 140.92840528 115.76174782 142.43486579 116.13743591 143.94137573 C116.91933242 147.07335199 117.70374061 150.2046851 118.48999023 153.33557129 C119.4991511 157.35498168 120.50187426 161.37596652 121.50277805 165.39743996 C122.27486843 168.49660722 123.05029867 171.59493111 123.82676506 174.69300461 C124.19820794 176.17677261 124.56859933 177.66080425 124.93792915 179.14509964 C125.45139303 181.20653176 125.96933371 183.26678642 126.48852539 185.32678223 C126.78227554 186.49939606 127.0760257 187.67200989 127.37867737 188.88015747 C127.87359864 191.41241246 127.87359864 191.41241246 129.13085938 192.50793457 C131.30891657 192.60222799 133.49007217 192.62535995 135.67016602 192.62145996 C136.35306198 192.62160599 137.03595795 192.62175201 137.73954773 192.62190247 C140.00673552 192.62120333 142.27384211 192.61341097 144.54101562 192.60559082 C146.10900325 192.60372664 147.67699145 192.60230274 149.24497986 192.6013031 C153.3796244 192.59747791 157.51423403 192.58764763 161.64886475 192.57659912 C165.86486336 192.56638502 170.08086759 192.56180548 174.296875 192.5567627 C182.57488585 192.54602536 190.85286827 192.52894893 199.13085938 192.50793457 C197.64860226 183.41760883 195.49406173 174.51968799 193.25195312 165.59387207 C192.87585732 164.08746386 192.49997093 162.58100335 192.12428284 161.07449341 C191.34238633 157.94251715 190.55797814 154.81118405 189.77172852 151.68029785 C188.76256765 147.66088746 187.75984449 143.63990262 186.7589407 139.61842918 C185.98685032 136.51926192 185.21142008 133.42093803 184.43495369 130.32286453 C184.06351081 128.83909653 183.69311942 127.35506489 183.3237896 125.8707695 C182.81032572 123.80933738 182.29238504 121.74908272 181.77319336 119.68908691 C181.47944321 118.51647308 181.18569305 117.34385925 180.88304138 116.13571167 C180.38812011 113.60345668 180.38812011 113.60345668 179.13085938 112.50793457 C176.95280218 112.41364115 174.77164658 112.39050919 172.59155273 112.39440918 C171.90865677 112.39426315 171.2257608 112.39411713 170.52217102 112.39396667 C168.25498323 112.39466581 165.98787664 112.40245817 163.72070312 112.41027832 C162.1527155 112.4121425 160.5847273 112.4135664 159.01673889 112.41456604 C154.88209435 112.41839123 150.74748472 112.42822151 146.612854 112.43927002 C142.39685539 112.44948413 138.18085116 112.45406366 133.96484375 112.45910645 C125.6868329 112.46984378 117.40885048 112.48692021 109.13085938 112.50793457 Z M197.13085938 112.50793457 C198.61311649 121.59826031 200.76765702 130.49618115 203.00976562 139.42199707 C203.38586143 140.92840528 203.76174782 142.43486579 204.13743591 143.94137573 C204.91933242 147.07335199 205.70374061 150.2046851 206.48999023 153.33557129 C207.4991511 157.35498168 208.50187426 161.37596652 209.50277805 165.39743996 C210.27486843 168.49660722 211.05029867 171.59493111 211.82676506 174.69300461 C212.19820794 176.17677261 212.56859933 177.66080425 212.93792915 179.14509964 C213.45139303 181.20653176 213.96933371 183.26678642 214.48852539 185.32678223 C214.78227554 186.49939606 215.0760257 187.67200989 215.37867737 188.88015747 C215.87359864 191.41241246 215.87359864 191.41241246 217.13085938 192.50793457 C219.30891657 192.60222799 221.49007217 192.62535995 223.67016602 192.62145996 C224.35306198 192.62160599 225.03595795 192.62175201 225.73954773 192.62190247 C228.00673552 192.62120333 230.27384211 192.61341097 232.54101562 192.60559082 C234.10900325 192.60372664 235.67699145 192.60230274 237.24497986 192.6013031 C241.3796244 192.59747791 245.51423403 192.58764763 249.64886475 192.57659912 C253.86486336 192.56638502 258.08086759 192.56180548 262.296875 192.5567627 C270.57488585 192.54602536 278.85286827 192.52894893 287.13085938 192.50793457 C285.64860226 183.41760883 283.49406173 174.51968799 281.25195312 165.59387207 C280.87585732 164.08746386 280.49997093 162.58100335 280.12428284 161.07449341 C279.34238633 157.94251715 278.55797814 154.81118405 277.77172852 151.68029785 C276.76256765 147.66088746 275.75984449 143.63990262 274.7589407 139.61842918 C273.98685032 136.51926192 273.21142008 133.42093803 272.43495369 130.32286453 C272.06351081 128.83909653 271.69311942 127.35506489 271.3237896 125.8707695 C270.81032572 123.80933738 270.29238504 121.74908272 269.77319336 119.68908691 C269.47944321 118.51647308 269.18569305 117.34385925 268.88304138 116.13571167 C268.38812011 113.60345668 268.38812011 113.60345668 267.13085938 112.50793457 C264.95280218 112.41364115 262.77164658 112.39050919 260.59155273 112.39440918 C259.90865677 112.39426315 259.2257608 112.39411713 258.52217102 112.39396667 C256.25498323 112.39466581 253.98787664 112.40245817 251.72070312 112.41027832 C250.1527155 112.4121425 248.5847273 112.4135664 247.01673889 112.41456604 C242.88209435 112.41839123 238.74748472 112.42822151 234.612854 112.43927002 C230.39685539 112.44948413 226.18085116 112.45406366 221.96484375 112.45910645 C213.6868329 112.46984378 205.40885048 112.48692021 197.13085938 112.50793457 Z M285.13085938 112.50793457 C286.61311649 121.59826031 288.76765702 130.49618115 291.00976562 139.42199707 C291.38586143 140.92840528 291.76174782 142.43486579 292.13743591 143.94137573 C292.91933242 147.07335199 293.70374061 150.2046851 294.48999023 153.33557129 C295.4991511 157.35498168 296.50187426 161.37596652 297.50277805 165.39743996 C298.27486843 168.49660722 299.05029867 171.59493111 299.82676506 174.69300461 C300.19820794 176.17677261 300.56859933 177.66080425 300.93792915 179.14509964 C301.45139303 181.20653176 301.96933371 183.26678642 302.48852539 185.32678223 C302.78227554 186.49939606 303.0760257 187.67200989 303.37867737 188.88015747 C303.87359864 191.41241246 303.87359864 191.41241246 305.13085938 192.50793457 C307.06392436 192.60189514 309.00044776 192.62536975 310.93579102 192.62145996 C312.79760765 192.62134666 312.79760765 192.62134666 314.69703674 192.62123108 C316.06169677 192.61612368 317.4263564 192.61090767 318.79101562 192.60559082 C320.17964121 192.60372657 321.56826745 192.6023027 322.95689392 192.6013031 C326.61807052 192.59747844 330.27920768 192.5876486 333.94036865 192.57659912 C337.67378201 192.56638389 341.40720171 192.56180524 345.140625 192.5567627 C352.47072114 192.54602628 359.80078474 192.52895048 367.13085938 192.50793457 C365.64860226 183.41760883 363.49406173 174.51968799 361.25195312 165.59387207 C360.87585732 164.08746386 360.49997093 162.58100335 360.12428284 161.07449341 C359.34238633 157.94251715 358.55797814 154.81118405 357.77172852 151.68029785 C356.76256765 147.66088746 355.75984449 143.63990262 354.7589407 139.61842918 C353.98685032 136.51926192 353.21142008 133.42093803 352.43495369 130.32286453 C352.06351081 128.83909653 351.69311942 127.35506489 351.3237896 125.8707695 C350.81032572 123.80933738 350.29238504 121.74908272 349.77319336 119.68908691 C349.47944321 118.51647308 349.18569305 117.34385925 348.88304138 116.13571167 C348.38812011 113.60345668 348.38812011 113.60345668 347.13085938 112.50793457 C345.19779439 112.413974 343.26127099 112.3904994 341.32592773 112.39440918 C340.08471664 112.39448471 338.84350555 112.39456024 337.56468201 112.39463806 C336.20002198 112.39974546 334.83536235 112.40496147 333.47070312 112.41027832 C332.08207754 112.41214257 330.6934513 112.41356644 329.30482483 112.41456604 C325.64364823 112.41839071 321.98251107 112.42822054 318.3213501 112.43927002 C314.58793674 112.44948525 310.85451704 112.4540639 307.12109375 112.45910645 C299.79099761 112.46984286 292.46093401 112.48691866 285.13085938 112.50793457 Z M170.13085938 208.50793457 C170.13085938 234.90793457 170.13085938 261.30793457 170.13085938 288.50793457 C180.69085938 288.50793457 191.25085938 288.50793457 202.13085938 288.50793457 C202.13085938 262.10793457 202.13085938 235.70793457 202.13085938 208.50793457 C191.57085937 208.50793457 181.01085937 208.50793457 170.13085938 208.50793457 Z " fill="#000000" transform="translate(45.869140625,175.4920654296875)"/>
<path d="M0 0 C2.44225447 1.66159248 4.74768159 3.38773224 7.0390625 5.25 C7.86148438 5.86875 8.68390625 6.4875 9.53125 7.125 C18.92978498 15.08886764 24.45905748 26.34775932 27.0390625 38.25 C27.93659861 49.82759689 28.20406245 61.63305566 23.0390625 72.25 C22.58015625 73.21164063 22.12125 74.17328125 21.6484375 75.1640625 C14.40290735 89.31191347 2.6150022 98.90666814 -12.52734375 103.828125 C-18.01073066 105.437047 -23.14583401 105.75040717 -28.8359375 105.6875 C-29.80120361 105.67992676 -30.76646973 105.67235352 -31.76098633 105.66455078 C-39.0908864 105.49542298 -45.31274169 104.48425742 -51.9609375 101.25 C-52.92257812 100.79109375 -53.88421875 100.3321875 -54.875 99.859375 C-69.02163207 92.61446909 -78.6326371 80.8220102 -83.53515625 65.671875 C-85.12233228 60.25625002 -85.50041386 55.18513286 -85.4609375 49.5625 C-85.45521729 48.60569336 -85.44949707 47.64888672 -85.44360352 46.66308594 C-85.12051272 33.70029175 -81.19857916 23.3858007 -72.9609375 13.25 C-72.3421875 12.42757812 -71.7234375 11.60515625 -71.0859375 10.7578125 C-54.25015514 -9.11088653 -22.01325939 -13.01047521 0 0 Z M-61.421875 26.09765625 C-68.14505217 35.49986595 -68.94584911 46.05282056 -67.9609375 57.25 C-65.7647162 68.01942251 -59.1843623 76.38422662 -50.38671875 82.7421875 C-40.41077851 88.94301348 -29.1889132 89.97308289 -17.80859375 87.58984375 C-6.62384645 83.96617387 1.84161302 76.06122995 7.359375 65.79296875 C11.41050101 56.34506299 11.6392523 45.07439536 8.4765625 35.3125 C3.89997856 24.63913815 -4.35007565 16.38908394 -15.0234375 11.8125 C-32.85669213 6.03482564 -49.64786292 12.09249576 -61.421875 26.09765625 Z " fill="#000000" transform="translate(404.9609375,86.75)"/>
<path d="M0 0 C4.35452658 1.15055381 7.06397766 4.42229247 10.12890625 7.5625 C11.09831831 8.51240272 12.06979752 9.4601989 13.04296875 10.40625 C22.01879295 19.19709505 22.01879295 19.19709505 22.44140625 24.4375 C22.38231252 27.39218653 22.19455589 28.45308393 20.62890625 31.0625 C17.80837833 32.75481675 15.5581084 33.31949258 12.2578125 33.125 C7.90328592 31.97444619 5.19383484 28.70270753 2.12890625 25.5625 C1.15949419 24.61259728 0.18801498 23.6648011 -0.78515625 22.71875 C-9.76098045 13.92790495 -9.76098045 13.92790495 -10.18359375 8.6875 C-10.12450002 5.73281347 -9.93674339 4.67191607 -8.37109375 2.0625 C-5.55056583 0.37018325 -3.3002959 -0.19449258 0 0 Z " fill="#000000" transform="translate(433.87109375,183.4375)"/>
<path d="M0 0 C2.5 1.5 2.5 1.5 4 4 C4.74101214 8.04188439 5.00003078 10.39139785 2.8125 13.91015625 C0.97449673 16.06185719 -0.97446161 18.02301904 -3 20 C-3.94990272 20.96941206 -4.8976989 21.94089127 -5.84375 22.9140625 C-14.63459505 31.8898867 -14.63459505 31.8898867 -19.875 32.3125 C-22.82968653 32.25340627 -23.89058393 32.06564964 -26.5 30.5 C-28.19231675 27.67947208 -28.75699258 25.42920215 -28.5625 22.12890625 C-27.41194619 17.77437967 -24.14020753 15.06492859 -21 12 C-20.05009728 11.03058794 -19.1023011 10.05910873 -18.15625 9.0859375 C-8.1668505 -1.11366143 -8.1668505 -1.11366143 0 0 Z " fill="#000000" transform="translate(324,184)"/>
<path d="M0 0 C2.5 1.5 2.5 1.5 4 4 C4.74101214 8.04188439 5.00003078 10.39139785 2.8125 13.91015625 C0.97449673 16.06185719 -0.97446161 18.02301904 -3 20 C-3.94990272 20.96941206 -4.8976989 21.94089127 -5.84375 22.9140625 C-14.63459505 31.8898867 -14.63459505 31.8898867 -19.875 32.3125 C-22.82968653 32.25340627 -23.89058393 32.06564964 -26.5 30.5 C-28.19231675 27.67947208 -28.75699258 25.42920215 -28.5625 22.12890625 C-27.41194619 17.77437967 -24.14020753 15.06492859 -21 12 C-20.05009728 11.03058794 -19.1023011 10.05910873 -18.15625 9.0859375 C-8.1668505 -1.11366143 -8.1668505 -1.11366143 0 0 Z " fill="#000000" transform="translate(452,56)"/>
<path d="M0 0 C4.35452658 1.15055381 7.06397766 4.42229247 10.12890625 7.5625 C11.09831831 8.51240272 12.06979752 9.4601989 13.04296875 10.40625 C22.01879295 19.19709505 22.01879295 19.19709505 22.44140625 24.4375 C22.38231252 27.39218653 22.19455589 28.45308393 20.62890625 31.0625 C17.80837833 32.75481675 15.5581084 33.31949258 12.2578125 33.125 C7.90328592 31.97444619 5.19383484 28.70270753 2.12890625 25.5625 C1.15949419 24.61259728 0.18801498 23.6648011 -0.78515625 22.71875 C-9.76098045 13.92790495 -9.76098045 13.92790495 -10.18359375 8.6875 C-10.12450002 5.73281347 -9.93674339 4.67191607 -8.37109375 2.0625 C-5.55056583 0.37018325 -3.3002959 -0.19449258 0 0 Z " fill="#000000" transform="translate(305.87109375,55.4375)"/>
<path d="M0 0 C0.66 -0.0103125 1.32 -0.020625 2 -0.03125 C4.91796104 0.7438334 6.0931088 2.19104167 8 4.5 C8.51757812 7.09375 8.51757812 7.09375 8.53125 10 C8.53640625 11.051875 8.5415625 12.10375 8.546875 13.1875 C8.53140625 14.280625 8.5159375 15.37375 8.5 16.5 C8.51546875 17.593125 8.5309375 18.68625 8.546875 19.8125 C8.54171875 20.864375 8.5365625 21.91625 8.53125 23 C8.52673828 23.9590625 8.52222656 24.918125 8.51757812 25.90625 C7.857725 29.21298564 6.58886445 30.40908706 4 32.5 C2 33.03125 2 33.03125 0 33 C-0.99 33.01546875 -0.99 33.01546875 -2 33.03125 C-4.91796104 32.2561666 -6.0931088 30.80895833 -8 28.5 C-8.51757812 25.90625 -8.51757812 25.90625 -8.53125 23 C-8.53640625 21.948125 -8.5415625 20.89625 -8.546875 19.8125 C-8.53140625 18.719375 -8.5159375 17.62625 -8.5 16.5 C-8.51546875 15.406875 -8.5309375 14.31375 -8.546875 13.1875 C-8.53914063 11.6096875 -8.53914063 11.6096875 -8.53125 10 C-8.52673828 9.0409375 -8.52222656 8.081875 -8.51757812 7.09375 C-7.60329874 2.51200272 -4.67433964 -0.07303656 0 0 Z " fill="#000000" transform="translate(376,207.5)"/>
<path d="M0 0 C1.051875 -0.00515625 2.10375 -0.0103125 3.1875 -0.015625 C4.280625 -0.00015625 5.37375 0.0153125 6.5 0.03125 C8.1396875 0.00804688 8.1396875 0.00804688 9.8125 -0.015625 C10.864375 -0.01046875 11.91625 -0.0053125 13 0 C14.43859375 0.00676758 14.43859375 0.00676758 15.90625 0.01367188 C19.21298564 0.673525 20.40908706 1.94238555 22.5 4.53125 C23.03125 6.53125 23.03125 6.53125 23 8.53125 C23.0103125 9.19125 23.020625 9.85125 23.03125 10.53125 C22.2561666 13.44921104 20.80895833 14.6243588 18.5 16.53125 C15.90625 17.04882812 15.90625 17.04882812 13 17.0625 C11.948125 17.06765625 10.89625 17.0728125 9.8125 17.078125 C8.719375 17.06265625 7.62625 17.0471875 6.5 17.03125 C4.8603125 17.05445313 4.8603125 17.05445313 3.1875 17.078125 C2.135625 17.07296875 1.08375 17.0678125 0 17.0625 C-0.9590625 17.05798828 -1.918125 17.05347656 -2.90625 17.04882812 C-6.21298564 16.388975 -7.40908706 15.12011445 -9.5 12.53125 C-10.03125 10.53125 -10.03125 10.53125 -10 8.53125 C-10.01546875 7.54125 -10.01546875 7.54125 -10.03125 6.53125 C-8.65240655 1.34030994 -4.94094259 0.02324368 0 0 Z " fill="#000000" transform="translate(457.5,127.46875)"/>
<path d="M0 0 C1.051875 -0.00515625 2.10375 -0.0103125 3.1875 -0.015625 C4.280625 -0.00015625 5.37375 0.0153125 6.5 0.03125 C8.1396875 0.00804688 8.1396875 0.00804688 9.8125 -0.015625 C10.864375 -0.01046875 11.91625 -0.0053125 13 0 C14.43859375 0.00676758 14.43859375 0.00676758 15.90625 0.01367188 C19.21298564 0.673525 20.40908706 1.94238555 22.5 4.53125 C23.03125 6.53125 23.03125 6.53125 23 8.53125 C23.0103125 9.19125 23.020625 9.85125 23.03125 10.53125 C22.2561666 13.44921104 20.80895833 14.6243588 18.5 16.53125 C15.90625 17.04882812 15.90625 17.04882812 13 17.0625 C11.948125 17.06765625 10.89625 17.0728125 9.8125 17.078125 C8.719375 17.06265625 7.62625 17.0471875 6.5 17.03125 C4.8603125 17.05445313 4.8603125 17.05445313 3.1875 17.078125 C2.135625 17.07296875 1.08375 17.0678125 0 17.0625 C-0.9590625 17.05798828 -1.918125 17.05347656 -2.90625 17.04882812 C-6.21298564 16.388975 -7.40908706 15.12011445 -9.5 12.53125 C-10.03125 10.53125 -10.03125 10.53125 -10 8.53125 C-10.01546875 7.54125 -10.01546875 7.54125 -10.03125 6.53125 C-8.65240655 1.34030994 -4.94094259 0.02324368 0 0 Z " fill="#000000" transform="translate(281.5,127.46875)"/>
<path d="M0 0 C0.66 -0.0103125 1.32 -0.020625 2 -0.03125 C4.91796104 0.7438334 6.0931088 2.19104167 8 4.5 C8.51757812 7.09375 8.51757812 7.09375 8.53125 10 C8.53640625 11.051875 8.5415625 12.10375 8.546875 13.1875 C8.53140625 14.280625 8.5159375 15.37375 8.5 16.5 C8.51546875 17.593125 8.5309375 18.68625 8.546875 19.8125 C8.54171875 20.864375 8.5365625 21.91625 8.53125 23 C8.52673828 23.9590625 8.52222656 24.918125 8.51757812 25.90625 C7.857725 29.21298564 6.58886445 30.40908706 4 32.5 C2 33.03125 2 33.03125 0 33 C-0.99 33.01546875 -0.99 33.01546875 -2 33.03125 C-4.91796104 32.2561666 -6.0931088 30.80895833 -8 28.5 C-8.51757812 25.90625 -8.51757812 25.90625 -8.53125 23 C-8.53640625 21.948125 -8.5415625 20.89625 -8.546875 19.8125 C-8.53140625 18.719375 -8.5159375 17.62625 -8.5 16.5 C-8.51546875 15.406875 -8.5309375 14.31375 -8.546875 13.1875 C-8.53914063 11.6096875 -8.53914063 11.6096875 -8.53125 10 C-8.52673828 9.0409375 -8.52222656 8.081875 -8.51757812 7.09375 C-7.60329874 2.51200272 -4.67433964 -0.07303656 0 0 Z " fill="#000000" transform="translate(376,31.5)"/>
</svg>
