<?xml version="1.0" encoding="UTF-8"?>
<svg version="1.1" xmlns="http://www.w3.org/2000/svg" width="512" height="512">
<path d="M0 0 C1.20091278 -0.00945648 2.40182556 -0.01891296 3.63912964 -0.02865601 C5.58724045 -0.01954697 5.58724045 -0.01954697 7.57470703 -0.01025391 C8.95061395 -0.01228198 10.3265198 -0.01519947 11.7024231 -0.01895142 C14.60266236 -0.02337886 17.50262501 -0.01695622 20.40283203 -0.00292969 C24.01852482 0.01375125 27.63353529 0.00429325 31.24920177 -0.01324558 C57.00822071 -0.1191648 82.48267135 1.64952022 107.89501953 6.07568359 C108.63034912 6.20134705 109.36567871 6.3270105 110.12329102 6.45648193 C145.66451072 12.57390832 180.91844531 22.86205112 213.95751953 37.38818359 C215.4197998 38.02892822 215.4197998 38.02892822 216.91162109 38.68261719 C257.55243993 56.64323712 294.88429599 79.90073441 328.95751953 108.38818359 C329.47894531 108.82324219 330.00037109 109.25830078 330.53759766 109.70654297 C346.6044659 123.1556688 362.66869078 137.43017533 376.26611328 153.41943359 C378.19619795 155.66599866 380.20170092 157.83402264 382.20751953 160.01318359 C387.25201256 165.61154833 391.87419026 171.49488004 396.46875 177.46240234 C397.98652544 179.42570387 399.51977226 181.37614722 401.05517578 183.32568359 C409.63005765 194.28531921 417.4141283 205.69850634 424.95751953 217.38818359 C425.36341309 218.01708496 425.76930664 218.64598633 426.1875 219.29394531 C432.23127317 228.73032995 437.60352104 238.55077205 442.95751953 248.38818359 C443.58062012 249.52151123 443.58062012 249.52151123 444.21630859 250.67773438 C467.73948714 293.55833701 483.08906549 341.30789616 491.27001953 389.45068359 C491.38726379 390.12491364 491.50450806 390.79914368 491.62530518 391.49380493 C495.98908384 416.91703479 497.49083594 442.41951521 497.40356445 468.16821289 C497.39179139 471.80473609 497.41282666 475.44032837 497.44148159 479.07672977 C497.45980816 481.92927604 497.45956356 484.78159356 497.45384407 487.63418388 C497.45361925 489.62058021 497.4704056 491.60695554 497.48765564 493.59327698 C497.39971083 504.85092133 497.39971083 504.85092133 492.95751953 509.38818359 C488.56300066 513.1504405 484.00572834 512.8402934 478.49267578 512.82177734 C477.58174667 512.8270192 476.67081757 512.83226105 475.73228455 512.83766174 C473.81005877 512.84407125 471.88779371 512.84275883 469.96557617 512.83422852 C467.0331397 512.82572165 464.10265421 512.8544893 461.17041016 512.88623047 C459.29866595 512.88784279 457.4269183 512.88726436 455.55517578 512.88427734 C454.68313004 512.89551132 453.81108429 512.9067453 452.91261292 512.9183197 C447.46206881 512.85628824 444.20236697 512.13081019 439.95751953 508.38818359 C437.28806555 504.66778078 436.56936033 502.04996902 436.48095703 497.49755859 C436.4508252 496.33023193 436.42069336 495.16290527 436.38964844 493.96020508 C436.36136963 492.06830444 436.36136963 492.06830444 436.33251953 490.13818359 C436.30072965 488.80228904 436.26733071 487.46643192 436.23242188 486.13061523 C436.12479781 481.88342278 436.04028418 477.63592165 435.95751953 473.38818359 C434.77430272 413.99035367 425.13339152 355.63983961 399.95751953 301.38818359 C399.52922852 300.44168945 399.1009375 299.49519531 398.65966797 298.52001953 C388.27948764 275.61536144 375.80402209 253.70922067 360.95751953 233.38818359 C360.20341797 232.35306641 359.44931641 231.31794922 358.67236328 230.25146484 C356.46436772 227.27242321 354.22132444 224.32501159 351.95751953 221.38818359 C351.52439453 220.82357422 351.09126953 220.25896484 350.64501953 219.67724609 C345.39991618 212.85265139 340.06791806 206.19274893 334.22314453 199.86474609 C332.97470176 198.50006899 331.73414835 197.12746921 330.53076172 195.72290039 C325.67161448 190.05220303 320.48561243 184.73011266 315.20703125 179.45239258 C313.71858716 177.96176744 312.23834676 176.46331342 310.75830078 174.96435547 C304.48497387 168.65467521 297.93085322 162.92916072 290.95751953 157.38818359 C289.12142811 155.82892555 287.28746989 154.26714427 285.45751953 152.70068359 C231.04781332 107.37099304 163.50808136 77.68022168 93.70751953 66.63818359 C91.82746216 66.33992676 91.82746216 66.33992676 89.90942383 66.03564453 C73.75764596 63.60291535 57.66618221 62.29133475 41.33642578 61.89599609 C40.65440723 61.87918289 39.97238869 61.86236969 39.26970291 61.845047 C32.90452443 61.69012333 26.53915338 61.54809691 20.1730957 61.43457031 C16.64706548 61.37085264 13.1218811 61.28841054 9.59654045 61.19417953 C7.63264449 61.14710398 5.66828541 61.12080174 3.70399475 61.09500122 C-7.51168854 60.78210933 -7.51168854 60.78210933 -12.04248047 56.38818359 C-15.80473738 51.99366472 -15.49459028 47.4363924 -15.47607422 41.92333984 C-15.48131607 41.01241074 -15.48655792 40.10148163 -15.49195862 39.16294861 C-15.49836813 37.24072283 -15.4970557 35.31845777 -15.48852539 33.39624023 C-15.48001853 30.46380376 -15.50878618 27.53331828 -15.54052734 24.60107422 C-15.54213966 22.72933001 -15.54156123 20.85758237 -15.53857422 18.98583984 C-15.5498082 18.1137941 -15.56104218 17.24174835 -15.57261658 16.34327698 C-15.51058512 10.89273288 -14.78510707 7.63303103 -11.04248047 3.38818359 C-7.25955065 0.65326563 -4.63898029 0.01054384 0 0 Z " fill="#000000" transform="translate(15.04248046875,-0.38818359375)"/>
<path d="M0 0 C1.13051285 -0.00945648 2.2610257 -0.01891296 3.42579651 -0.02865601 C5.25678139 -0.01954697 5.25678139 -0.01954697 7.12475586 -0.01025391 C8.405233 -0.01312408 9.68571014 -0.01599426 11.00498962 -0.01895142 C13.7295103 -0.02337684 16.45373634 -0.01696131 19.17822266 -0.00292969 C21.91149592 0.01049692 24.64417108 0.01102235 27.37744141 -0.00292969 C51.9084832 -0.11973704 76.17566518 1.3397289 100.21459961 6.51318359 C100.91191193 6.66057983 101.60922424 6.80797607 102.32766724 6.95983887 C176.57477846 22.73986183 251.54547962 65.40695978 298.27709961 126.38818359 C299.23206155 127.56930283 300.19067872 128.74747215 301.15209961 129.92333984 C311.60495246 142.73492029 320.744995 156.2336674 329.27709961 170.38818359 C329.64270996 170.99404297 330.00832031 171.59990234 330.38500977 172.22412109 C342.65944489 192.78814959 352.56017987 214.74002937 360.27709961 237.38818359 C360.5884082 238.28827148 360.8997168 239.18835938 361.22045898 240.11572266 C365.35212752 252.23322813 368.36968936 264.56461753 371.02709961 277.07568359 C371.17012512 277.7307489 371.31315063 278.38581421 371.46051025 279.06072998 C376.67504822 303.18865671 377.8008878 327.62750742 377.71624756 352.23834229 C377.71400994 354.98771019 377.7379873 357.73664567 377.76106167 360.48589897 C377.7837711 363.80494426 377.77696963 367.12375009 377.77319336 370.44287109 C377.78442734 371.65836639 377.79566132 372.87386169 377.80723572 374.12619019 C377.71901107 384.75756814 377.71901107 384.75756814 373.27709961 389.38818359 C368.88258074 393.1504405 364.32530842 392.8402934 358.81225586 392.82177734 C357.90132675 392.8270192 356.99039764 392.83226105 356.05186462 392.83766174 C354.12963884 392.84407125 352.20737379 392.84275883 350.28515625 392.83422852 C347.35271978 392.82572165 344.42223429 392.8544893 341.48999023 392.88623047 C339.61824602 392.88784279 337.74649838 392.88726436 335.87475586 392.88427734 C335.00271011 392.89551132 334.13066437 392.9067453 333.23219299 392.9183197 C327.78164889 392.85628824 324.52194705 392.13081019 320.27709961 388.38818359 C317.69301696 384.75827606 316.89163377 382.21921078 316.80053711 377.78540039 C316.77040527 376.68201828 316.74027344 375.57863617 316.70922852 374.44181824 C316.68094971 372.65763237 316.68094971 372.65763237 316.65209961 370.83740234 C316.61906738 369.5918306 316.58603516 368.34625885 316.55200195 367.0629425 C316.44685426 363.06737704 316.35977199 359.07175694 316.27709961 355.07568359 C315.79642615 332.50219621 314.80664769 310.20519631 309.96459961 288.07568359 C309.64821533 286.59998901 309.64821533 286.59998901 309.32543945 285.09448242 C307.23223165 275.65519925 304.47429611 266.50704338 301.27709961 257.38818359 C301.0010791 256.59573242 300.72505859 255.80328125 300.44067383 254.98681641 C289.9989917 225.25396256 275.60294188 198.32134142 256.27709961 173.38818359 C255.31030273 172.12941406 255.31030273 172.12941406 254.32397461 170.84521484 C249.78001538 165.03596615 244.89699013 159.60835059 239.87866211 154.21240234 C237.72451601 151.87389238 235.64418524 149.50084517 233.58959961 147.07568359 C230.7780791 143.83877936 227.75178561 141.04855745 224.48022461 138.28271484 C222.00952927 136.15809208 219.65297411 133.93073346 217.27709961 131.70068359 C169.57691513 88.38446669 103.75386422 63.3626233 39.60522461 61.99365234 C36.97628864 61.92493151 34.34739124 61.85524703 31.71850586 61.78466797 C27.60849269 61.67599414 23.49854132 61.57331752 19.38793945 61.48950195 C16.68774791 61.43400604 13.98817622 61.3683725 11.28851318 61.29133606 C8.75801497 61.2193043 6.22705063 61.16179723 3.69586182 61.12065125 C-7.13448122 60.77634469 -7.13448122 60.77634469 -11.72290039 56.38818359 C-15.4851573 51.99366472 -15.1750102 47.4363924 -15.15649414 41.92333984 C-15.16173599 41.01241074 -15.16697784 40.10148163 -15.17237854 39.16294861 C-15.17878805 37.24072283 -15.17747563 35.31845777 -15.16894531 33.39624023 C-15.16043845 30.46380376 -15.1892061 27.53331828 -15.22094727 24.60107422 C-15.22255959 22.72933001 -15.22198116 20.85758237 -15.21899414 18.98583984 C-15.23022812 18.1137941 -15.2414621 17.24174835 -15.2530365 16.34327698 C-15.19100504 10.89273288 -14.46552699 7.63303103 -10.72290039 3.38818359 C-7.03779757 0.74728019 -4.51038161 0.01089492 0 0 Z " fill="#000000" transform="translate(14.722900390625,119.61181640625)"/>
<path d="M0 0 C1.07302368 -0.00945648 2.14604736 -0.01891296 3.25158691 -0.02865601 C4.98426819 -0.01954697 4.98426819 -0.01954697 6.75195312 -0.01025391 C7.9602478 -0.01312408 9.16854248 -0.01599426 10.41345215 -0.01895142 C12.97892727 -0.02099353 15.54441791 -0.01545345 18.10986328 -0.00292969 C21.96358984 0.01289769 25.81623123 -0.00265715 29.66992188 -0.02197266 C87.05838881 -0.07184179 142.07712137 20.43058322 184.02148438 60.02880859 C186.07925591 61.96176973 188.16556924 63.78537497 190.34570312 65.57568359 C194.17041065 68.82255761 197.30560728 72.56054547 200.53320312 76.38818359 C201.34660156 77.31373047 202.16 78.23927734 202.99804688 79.19287109 C236.54984864 117.56755285 257.45148373 168.34115874 257.77148438 219.52490234 C257.77955612 220.76311234 257.78762787 222.00132233 257.79594421 223.27705383 C257.80971189 225.88154732 257.8204664 228.48605829 257.82836914 231.09057617 C257.8399508 233.75321608 257.85827344 236.41455661 257.88989258 239.0769043 C257.93244824 242.93472984 257.94871542 246.79187165 257.95898438 250.64990234 C257.97649246 251.83750656 257.99400055 253.02511078 258.01203918 254.248703 C257.98445185 264.73155845 257.98445185 264.73155845 253.53320312 269.38818359 C249.13868425 273.1504405 244.58141193 272.8402934 239.06835938 272.82177734 C238.15743027 272.8270192 237.24650116 272.83226105 236.30796814 272.83766174 C234.38574236 272.84407125 232.4634773 272.84275883 230.54125977 272.83422852 C227.6088233 272.82572165 224.67833781 272.8544893 221.74609375 272.88623047 C219.87434954 272.88784279 218.0026019 272.88726436 216.13085938 272.88427734 C215.25881363 272.89551132 214.38676788 272.9067453 213.48829651 272.9183197 C208.03775241 272.85628824 204.77805056 272.13081019 200.53320312 268.38818359 C197.27329589 264.38727071 197.07952828 260.60639955 197.05664062 255.62255859 C197.03327133 254.49506195 197.03327133 254.49506195 197.00942993 253.3447876 C196.96211588 250.94259873 196.9343173 248.54068781 196.90820312 246.13818359 C196.8590088 243.00787074 196.80250154 239.87771295 196.74414062 236.74755859 C196.7300415 235.97049057 196.71594238 235.19342255 196.70141602 234.39280701 C196.46554691 222.62631481 196.02189465 210.90698954 193.78320312 199.32568359 C193.52095947 197.93627563 193.52095947 197.93627563 193.25341797 196.51879883 C191.62426565 188.24073121 189.38576222 180.32212347 186.53320312 172.38818359 C186.30906738 171.76395508 186.08493164 171.13972656 185.85400391 170.49658203 C175.48703378 142.06606269 156.78988616 115.6216147 132.53320312 97.38818359 C132.01032715 96.99034668 131.48745117 96.59250977 130.94873047 96.18261719 C104.54389549 76.20163341 72.96246404 63.70468551 39.76367188 61.84521484 C39.03238571 61.80306351 38.30109955 61.76091217 37.5476532 61.71748352 C32.10179455 61.42477227 26.66177353 61.28640148 21.20898438 61.21240234 C20.05280106 61.19441086 20.05280106 61.19441086 18.8732605 61.17605591 C15.72643086 61.12771265 12.58003666 61.07977024 9.43286133 61.06225586 C7.08678424 61.04677885 4.74217156 61.00668851 2.39648438 60.96240234 C1.69332596 60.96431076 0.99016754 60.96621918 0.26570129 60.96818542 C-4.75535416 60.84375046 -7.64632509 59.61429057 -11.46679688 56.38818359 C-15.22905378 51.99366472 -14.91890668 47.4363924 -14.90039062 41.92333984 C-14.90563248 41.01241074 -14.91087433 40.10148163 -14.91627502 39.16294861 C-14.92268454 37.24072283 -14.92137211 35.31845777 -14.9128418 33.39624023 C-14.90433494 30.46380376 -14.93310258 27.53331828 -14.96484375 24.60107422 C-14.96645607 22.72933001 -14.96587764 20.85758237 -14.96289062 18.98583984 C-14.9741246 18.1137941 -14.98535858 17.24174835 -14.99693298 16.34327698 C-14.93490152 10.89273288 -14.20942347 7.63303103 -10.46679688 3.38818359 C-6.86394211 0.82418425 -4.4034834 0.01120299 0 0 Z " fill="#000000" transform="translate(14.466796875,239.61181640625)"/>
<path d="M0 0 C0.92554687 0.40089844 1.85109375 0.80179687 2.8046875 1.21484375 C18.01736187 8.64879936 29.20653425 22.24698077 35 38 C39.57203491 53.06365187 38.37976399 70.07703615 31.45703125 84.1328125 C22.92369955 99.71541822 10.03459314 110.0570175 -6.75 115.8125 C-23.63899511 119.99866118 -41.42695849 117.41540469 -56.37109375 108.7578125 C-70.0387061 99.61899295 -79.85438536 86.33481957 -83.62280273 70.22045898 C-85.71897743 57.8808416 -84.98038296 44.50075276 -80 33 C-79.649375 32.13632812 -79.29875 31.27265625 -78.9375 30.3828125 C-72.38597398 15.77836908 -60.24981675 5.32657056 -45.765625 -1.02734375 C-31.40748223 -6.07702955 -13.98883521 -6.21509531 0 0 Z " fill="#000000" transform="translate(84,395)"/>
</svg>
