<?xml version="1.0" encoding="UTF-8"?>
<svg version="1.1" xmlns="http://www.w3.org/2000/svg" width="512" height="512">
<path d="M0 0 C5.63571362 3.13189507 9.47692885 6.97236103 12.03125 12.94140625 C12.03125 13.60140625 12.03125 14.26140625 12.03125 14.94140625 C12.62550781 15.08835937 13.21976562 15.2353125 13.83203125 15.38671875 C32.96204711 20.563426 49.39431007 34.44720004 59.24609375 51.48046875 C65.83926085 64.26284524 69.45125581 76.45120586 69.03125 90.94140625 C73.98125 90.94140625 78.93125 90.94140625 84.03125 90.94140625 C84.03125 106.12140625 84.03125 121.30140625 84.03125 136.94140625 C78.09125 136.94140625 72.15125 136.94140625 66.03125 136.94140625 C66.07765625 138.77703125 66.1240625 140.61265625 66.171875 142.50390625 C66.63782931 168.49458939 62.90742533 187.8502175 44.734375 207.4140625 C38.68454487 213.65675634 38.68454487 213.65675634 34.75 215.37109375 C31.78103529 217.64192928 31.78103529 217.64192928 31.64697266 220.69287109 C31.6650776 224.21712842 31.87103497 227.67875794 32.15625 231.19140625 C32.26839844 233.02445312 32.26839844 233.02445312 32.3828125 234.89453125 C32.57147142 237.913074 32.78858649 240.92680311 33.03125 243.94140625 C33.80001465 244.16054688 34.5687793 244.3796875 35.36083984 244.60546875 C40.38143618 246.43284025 45.01524373 248.86757723 49.7578125 251.31640625 C50.78305023 251.84153809 51.80828796 252.36666992 52.86459351 252.90771484 C56.1305316 254.58164608 59.39343062 256.26140547 62.65625 257.94140625 C64.85917353 259.07200722 67.06229641 260.20221986 69.265625 261.33203125 C74.1143933 263.81879227 78.96120551 266.30932113 83.80630493 268.80322266 C84.5405368 269.17882324 85.27476868 269.55442383 86.03125 269.94140625 C87.09045906 270.51721687 87.09045906 270.51721687 88.17106628 271.10466003 C90.81708595 272.29489029 92.29099632 271.78193164 95.03125 270.94140625 C97.53882771 269.8035075 97.53882771 269.8035075 100.05078125 268.359375 C101.46133789 267.57916992 101.46133789 267.57916992 102.90039062 266.78320312 C103.87169922 266.23728516 104.84300781 265.69136719 105.84375 265.12890625 C107.7661976 264.05858452 109.68936308 262.98955109 111.61328125 261.921875 C112.53189941 261.40375244 113.45051758 260.88562988 114.39697266 260.35180664 C116.76345451 259.0847848 119.13377209 258.04945186 121.60546875 257.01171875 C124.80655884 255.42942931 124.97951313 255.05956571 126.53125 251.515625 C127.73894107 244.36914552 127.73894107 244.36914552 125.6328125 237.71875 C123.52385139 235.9557252 121.31293802 234.47258863 119.03125 232.94140625 C112.81864279 227.079602 108.93189731 220.95114825 106.03125 212.94140625 C105.55171875 211.64009766 105.55171875 211.64009766 105.0625 210.3125 C102.03286458 200.4521588 102.77346504 190.13823347 103.03125 179.94140625 C99.07125 179.94140625 95.11125 179.94140625 91.03125 179.94140625 C91.03125 174.66140625 91.03125 169.38140625 91.03125 163.94140625 C94.99125 163.94140625 98.95125 163.94140625 103.03125 163.94140625 C103.11375 162.04390625 103.19625 160.14640625 103.28125 158.19140625 C104.48282669 143.58276332 110.71939749 131.71316856 121.21875 121.56640625 C129.55537436 114.6872337 139.35535519 110.39721009 150.03125 108.94140625 C150.03125 104.98140625 150.03125 101.02140625 150.03125 96.94140625 C155.31125 96.94140625 160.59125 96.94140625 166.03125 96.94140625 C166.03125 100.90140625 166.03125 104.86140625 166.03125 108.94140625 C167.10375 109.00328125 168.17625 109.06515625 169.28125 109.12890625 C182.92396574 110.9511319 195.26175206 119.55984126 203.53125 130.31640625 C210.6572116 141.06548335 212.95978584 151.33970837 214.03125 163.94140625 C217.99125 163.94140625 221.95125 163.94140625 226.03125 163.94140625 C226.03125 169.22140625 226.03125 174.50140625 226.03125 179.94140625 C222.07125 179.94140625 218.11125 179.94140625 214.03125 179.94140625 C214.06605469 181.15054688 214.10085938 182.3596875 214.13671875 183.60546875 C214.52892244 202.92051024 211.47626625 218.56401641 197.99023438 233.02197266 C196.02081902 235.06352521 194.16716968 236.85516756 191.765625 238.37890625 C189.76892794 239.91492008 189.76892794 239.91492008 189.0859375 242.875 C188.87333371 247.02077389 188.84441953 250.36603728 191.03125 253.94140625 C196.58509 258.69395968 203.59739965 261.55806638 210.17871094 264.60693359 C224.02228034 271.08322171 239.03961789 278.99141157 245.03125 293.94140625 C245.83831684 296.71844232 246.15528474 299.17886746 246.15150452 302.06695557 C246.15287918 302.88021301 246.15425385 303.69347046 246.15567017 304.53137207 C246.15207489 305.41466187 246.14847961 306.29795166 246.14477539 307.20800781 C246.14492142 308.14493469 246.14506744 309.08186157 246.1452179 310.04718018 C246.14452157 313.14215413 246.13674223 316.23706781 246.12890625 319.33203125 C246.12704108 321.47865771 246.12561764 323.62528459 246.12461853 325.77191162 C246.12080118 331.42062557 246.11097754 337.06931379 246.09991455 342.71801758 C246.08968364 348.48258109 246.0851173 354.24714877 246.08007812 360.01171875 C246.0693546 371.32162588 246.05228753 382.63151393 246.03125 393.94140625 C245.43806756 393.92628054 244.84488512 393.91115482 244.23372746 393.89557076 C229.62723206 393.53103085 215.02227878 393.29506243 200.41172886 393.1926899 C193.34448995 393.14024378 186.28243202 393.04772157 179.2175293 392.85449219 C147.13898968 391.99973374 119.85509366 391.41446474 94.94325256 414.33145142 C90.84961397 418.00047697 86.40574098 421.01869221 81.84375 424.06640625 C80.61744327 424.93890219 79.39443519 425.81606533 78.17578125 426.69921875 C77.13808594 427.43914062 76.10039062 428.1790625 75.03125 428.94140625 C73.45923828 430.11316406 73.45923828 430.11316406 71.85546875 431.30859375 C69.03125 432.94140625 69.03125 432.94140625 66.890625 433.0078125 C64.20173802 431.46565673 62.97572904 429.45321095 61.28125 426.87890625 C60.66765625 425.95980469 60.0540625 425.04070312 59.421875 424.09375 C58.96296875 423.38347656 58.5040625 422.67320312 58.03125 421.94140625 C59.48118494 418.34291361 61.19405338 416.8497263 64.421875 414.75390625 C65.34548828 414.15223633 66.26910156 413.55056641 67.22070312 412.93066406 C68.23068359 412.27420898 69.24066406 411.61775391 70.28125 410.94140625 C71.32216797 410.21018555 72.36308594 409.47896484 73.43554688 408.72558594 C78.84457246 404.96134322 83.96307259 401.80806849 90.19496155 399.58938599 C98.91589402 396.44708747 107.69366104 392.68980854 112.85894775 384.62634277 C117.70034683 373.53803406 116.45043431 359.19256873 116.21875 347.31640625 C116.20484222 346.53967056 116.19093445 345.76293488 116.17660522 344.96266174 C116.06874731 339.66592712 115.8583661 334.37989992 115.57421875 329.08984375 C115.54059423 328.39444614 115.50696972 327.69904854 115.47232628 326.98257828 C114.95989639 317.34700462 113.59629079 308.98517791 106.9453125 301.63671875 C97.73759658 295.32016278 87.75316524 290.41927203 77.81298828 285.36914062 C73.29135009 283.04839811 68.82528534 280.62493177 64.37207031 278.17578125 C61.37516024 276.46253714 61.37516024 276.46253714 58.03125 275.94140625 C56.69872691 277.22014584 56.69872691 277.22014584 55.28125 279.00390625 C51.11424226 283.91190909 46.72333325 288.58856166 42.31225586 293.27587891 C39.57448846 296.19210873 36.85425827 299.1131968 34.23046875 302.1328125 C33.44285156 303.03902344 32.65523438 303.94523437 31.84375 304.87890625 C31.16957031 305.67167969 30.49539063 306.46445312 29.80078125 307.28125 C28.03125 308.94140625 28.03125 308.94140625 25.03125 308.94140625 C22.8308835 307.52095402 20.75004035 306.06847144 18.65625 304.50390625 C11.87065402 299.50694845 4.9692284 294.74462206 -1.96875 289.94140625 C-1.96875 346.04140625 -1.96875 402.14140625 -1.96875 459.94140625 C3.97125 455.98140625 9.91125 452.02140625 16.03125 447.94140625 C26.03125 441.27473958 36.03125 434.60807292 46.03125 427.94140625 C51.31616998 434.54501638 51.31616998 434.54501638 52.84375 436.56640625 C53.50310547 437.42105469 53.50310547 437.42105469 54.17578125 438.29296875 C54.45808594 438.83695312 54.74039062 439.3809375 55.03125 439.94140625 C53.90440803 443.32193215 53.37119612 443.66703234 50.51220703 445.54174805 C49.76697784 446.03623947 49.02174866 446.5307309 48.25393677 447.04020691 C47.44052826 447.56834488 46.62711975 448.09648285 45.7890625 448.640625 C44.9509201 449.19450394 44.11277771 449.74838287 43.24923706 450.31904602 C40.55654122 452.09667735 37.85680913 453.86324855 35.15625 455.62890625 C31.63556494 457.94159463 28.11782591 460.25872019 24.6015625 462.578125 C23.33105545 463.41524269 23.33105545 463.41524269 22.03488159 464.26927185 C15.90036895 468.32643311 9.92177481 472.53592717 4.03125 476.94140625 C1.92205026 478.48853752 -0.20039329 480.00355655 -2.34375 481.50390625 C-3.30023438 482.18582031 -4.25671875 482.86773437 -5.2421875 483.5703125 C-8.52517854 485.22121487 -9.51187792 484.92594389 -12.96875 483.94140625 C-14.92456055 482.90771484 -14.92456055 482.90771484 -16.85546875 481.58984375 C-17.61045654 481.08074463 -18.36544434 480.57164551 -19.14331055 480.04711914 C-19.97258057 479.47598389 -20.80185059 478.90484863 -21.65625 478.31640625 C-22.55706299 477.70595459 -23.45787598 477.09550293 -24.38598633 476.46655273 C-26.43536763 475.07689798 -28.48232666 473.68366684 -30.52734375 472.28759766 C-34.249429 469.74700476 -37.98361721 467.22448152 -41.71875 464.703125 C-47.48592732 460.80889254 -53.25025917 456.91049961 -59.01171875 453.0078125 C-66.96027394 447.62381364 -74.91146327 442.24372011 -82.8637085 436.86517334 C-86.36625992 434.49618563 -89.86869207 432.12702159 -93.37109375 429.7578125 C-94.06724792 429.28690186 -94.7634021 428.81599121 -95.48065186 428.33081055 C-99.98226716 425.28558121 -104.48341412 422.23966065 -108.98428345 419.19332886 C-112.08666582 417.09357327 -115.18920124 414.99404386 -118.29174805 412.89453125 C-119.76317854 411.89871303 -121.23453499 410.90278539 -122.70581055 409.90673828 C-124.75290168 408.52087675 -126.80025374 407.13540146 -128.84765625 405.75 C-129.4368837 405.35094955 -130.02611115 404.95189911 -130.63319397 404.54075623 C-131.7597946 403.7786309 -132.89101039 403.02326882 -134.02743626 402.27587318 C-135.96875 400.94140625 -135.96875 400.94140625 -137.86296654 399.41902065 C-144.19246026 394.59148477 -149.28694376 394.0816054 -157.09790039 394.16845703 C-158.27939667 394.1578273 -159.46089294 394.14719757 -160.67819214 394.13624573 C-164.55803537 394.10828763 -168.43650916 394.12223132 -172.31640625 394.13671875 C-175.01643215 394.12877113 -177.71638242 394.11187339 -180.41636658 394.09518433 C-186.78041155 394.06094376 -193.1440967 394.05689162 -199.50821537 394.06390941 C-206.75869685 394.07041798 -214.0089278 394.04293159 -221.25933468 394.012707 C-236.16250076 393.95133602 -251.06544769 393.93227432 -265.96875 393.94140625 C-266.10819775 381.50157089 -266.21459799 369.06192361 -266.27962303 356.62146378 C-266.31084296 350.84387719 -266.35314511 345.0668281 -266.42138672 339.28955078 C-266.48691216 333.70684325 -266.52252616 328.12465044 -266.53801346 322.54158783 C-266.54904039 320.41903336 -266.57057289 318.29650485 -266.60313034 316.17417145 C-266.80793574 302.26134366 -266.40722298 292.01155832 -256.78125 281.12890625 C-248.29714418 273.45450594 -237.526498 268.42404562 -227.46875 263.12890625 C-225.57553545 262.12799336 -223.68302703 261.12577817 -221.79138184 260.12190247 C-220.09730495 259.22347895 -218.40125012 258.32878795 -216.70507812 257.43432617 C-213.87349475 255.94177171 -213.87349475 255.94177171 -210.96875 253.94140625 C-209.58043443 249.21108214 -209.26227548 244.81818932 -209.96875 239.94140625 C-212.13885658 237.01478841 -214.43116218 235.14231084 -217.328125 232.9453125 C-227.06816137 225.5538352 -232.04551328 212.81286229 -233.75488281 201.05419922 C-234.46342904 194.05447429 -234.17084286 186.96226181 -233.96875 179.94140625 C-237.92875 179.94140625 -241.88875 179.94140625 -245.96875 179.94140625 C-245.96875 174.66140625 -245.96875 169.38140625 -245.96875 163.94140625 C-242.00875 163.94140625 -238.04875 163.94140625 -233.96875 163.94140625 C-233.88625 162.20890625 -233.80375 160.47640625 -233.71875 158.69140625 C-232.79234219 147.90446597 -229.09350075 138.81066557 -222.96875 129.94140625 C-222.55238281 129.3278125 -222.13601562 128.71421875 -221.70703125 128.08203125 C-214.81803165 119.06219995 -202.67323857 111.58858516 -191.57421875 109.48828125 C-189.71326947 109.24058923 -187.84098139 109.08009006 -185.96875 108.94140625 C-185.96875 104.98140625 -185.96875 101.02140625 -185.96875 96.94140625 C-180.68875 96.94140625 -175.40875 96.94140625 -169.96875 96.94140625 C-169.96875 100.90140625 -169.96875 104.86140625 -169.96875 108.94140625 C-167.926875 109.21984375 -167.926875 109.21984375 -165.84375 109.50390625 C-151.49190357 112.43119504 -139.97016934 120.95916873 -131.59375 132.75390625 C-125.29253418 142.81039211 -123.47958413 152.19222123 -122.96875 163.94140625 C-119.00875 163.94140625 -115.04875 163.94140625 -110.96875 163.94140625 C-110.96875 169.22140625 -110.96875 174.50140625 -110.96875 179.94140625 C-114.92875 179.94140625 -118.88875 179.94140625 -122.96875 179.94140625 C-122.93394531 181.318125 -122.89914063 182.69484375 -122.86328125 184.11328125 C-122.55856143 200.95555933 -124.01036121 217.37289909 -136.0234375 230.42578125 C-138.90266441 233.38069762 -141.90937368 236.17450445 -144.96875 238.94140625 C-147.27791514 240.82302621 -147.27791514 240.82302621 -147.23413086 243.90917969 C-146.86089486 249.61911627 -146.54734001 253.54146828 -142.12548828 257.46289062 C-138.43503474 259.74265819 -134.50276686 261.46695039 -130.53125 263.19140625 C-129.16631131 263.82841005 -127.80364391 264.47030462 -126.44335938 265.1171875 C-123.95339529 266.29654242 -121.45709562 267.43753576 -118.93969727 268.55957031 C-115.96875 269.94140625 -115.96875 269.94140625 -112.96875 271.94140625 C-108.73496553 271.59769919 -105.34162253 269.80771957 -101.5859375 267.9140625 C-100.97799347 267.60928986 -100.37004944 267.30451721 -99.74368286 266.99050903 C-97.77399493 266.00088937 -95.80887305 265.00255528 -93.84375 264.00390625 C-92.48847485 263.3209861 -91.13300503 262.63845216 -89.77734375 261.95629883 C-81.371487 257.7165358 -73.0026281 253.40773008 -64.72998047 248.91235352 C-60.88329469 246.84318618 -57.18156485 245.18550314 -52.96875 243.94140625 C-52.53745316 239.75814109 -52.2126998 235.57301852 -51.90625 231.37890625 C-51.78314453 230.19748047 -51.66003906 229.01605469 -51.53320312 227.79882812 C-50.97622618 221.27686065 -50.97622618 221.27686065 -53.82275391 215.68237305 C-56.12524555 213.90649746 -58.46148259 212.4094085 -60.96875 210.94140625 C-74.60034488 199.3082705 -83.64819871 182.73378414 -85.96875 164.94140625 C-86.19232983 160.06228934 -86.15912279 155.19925101 -86.09375 150.31640625 C-86.08472656 149.02605469 -86.07570312 147.73570312 -86.06640625 146.40625 C-86.04303566 143.25122071 -86.00717211 140.09628814 -85.96875 136.94140625 C-91.90875 136.94140625 -97.84875 136.94140625 -103.96875 136.94140625 C-103.96875 121.76140625 -103.96875 106.58140625 -103.96875 90.94140625 C-99.01875 90.94140625 -94.06875 90.94140625 -88.96875 90.94140625 C-89.05125 89.45640625 -89.13375 87.97140625 -89.21875 86.44140625 C-89.14584675 72.20704587 -83.6773118 60.18615982 -76.96875 47.94140625 C-73.34598685 49.26696435 -70.33369652 50.8848758 -67.15625 53.06640625 C-65.97095703 53.87464844 -65.97095703 53.87464844 -64.76171875 54.69921875 C-63.87419922 55.31410156 -63.87419922 55.31410156 -62.96875 55.94140625 C-64.00104484 58.5603765 -65.06285859 61.1573734 -66.1875 63.73828125 C-70.20691899 73.00255184 -71.84066217 80.78861576 -72.96875 90.94140625 C-59.76875 90.94140625 -46.56875 90.94140625 -32.96875 90.94140625 C-32.96875 71.80140625 -32.96875 52.66140625 -32.96875 32.94140625 C-43.31713434 37.86690411 -43.31713434 37.86690411 -51.25 44.71875 C-52.96875 45.94140625 -52.96875 45.94140625 -54.890625 45.91015625 C-57.73664575 44.58343981 -59.52657991 42.74264204 -61.71875 40.50390625 C-62.91757812 39.29927734 -62.91757812 39.29927734 -64.140625 38.0703125 C-65.96875 35.94140625 -65.96875 35.94140625 -65.96875 33.94140625 C-64.17534298 32.28926074 -62.3969827 30.79852615 -60.46875 29.31640625 C-59.89576172 28.87562744 -59.32277344 28.43484863 -58.73242188 27.98071289 C-51.10595211 22.31897671 -41.49448904 16.27867346 -31.96875 14.94140625 C-31.5975 13.61109375 -31.5975 13.61109375 -31.21875 12.25390625 C-28.94947201 6.24031959 -25.42693811 3.19309278 -19.96875 -0.05859375 C-13.6700685 -2.15815425 -6.26189567 -2.23286017 0 0 Z M-16.96875 18.94140625 C-17.54849939 22.24859585 -17.54849939 22.24859585 -17.42285156 26.00488281 C-17.42343567 26.707724 -17.42401978 27.41056519 -17.42462158 28.13470459 C-17.42184139 30.45098777 -17.39075512 32.76597374 -17.359375 35.08203125 C-17.35191232 36.69056495 -17.34621951 38.29910776 -17.34222412 39.90765381 C-17.32696977 44.1362021 -17.28769018 48.36419863 -17.2434082 52.5925293 C-17.2024509 56.90926652 -17.18421216 61.22609312 -17.1640625 65.54296875 C-17.12119513 74.0093957 -17.05084741 82.47526872 -16.96875 90.94140625 C-12.34875 90.94140625 -7.72875 90.94140625 -2.96875 90.94140625 C-2.87838676 81.62287088 -2.80499854 72.30462642 -2.76150131 62.98575211 C-2.74062497 58.65863011 -2.71230688 54.33182337 -2.66699219 50.00488281 C-2.62353548 45.82923026 -2.59961325 41.65388095 -2.58924103 37.47801971 C-2.58184928 35.88477555 -2.56741479 34.29154801 -2.54582977 32.69843292 C-2.51679673 30.46688456 -2.51279374 28.23658961 -2.51464844 26.00488281 C-2.50576599 24.73469299 -2.49688354 23.46450317 -2.48773193 22.15582275 C-2.71475197 18.87199914 -2.71475197 18.87199914 -4.80963135 16.53118896 C-6.93613593 14.71432236 -6.93613593 14.71432236 -9.96875 14.44140625 C-13.72363107 15.06721976 -14.67420278 15.93721623 -16.96875 18.94140625 Z M13.03125 32.94140625 C13.03125 52.08140625 13.03125 71.22140625 13.03125 90.94140625 C26.23125 90.94140625 39.43125 90.94140625 53.03125 90.94140625 C53.03125 73.43857862 47.10975207 58.9572282 34.80078125 46.5703125 C25.22219979 37.19209197 25.22219979 37.19209197 13.03125 32.94140625 Z M-87.96875 106.94140625 C-87.96875 111.56140625 -87.96875 116.18140625 -87.96875 120.94140625 C-36.48875 120.94140625 14.99125 120.94140625 68.03125 120.94140625 C68.03125 116.32140625 68.03125 111.70140625 68.03125 106.94140625 C16.55125 106.94140625 -34.92875 106.94140625 -87.96875 106.94140625 Z M-206.96875 135.94140625 C-214.55619074 144.99024122 -216.77793726 152.03327887 -217.96875 163.94140625 C-191.89875 163.94140625 -165.82875 163.94140625 -138.96875 163.94140625 C-140.11204507 151.3651605 -143.30561981 141.46322185 -152.96875 132.94140625 C-158.56111804 128.90046935 -163.23917207 126.8641428 -169.96875 124.94140625 C-169.96875 130.88140625 -169.96875 136.82140625 -169.96875 142.94140625 C-175.24875 142.94140625 -180.52875 142.94140625 -185.96875 142.94140625 C-185.96875 137.00140625 -185.96875 131.06140625 -185.96875 124.94140625 C-193.64556435 124.94140625 -201.78282458 130.80440466 -206.96875 135.94140625 Z M130.03125 135.94140625 C122.22065001 144.46522362 120.09357091 152.25587625 119.03125 163.94140625 C145.10125 163.94140625 171.17125 163.94140625 198.03125 163.94140625 C196.61423436 151.18826549 193.62066591 141.49764117 183.70703125 132.93359375 C178.0826262 128.71308258 172.84426097 126.59599463 166.03125 124.94140625 C166.03125 130.88140625 166.03125 136.82140625 166.03125 142.94140625 C160.75125 142.94140625 155.47125 142.94140625 150.03125 142.94140625 C150.03125 137.00140625 150.03125 131.06140625 150.03125 124.94140625 C142.76776062 124.94140625 135.00832356 131.26047334 130.03125 135.94140625 Z M-69.96875 136.94140625 C-71.06610413 157.91338636 -71.06610413 157.91338636 -65.96875 176.94140625 C-65.33259766 178.35486328 -65.33259766 178.35486328 -64.68359375 179.796875 C-56.9682849 195.37793047 -43.25517196 206.19115324 -27.0625 211.98046875 C-11.56952062 216.43678271 5.30768739 214.51623906 19.40625 206.75390625 C35.94729772 196.19722133 45.8000166 181.98195654 50.03125 162.94140625 C50.03125 154.36140625 50.03125 145.78140625 50.03125 136.94140625 C10.43125 136.94140625 -29.16875 136.94140625 -69.96875 136.94140625 Z M-217.96875 179.94140625 C-217.96875 197.19071527 -217.6944658 209.66517823 -205.8984375 222.12890625 C-196.65963412 230.88484534 -187.38631247 233.4630109 -174.8671875 233.21875 C-163.47346542 232.40817458 -155.40470851 226.71707563 -147.71875 218.69140625 C-137.80353422 207.15936747 -138.96875 194.98803936 -138.96875 179.94140625 C-165.03875 179.94140625 -191.10875 179.94140625 -217.96875 179.94140625 Z M119.03125 179.94140625 C118.91637929 203.79405416 118.91637929 203.79405416 131.1015625 222.0625 C140.36957089 230.86226406 149.54979603 233.47082329 162.13671875 233.21484375 C173.372184 232.42599464 181.65296823 226.71216458 189.28125 218.75390625 C198.53045769 207.36630236 198.03125 194.0567185 198.03125 179.94140625 C171.96125 179.94140625 145.89125 179.94140625 119.03125 179.94140625 Z M-34.96875 225.94140625 C-37.62608138 231.25606901 -38.07148618 239.11451365 -36.96875 244.94140625 C-34.06888481 248.91958265 -30.24902924 250.64667415 -25.96875 252.94140625 C-24.65643226 253.84358292 -23.35737136 254.76526569 -22.0703125 255.703125 C-21.41095703 256.17758057 -20.75160156 256.65203613 -20.07226562 257.14086914 C-18.77206427 258.07767513 -17.47632279 259.02070818 -16.18554688 259.97045898 C-14.16174168 261.42086705 -14.16174168 261.42086705 -10.96875 262.94140625 C-7.08445975 261.83598772 -4.00928005 259.77410502 -0.703125 257.5 C0.75480469 256.50129883 0.75480469 256.50129883 2.2421875 255.48242188 C3.24507813 254.78826172 4.24796875 254.09410156 5.28125 253.37890625 C6.29960937 252.68087891 7.31796875 251.98285156 8.3671875 251.26367188 C12.90083227 248.35486623 12.90083227 248.35486623 17.03125 244.94140625 C16.96639743 242.1144239 16.83948914 239.32349848 16.65625 236.50390625 C16.61242187 235.71435547 16.56859375 234.92480469 16.5234375 234.11132812 C16.35352993 229.89129814 16.35352993 229.89129814 15.03125 225.94140625 C14.08507812 226.15796875 13.13890625 226.37453125 12.1640625 226.59765625 C-4.00770383 230.08966419 -18.88166512 229.62346383 -34.96875 225.94140625 Z M-193.96875 246.94140625 C-195.27214255 250.46215565 -195.63931688 253.22967692 -194.96875 256.94140625 C-191.82752958 261.93521619 -187.22533853 265.91356588 -182.96875 269.94140625 C-181.29248567 271.59875721 -179.63096169 273.26992572 -177.96875 274.94140625 C-175.67357087 272.50719309 -173.38323005 270.06847941 -171.09375 267.62890625 C-170.44277344 266.93861328 -169.79179687 266.24832031 -169.12109375 265.53710938 C-168.49589844 264.87001953 -167.87070313 264.20292969 -167.2265625 263.515625 C-166.6505127 262.90291748 -166.07446289 262.29020996 -165.48095703 261.65893555 C-162.66093828 258.50204179 -162.66093828 258.50204179 -161.9921875 254.4609375 C-162.10820312 253.56761719 -162.22421875 252.67429687 -162.34375 251.75390625 C-162.45460937 250.85285156 -162.56546875 249.95179688 -162.6796875 249.0234375 C-162.77507812 248.33636719 -162.87046875 247.64929688 -162.96875 246.94140625 C-163.7628125 247.10382813 -164.556875 247.26625 -165.375 247.43359375 C-169.76927097 248.05452334 -174.03785557 248.08707916 -178.46875 248.06640625 C-179.29761719 248.07027344 -180.12648438 248.07414063 -180.98046875 248.078125 C-185.42327576 248.07106171 -189.59577514 247.83587838 -193.96875 246.94140625 Z M143.03125 246.94140625 C141.62766346 253.24042879 140.49434918 260.10405088 143.65625 265.94140625 C148.38311102 269.92192079 152.85975414 271.62219095 159.03125 271.94140625 C164.50379759 271.26132267 168.70618591 269.44264861 173.03125 265.94140625 C175.68850923 262.25271088 175.0628421 258.49315067 174.65625 254.19140625 C174.59953125 253.49402344 174.5428125 252.79664063 174.484375 252.078125 C174.34357128 250.36501313 174.18879028 248.65306014 174.03125 246.94140625 C173.2371875 247.10382813 172.443125 247.26625 171.625 247.43359375 C167.23072903 248.05452334 162.96214443 248.08707916 158.53125 248.06640625 C157.70238281 248.07027344 156.87351562 248.07414063 156.01953125 248.078125 C151.57672424 248.07106171 147.40422486 247.83587838 143.03125 246.94140625 Z M-48.98339844 258.54052734 C-49.6746582 258.92805176 -50.36591797 259.31557617 -51.078125 259.71484375 C-52.20927734 260.33359375 -52.20927734 260.33359375 -53.36328125 260.96484375 C-54.14058594 261.41085937 -54.91789063 261.856875 -55.71875 262.31640625 C-56.51152344 262.7546875 -57.30429688 263.19296875 -58.12109375 263.64453125 C-60.07872208 264.72948189 -62.02686781 265.82859249 -63.96875 266.94140625 C-59.97630155 271.65278086 -55.90303307 276.27467186 -51.71875 280.81640625 C-51.19023437 281.39648438 -50.66171875 281.9765625 -50.1171875 282.57421875 C-47.3683072 285.66519206 -47.3683072 285.66519206 -43.96875 287.94140625 C-41.19448826 286.00877951 -38.42496513 284.06946892 -35.65625 282.12890625 C-34.87056641 281.58169922 -34.08488281 281.03449219 -33.27539062 280.47070312 C-32.51806641 279.93896484 -31.76074219 279.40722656 -30.98046875 278.859375 C-30.28397217 278.37235107 -29.58747559 277.88532715 -28.86987305 277.38354492 C-27.06961029 276.01791604 -25.52138976 274.57900578 -23.96875 272.94140625 C-27.0492442 270.81226747 -30.13362535 268.68882872 -33.21875 266.56640625 C-34.09144531 265.963125 -34.96414062 265.35984375 -35.86328125 264.73828125 C-36.70761719 264.15820312 -37.55195313 263.578125 -38.421875 262.98046875 C-39.19692383 262.44631348 -39.97197266 261.9121582 -40.77050781 261.36181641 C-44.57846087 258.51564362 -44.57846087 258.51564362 -48.98339844 258.54052734 Z M16.65625 264.25390625 C15.34140625 265.14625977 15.34140625 265.14625977 14 266.05664062 C13.15695312 266.63349609 12.31390625 267.21035156 11.4453125 267.8046875 C10.6713916 268.33360596 9.8974707 268.86252441 9.10009766 269.4074707 C7.22150528 270.80034253 5.62886843 272.23959532 4.03125 273.94140625 C6.96421341 276.09349548 9.90336164 278.23697575 12.84375 280.37890625 C13.67712891 280.99056641 14.51050781 281.60222656 15.36914062 282.23242188 C16.17158203 282.81572266 16.97402344 283.39902344 17.80078125 284 C18.53917236 284.53939209 19.27756348 285.07878418 20.03833008 285.63452148 C22.09516602 287.10481773 22.09516602 287.10481773 25.03125 287.94140625 C31.81311537 281.29794629 38.38843311 274.59468785 44.03125 266.94140625 C41.22051431 265.43808247 38.40737794 263.9393089 35.59375 262.44140625 C34.39008789 261.79751953 34.39008789 261.79751953 33.16210938 261.140625 C32.39833984 260.73457031 31.63457031 260.32851563 30.84765625 259.91015625 C30.14068604 259.53310547 29.43371582 259.15605469 28.70532227 258.76757812 C24.55313183 256.71842946 20.03355398 261.93754835 16.65625 264.25390625 Z M-217.47827148 275.91064453 C-219.36300798 276.91828762 -221.25432896 277.91262633 -223.14648438 278.90625 C-238.87099472 286.90237964 -238.87099472 286.90237964 -249.96875 299.94140625 C-250.29875 303.57140625 -250.62875 307.20140625 -250.96875 310.94140625 C-229.51875 310.94140625 -208.06875 310.94140625 -185.96875 310.94140625 C-184.15588391 291.83173493 -184.15588391 291.83173493 -189.3984375 284.27734375 C-191.52866157 282.17477022 -191.52866157 282.17477022 -193.84375 280.31640625 C-195.32045376 278.94937133 -196.79702236 277.58219038 -198.2734375 276.21484375 C-198.93327637 275.65200684 -199.59311523 275.08916992 -200.27294922 274.50927734 C-201.96875 272.94140625 -201.96875 272.94140625 -203.96875 269.94140625 C-208.62230093 269.94140625 -213.39129225 273.72016935 -217.47827148 275.91064453 Z M-153.7890625 271.62890625 C-158.20814114 276.06296482 -162.49107261 280.55263483 -166.55859375 285.3125 C-167.64504098 286.56748198 -168.79500655 287.7676628 -169.96875 288.94140625 C-170.24640416 291.2695783 -170.24640416 291.2695783 -170.1640625 293.94921875 C-170.15761719 294.93535156 -170.15117187 295.92148437 -170.14453125 296.9375 C-170.12777344 297.97003906 -170.11101562 299.00257813 -170.09375 300.06640625 C-170.08472656 301.10667969 -170.07570313 302.14695312 -170.06640625 303.21875 C-170.04278867 305.79306622 -170.00691684 308.36726463 -169.96875 310.94140625 C-163.36875 310.94140625 -156.76875 310.94140625 -149.96875 310.94140625 C-149.22625 308.52828125 -149.22625 308.52828125 -148.46875 306.06640625 C-144.54531139 295.39355575 -137.48138862 288.82832605 -127.96875 282.94140625 C-130.6924166 280.80915113 -133.41885454 279.06699338 -136.48046875 277.4609375 C-137.32029297 277.01943359 -138.16011719 276.57792969 -139.02539062 276.12304688 C-139.89357422 275.67123047 -140.76175781 275.21941406 -141.65625 274.75390625 C-142.53603516 274.29048828 -143.41582031 273.82707031 -144.32226562 273.34960938 C-149.20486319 269.99504405 -149.20486319 269.99504405 -153.7890625 271.62890625 Z M122.6796875 274.12890625 C121.82890625 274.58007812 120.978125 275.03125 120.1015625 275.49609375 C119.21210938 275.97304688 118.32265625 276.45 117.40625 276.94140625 C116.5090625 277.41835938 115.611875 277.8953125 114.6875 278.38671875 C112.4667687 279.5679588 110.24814803 280.75299214 108.03125 281.94140625 C108.7634375 282.5240625 109.495625 283.10671875 110.25 283.70703125 C120.39177649 291.85463821 127.33561237 298.88822317 130.03125 311.94140625 C130.47739606 317.07953922 130.52099643 322.20256165 130.54296875 327.35546875 C130.55960571 328.64283936 130.57624268 329.93020996 130.59338379 331.2565918 C130.65084588 336.02636688 130.6833514 340.7964164 130.71875 345.56640625 C130.8734375 361.59203125 130.8734375 361.59203125 131.03125 377.94140625 C164.03125 377.94140625 197.03125 377.94140625 231.03125 377.94140625 C231.093125 360.36890625 231.093125 360.36890625 231.15625 342.44140625 C231.17445801 338.75533203 231.19266602 335.06925781 231.21142578 331.27148438 C231.21811856 327.93988223 231.21811856 327.93988223 231.22213745 324.60827637 C231.22518953 323.13528227 231.23218371 321.66229288 231.24240112 320.18933105 C231.25717296 317.94579514 231.25905761 315.70256207 231.25830078 313.45898438 C231.262742 312.197677 231.26718323 310.93636963 231.27175903 309.63684082 C230.76254676 301.81276609 228.94236463 296.19842213 223.03125 290.94140625 C212.84249603 283.06471568 200.44310447 277.7775204 189.03125 271.94140625 C187.92716797 273.08222656 187.92716797 273.08222656 186.80078125 274.24609375 C184.503794 276.48152563 182.3684045 278.29351128 179.71875 280.06640625 C179.02136719 280.54335938 178.32398438 281.0203125 177.60546875 281.51171875 C171.18925197 285.07520182 165.48369091 286.47860466 158.15625 286.37890625 C157.36686035 286.37060791 156.5774707 286.36230957 155.76416016 286.35375977 C145.36760108 286.05326264 138.19217326 282.506009 131.03125 274.94140625 C130.37125 273.95140625 129.71125 272.96140625 129.03125 271.94140625 C126.40250571 271.94140625 124.99894885 272.89196687 122.6796875 274.12890625 Z M-87.36328125 278.5625 C-88.47808113 279.12977562 -88.47808113 279.12977562 -89.61540222 279.70851135 C-91.19777282 280.51595173 -92.77898329 281.32566898 -94.35913086 282.13745117 C-96.72875952 283.3520023 -99.10522122 284.55230702 -101.48242188 285.75195312 C-122.25989785 295.74127161 -122.25989785 295.74127161 -134.96875 313.94140625 C-140.60004971 351.61756522 -140.60004971 351.61756522 -132.17529297 387.03564453 C-125.34935804 394.96571672 -115.23000529 398.89926473 -105.76660156 402.79150391 C-98.56300162 405.85593783 -92.39177936 410.42895523 -86.05374146 414.96243286 C-82.59479346 417.41601224 -79.07024618 419.77119507 -75.55078125 422.13671875 C-74.13723483 423.09233319 -72.72398821 424.04839125 -71.31103516 425.00488281 C-67.56024579 427.54176485 -63.80845363 430.07716025 -60.05636597 432.61212158 C-56.99248596 434.68220539 -53.92896958 436.75282698 -50.86547852 438.82348633 C-49.4216485 439.79917652 -47.97764543 440.77461067 -46.53344727 441.74975586 C-44.5153311 443.11244407 -42.49780819 444.47600599 -40.48046875 445.83984375 C-39.84640106 446.26791321 -39.21233337 446.69598267 -38.55905151 447.13702393 C-35.41217874 449.26651428 -32.28158381 451.41559008 -29.17431641 453.60253906 C-28.57359818 454.02419342 -27.97287994 454.44584778 -27.35395813 454.88027954 C-25.71847283 456.03142883 -24.08723519 457.18860623 -22.45629883 458.34619141 C-20.18067251 460.1213455 -20.18067251 460.1213455 -17.96875 459.94140625 C-17.96875 403.84140625 -17.96875 347.74140625 -17.96875 289.94140625 C-21.68177985 291.42661819 -23.70726012 292.28183614 -26.67578125 294.5859375 C-27.34544922 295.09833984 -28.01511719 295.61074219 -28.70507812 296.13867188 C-29.7327832 296.93821289 -29.7327832 296.93821289 -30.78125 297.75390625 C-36.01121035 301.80274637 -41.29233211 305.53972587 -46.96875 308.94140625 C-50.44560782 305.54170478 -53.85963688 302.13083375 -57.03125 298.44140625 C-61.22986184 293.56064009 -65.65965181 288.89768695 -70.08227539 284.22070312 C-72.44715395 281.70734957 -74.72415027 279.27533805 -76.765625 276.48828125 C-77.16265625 275.9778125 -77.5596875 275.46734375 -77.96875 274.94140625 C-81.41527922 274.94140625 -84.34483786 277.01840126 -87.36328125 278.5625 Z M-250.96875 326.94140625 C-250.96875 331.56140625 -250.96875 336.18140625 -250.96875 340.94140625 C-229.51875 340.94140625 -208.06875 340.94140625 -185.96875 340.94140625 C-185.96875 336.32140625 -185.96875 331.70140625 -185.96875 326.94140625 C-207.41875 326.94140625 -228.86875 326.94140625 -250.96875 326.94140625 Z M-169.96875 326.94140625 C-169.96875 331.56140625 -169.96875 336.18140625 -169.96875 340.94140625 C-163.69875 340.94140625 -157.42875 340.94140625 -150.96875 340.94140625 C-150.96875 336.32140625 -150.96875 331.70140625 -150.96875 326.94140625 C-157.23875 326.94140625 -163.50875 326.94140625 -169.96875 326.94140625 Z M-250.96875 356.94140625 C-250.96875 363.87140625 -250.96875 370.80140625 -250.96875 377.94140625 C-229.51875 377.94140625 -208.06875 377.94140625 -185.96875 377.94140625 C-185.96875 371.01140625 -185.96875 364.08140625 -185.96875 356.94140625 C-207.41875 356.94140625 -228.86875 356.94140625 -250.96875 356.94140625 Z M-169.96875 356.94140625 C-169.96875 363.87140625 -169.96875 370.80140625 -169.96875 377.94140625 C-163.69875 377.94140625 -157.42875 377.94140625 -150.96875 377.94140625 C-150.96875 371.01140625 -150.96875 364.08140625 -150.96875 356.94140625 C-157.23875 356.94140625 -163.50875 356.94140625 -169.96875 356.94140625 Z " fill="#000000" transform="translate(265.96875,14.05859375)"/>
<path d="M0 0 C5.28 0 10.56 0 16 0 C16 5.28 16 10.56 16 16 C10.72 16 5.44 16 0 16 C0 10.72 0 5.44 0 0 Z " fill="#000000" transform="translate(351,362)"/>
<path d="M0 0 C5.28 0 10.56 0 16 0 C16 5.28 16 10.56 16 16 C10.72 16 5.44 16 0 16 C0 10.72 0 5.44 0 0 Z " fill="#000000" transform="translate(351,332)"/>
</svg>
